<svg width="96" height="92" viewBox="0 0 96 92" fill="none" xmlns="http://www.w3.org/2000/svg">
<path d="M80.8115 41.0969H74.7761C74.3149 41.0969 74.118 41.6918 74.118 42.236C74.118 42.864 74.3561 43.4104 74.7761 43.4104H76.7054V52.3889C76.7054 52.9177 77.251 53.1821 77.7966 53.1821C78.3422 53.1821 78.8878 52.9177 78.8878 52.3889V43.4104H80.8115C81.2315 43.4104 81.4678 42.864 81.4678 42.236C81.4753 41.6918 81.2803 41.0969 80.8115 41.0969ZM10.0324 45.6688C9.75424 45.6688 9.48236 45.7657 9.25111 45.9473C9.01986 46.1288 8.83962 46.3869 8.73319 46.6889C8.62676 46.9908 8.59891 47.3231 8.65317 47.6436C8.70743 47.9642 8.84136 48.2586 9.03802 48.4897C9.23468 48.7208 9.48524 48.8782 9.75802 48.942C10.0308 49.0057 10.3135 48.973 10.5705 48.848C10.8274 48.7229 11.0471 48.5111 11.2016 48.2393C11.3561 47.9676 11.4386 47.6481 11.4386 47.3213C11.4386 46.883 11.2904 46.4627 11.0267 46.1528C10.763 45.8429 10.4053 45.6688 10.0324 45.6688ZM85.9676 45.6688C85.6895 45.6688 85.4176 45.7657 85.1864 45.9473C84.9551 46.1288 84.7749 46.3869 84.6685 46.6889C84.562 46.9908 84.5342 47.3231 84.5885 47.6436C84.6427 47.9642 84.7766 48.2586 84.9733 48.4897C85.17 48.7208 85.4205 48.8782 85.6933 48.942C85.9661 49.0057 86.2488 48.973 86.5058 48.848C86.7627 48.7229 86.9824 48.5111 87.1369 48.2393C87.2914 47.9676 87.3739 47.6481 87.3739 47.3213C87.3739 46.883 87.2257 46.4627 86.962 46.1528C86.6983 45.8429 86.3406 45.6688 85.9676 45.6688ZM95.9986 30.7964C95.9976 29.482 95.5528 28.2217 94.7619 27.2923C93.971 26.3628 92.8985 25.8401 91.78 25.839H84.2014C84.1714 25.7508 84.1433 25.6627 84.1077 25.579C83.2096 23.3933 80.9897 22.545 79.0303 21.7959C77.6898 21.2847 76.3061 20.7559 75.7829 19.987C75.2598 19.218 75.1192 17.4972 74.9898 15.8425C74.8023 13.3242 74.5905 10.7199 72.9855 9.21499C71.3806 7.71013 69.1869 8.06045 67.0588 8.39095C65.6489 8.61128 64.192 8.83161 63.4195 8.39095C62.6471 7.95029 61.9327 6.51373 61.2146 5.10361C60.1515 3.01707 58.9478 0.652921 56.9154 0.110907C54.9542 -0.411278 53.1167 1.00545 51.3412 2.37591C50.1374 3.30571 48.8906 4.26855 48 4.26855C47.1094 4.26855 45.8626 3.30571 44.6588 2.37591C42.8833 1.00545 41.0458 -0.411278 39.0846 0.110907C37.0522 0.661734 35.8485 3.0347 34.7854 5.11242C34.0673 6.52254 33.3248 7.97673 32.5823 8.39976C31.808 8.84043 30.3511 8.62009 28.9412 8.39976C26.8131 8.06927 24.6119 7.72555 23.0145 9.2238C21.417 10.7221 21.2052 13.333 21.0102 15.8514C20.8808 17.506 20.7477 19.2158 20.2171 19.9958C19.6865 20.7758 18.3102 21.2935 16.9697 21.8047C15.0103 22.5538 12.7904 23.4021 11.8904 25.5922C11.8567 25.6759 11.8286 25.7619 11.7986 25.8478H4.22003C3.10278 25.8489 2.03146 26.3704 1.24075 27.298C0.45003 28.2255 0.0043751 29.4835 0.00139886 30.7964C0.00139886 30.8728 0.00139886 30.9499 0.00139886 31.0278C-0.000466286 31.0667 -0.000466286 31.1056 0.00139886 31.1445V57.2362C0.0023918 58.5506 0.447172 59.8109 1.2381 60.7403C2.02903 61.6698 3.10148 62.1924 4.22003 62.1936H11.7573C11.4292 63.6742 11.3486 65.0998 11.8923 66.4196C12.7904 68.6052 15.0103 69.4535 16.9697 70.2026C18.3102 70.7138 19.694 71.2426 20.2171 72.0116C20.7402 72.7805 20.8808 74.5013 21.0102 76.156C21.1977 78.6744 21.4095 81.2787 23.0145 82.7836C24.6194 84.2884 26.8131 83.9381 28.9412 83.6076C30.3511 83.3873 31.808 83.1669 32.5805 83.6076C33.3304 84.0284 34.0673 85.4848 34.7854 86.8949C35.8485 88.9815 37.0522 91.3456 39.0846 91.8876C39.3632 91.9628 39.6482 92.0005 39.934 92C41.5783 92 43.1401 90.7926 44.6588 89.6226C45.8626 88.6928 47.1094 87.73 48 87.73C48.8906 87.73 50.1374 88.6928 51.3412 89.6226C53.1167 90.9931 54.9542 92.4098 56.9154 91.8876C58.9478 91.3456 60.1515 88.9815 61.2146 86.8949C61.9327 85.4848 62.6752 84.0306 63.4177 83.6076C64.192 83.1669 65.6489 83.3873 67.0588 83.6076C69.1869 83.9381 71.3881 84.2818 72.9855 82.7836C74.583 81.2853 74.7948 78.6744 74.9898 76.156C75.1192 74.5013 75.2523 72.7915 75.7829 72.0116C76.3136 71.2316 77.6898 70.7138 79.0303 70.2026C80.9897 69.4535 83.2096 68.6052 84.1077 66.4196C84.6514 65.0976 84.5708 63.6742 84.2427 62.1936H91.78C92.8985 62.1924 93.971 61.6698 94.7619 60.7403C95.5528 59.8109 95.9976 58.5506 95.9986 57.2362V31.1445C96.0005 31.1056 96.0005 31.0667 95.9986 31.0278C95.9986 30.9499 95.9986 30.8728 95.9986 30.7964ZM14.3166 27.5774C14.3201 27.3836 14.3564 27.1926 14.4235 27.0155C14.7985 26.099 16.4147 25.4732 17.8396 24.94C19.5721 24.279 21.3645 23.5916 22.4145 22.0493C23.4645 20.507 23.6426 18.2838 23.8095 16.1444C23.9463 14.3994 24.1001 12.4252 24.7694 11.7973C25.4388 11.1693 27.0981 11.4381 28.5718 11.6673C30.3905 11.9515 32.2711 12.2445 33.8029 11.3786C35.3029 10.526 36.2666 8.63772 37.1984 6.80897C37.9709 5.29089 38.8484 3.57011 39.7071 3.34096C40.5002 3.12063 41.8896 4.20246 43.1139 5.14768C44.6645 6.34407 46.2676 7.57132 48 7.57132C49.7324 7.57132 51.3355 6.33306 52.8861 5.14768C54.1104 4.20246 55.4979 3.12944 56.2929 3.34096C57.1516 3.56129 58.0291 5.29089 58.8016 6.80897C59.739 8.63772 60.6953 10.526 62.199 11.3786C63.7027 12.2313 65.6095 11.9515 67.4282 11.6673C68.9019 11.4469 70.5706 11.1781 71.2306 11.7973C71.8906 12.4164 72.0537 14.3994 72.1905 16.1444C72.3574 18.2838 72.5299 20.4959 73.5855 22.0493C74.6411 23.6026 76.4279 24.2768 78.1604 24.94C79.5853 25.4842 81.1997 26.099 81.5746 27.0111C81.6428 27.1894 81.6797 27.382 81.6834 27.5774C81.7265 28.5579 81.2728 29.9878 80.834 31.3671C80.7215 31.724 80.6072 32.0854 80.4966 32.4489H73.593C71.3716 26.6585 67.775 21.7447 63.2351 18.2978C58.6952 14.8509 53.405 13.0173 48 13.0173C42.595 13.0173 37.3048 14.8509 32.7649 18.2978C28.225 21.7447 24.6284 26.6585 22.407 32.4489H15.5034C15.3928 32.0854 15.2785 31.724 15.166 31.3671C14.7272 29.9878 14.2735 28.5579 14.3166 27.5774ZM70.4712 32.4489H25.5288C27.6503 27.5926 30.8703 23.5177 34.8348 20.6726C38.7993 17.8274 43.3547 16.322 48 16.322C52.6453 16.322 57.2007 17.8274 61.1652 20.6726C65.1297 23.5177 68.3497 27.5926 70.4712 32.4489ZM4.22003 29.1439H11.6261C11.8421 30.2716 12.1355 31.3769 12.5035 32.4489H4.22003C3.84708 32.4489 3.4894 32.2748 3.22569 31.9649C2.96197 31.655 2.81382 31.2347 2.81382 30.7964C2.81382 30.3582 2.96197 29.9378 3.22569 29.6279C3.4894 29.318 3.84708 29.1439 4.22003 29.1439ZM81.5765 64.983C81.2015 65.8996 79.5853 66.5143 78.1604 67.0585C76.4279 67.7195 74.6355 68.407 73.5855 69.9493C72.5355 71.4916 72.3574 73.7147 72.1905 75.8541C72.0537 77.5992 71.8999 79.5733 71.2306 80.2013C70.5612 80.8292 68.9019 80.5604 67.4282 80.3313C65.6095 80.047 63.7289 79.754 62.1971 80.6199C60.6971 81.4726 59.7334 83.3608 58.8016 85.1896C58.0291 86.7076 57.1516 88.4284 56.2929 88.6576C55.4979 88.8779 54.1104 87.7961 52.8861 86.8509C51.3355 85.6545 49.7324 84.4162 48 84.4162C46.2676 84.4162 44.6645 85.6545 43.1139 86.8509C41.8896 87.7961 40.5021 88.8691 39.7071 88.6576C38.8484 88.4372 37.9709 86.7076 37.1984 85.1896C36.261 83.3608 35.3047 81.4726 33.801 80.6199C32.2973 79.7672 30.3905 80.047 28.5718 80.3313C27.0981 80.5516 25.4294 80.8204 24.7694 80.2013C24.1094 79.5821 23.9463 77.5992 23.8095 75.8541C23.6426 73.7147 23.4701 71.5026 22.4145 69.9493C21.3589 68.3959 19.5721 67.7217 17.8396 67.0585C16.4147 66.5143 14.8003 65.8996 14.4235 64.983C14.1666 64.3573 14.4029 63.2071 14.6878 62.1936H23.5451C25.9896 67.2875 29.5423 71.5263 33.8394 74.4759C38.1365 77.4255 43.0235 78.9799 48 78.9799C52.9765 78.9799 57.8635 77.4255 62.1606 74.4759C66.4577 71.5263 70.0104 67.2875 72.4549 62.1936H81.3122C81.5972 63.2071 81.8334 64.3573 81.5765 64.983ZM26.8281 62.1936H69.1644C66.8701 66.3332 63.7329 69.7343 60.0371 72.0887C56.3413 74.443 52.2039 75.6761 48 75.6761C43.7961 75.6761 39.6587 74.443 35.9629 72.0887C32.2671 69.7343 29.1299 66.3332 26.8356 62.1936H26.8281ZM93.1862 57.2362C93.1862 57.6744 93.038 58.0947 92.7743 58.4046C92.5106 58.7145 92.1529 58.8886 91.78 58.8886H4.22003C3.84708 58.8886 3.4894 58.7145 3.22569 58.4046C2.96197 58.0947 2.81382 57.6744 2.81382 57.2362V35.4696C3.26538 35.6577 3.74094 35.7538 4.22003 35.7539H91.78C92.2591 35.7538 92.7346 35.6577 93.1862 35.4696V57.2362ZM91.78 32.4489H83.4927C83.8607 31.3769 84.1542 30.2716 84.3702 29.1439H91.78C92.1529 29.1439 92.5106 29.318 92.7743 29.6279C93.038 29.9378 93.1862 30.3582 93.1862 30.7964C93.1862 31.2347 93.038 31.655 92.7743 31.9649C92.5106 32.2748 92.1529 32.4489 91.78 32.4489ZM61.4452 41.0969C60.8827 41.0969 60.3559 41.3283 60.3559 41.8725V49.3637C60.3559 50.4874 59.8515 51.0162 59.0116 51.0162C58.1716 51.0162 57.6691 50.4874 57.6691 49.3637V41.8725C57.6691 41.3283 57.1066 41.0969 56.5779 41.0969C56.0491 41.0969 55.4885 41.3283 55.4885 41.8725V49.3637C55.4885 52.206 57.026 53.2636 59.0116 53.2636C60.9971 53.2636 62.5365 52.206 62.5365 49.3637V41.8725C62.5365 41.3283 61.9777 41.0969 61.4452 41.0969ZM71.1106 41.0969C70.565 41.0969 70.0212 41.3283 70.0212 41.8725V47.4909L67.7544 42.3858C67.2238 41.1784 66.9295 41.0969 66.1457 41.0969C65.6001 41.0969 65.0545 41.3437 65.0545 41.8901V52.3889C65.0545 52.9177 65.6001 53.1821 66.1457 53.1821C66.6913 53.1821 67.2369 52.9177 67.2369 52.3889V46.7704L69.8937 52.488C70.16 53.0653 70.6081 53.1821 71.1106 53.1821C71.6562 53.1821 72.2018 52.9177 72.2018 52.3889V41.8791C72.2018 41.3282 71.6562 41.0969 71.1106 41.0969ZM49.6406 41.0969C47.7113 41.0969 46.2132 42.1545 46.2132 44.9968V49.3747C46.2132 52.217 47.7131 53.2746 49.6406 53.2746C51.568 53.2746 53.0811 52.217 53.0811 49.3747V44.9968C53.0811 42.1545 51.5718 41.0969 49.6406 41.0969ZM50.9005 49.3747C50.9005 50.5139 50.4243 51.0272 49.6406 51.0272C48.8568 51.0272 48.3956 50.5139 48.3956 49.3747V44.9968C48.3956 43.8554 48.8568 43.3443 49.6406 43.3443C50.4243 43.3443 50.9005 43.8554 50.9005 44.9968V49.3747ZM40.744 43.3553C41.9346 43.3553 41.9758 44.4129 41.9889 44.8425C42.0171 45.4374 42.4933 45.6181 43.0801 45.6181C43.8301 45.6181 44.1714 45.3867 44.1714 44.3953C44.1714 42.2977 42.662 41.1079 40.6615 41.1079C38.8278 41.1079 37.3034 42.1655 37.3034 45.0078V49.3858C37.3034 52.228 38.8278 53.2856 40.6615 53.2856C42.662 53.2856 44.1714 52.0297 44.1714 49.8308C44.1714 48.8393 43.8226 48.608 43.067 48.608C42.5045 48.608 42.0321 48.7732 41.9889 49.3858C41.9458 49.9983 41.8783 51.0382 40.759 51.0382C39.9471 51.0382 39.4859 50.5094 39.4859 49.3858V44.9968C39.4859 43.8731 39.9471 43.3553 40.744 43.3553ZM18.2952 41.0969H15.8203C15.2466 41.0969 14.8678 41.4604 14.8678 41.8725V52.3889C14.8678 52.8031 15.2428 53.1666 15.8203 53.1666H18.2952C20.2246 53.1666 21.7358 52.109 21.7358 49.2668V44.9968C21.7358 42.1545 20.2246 41.0969 18.2952 41.0969ZM19.5533 49.2756C19.5533 50.3993 19.079 50.9281 18.2952 50.9281H17.0503V43.3553H18.2952C19.079 43.3553 19.5533 43.8841 19.5533 45.0078V49.2756ZM25.2607 41.0969C24.7151 41.0969 24.1694 41.3283 24.1694 41.8725V52.3889C24.1694 52.9177 24.7151 53.1821 25.2607 53.1821C25.8063 53.1821 26.3519 52.9177 26.3519 52.3889V41.8791C26.3519 41.3282 25.8063 41.0969 25.2607 41.0969ZM30.8555 44.1705C30.8555 43.6571 31.2624 43.179 32.2542 43.179C33.4017 43.179 33.6679 43.8048 34.1704 43.8048C34.7854 43.8048 35.0385 42.897 35.0385 42.4519C35.0385 41.163 32.9967 40.9978 32.2542 40.9978C30.5068 40.9978 28.6731 41.9386 28.6731 44.4173C28.6731 48.2841 33.1073 47.9426 33.1073 49.9366C33.1073 50.7298 32.3948 51.0272 31.7517 51.0272C30.4505 51.0272 30.0305 49.8044 29.3724 49.8044C28.8418 49.8044 28.4218 50.6306 28.4218 51.1925C28.4218 52.2831 29.9612 53.3407 31.7967 53.3407C33.8254 53.3407 35.2935 52.0518 35.2935 49.6722C35.2897 45.5079 30.8555 45.823 30.8555 44.1705Z" fill="#241F1F"/>
</svg>
