<svg width="11" height="8" viewBox="0 0 11 8" fill="none" xmlns="http://www.w3.org/2000/svg">
<path d="M3.575 5.175L8.475 0.275C8.65833 0.0916663 8.89167 0 9.175 0C9.45833 0 9.69167 0.0916663 9.875 0.275C10.0583 0.458333 10.15 0.691666 10.15 0.974999C10.15 1.25833 10.0583 1.49167 9.875 1.675L4.275 7.275C4.075 7.475 3.84167 7.575 3.575 7.575C3.30833 7.575 3.075 7.475 2.875 7.275L0.275 4.675C0.0916663 4.49167 0 4.25833 0 3.975C0 3.69167 0.0916663 3.45833 0.275 3.275C0.458333 3.09167 0.691667 3 0.975 3C1.25833 3 1.49167 3.09167 1.675 3.275L3.575 5.175Z" fill="#26B635"/>
</svg>
