<svg width="33" height="33" viewBox="0 0 33 33" fill="none" xmlns="http://www.w3.org/2000/svg">
<g clip-path="url(#clip0_128_2337)">
<path d="M8.68753 21.4932C7.71429 21.4422 6.79944 21.0131 6.13795 20.2974C5.47647 19.5817 5.12065 18.6359 5.14632 17.6617C5.17199 16.6874 5.57713 15.7617 6.27539 15.0819C6.97365 14.402 7.90982 14.0217 8.88441 14.022L17.2038 15.3888L24.5425 16.5951C24.7562 16.6497 24.9508 16.7619 25.105 16.9195L25.4007 17.4588C25.545 18.0463 25.2588 18.7338 24.5425 18.9251L8.88441 21.4982C8.81816 21.4982 8.75316 21.4963 8.68753 21.4932ZM8.68753 19.9107C8.71253 19.9113 8.73816 19.912 8.76378 19.912C9.29789 19.9107 9.80989 19.6986 10.1884 19.3217C10.5669 18.9449 10.7814 18.4339 10.7851 17.8998C10.7889 17.3657 10.5816 16.8517 10.2083 16.4697C9.8351 16.0876 9.32612 15.8684 8.79208 15.8596C8.25804 15.8509 7.74215 16.0533 7.35659 16.4229C6.97104 16.7926 6.74701 17.2995 6.73323 17.8334C6.71945 18.3673 6.91703 18.8851 7.28301 19.2741C7.64899 19.6631 8.15376 19.8919 8.68753 19.9107Z" fill="#ED664C"/>
<path d="M21.8687 11.0087L25.105 16.9194C24.9507 16.7618 24.7562 16.6496 24.5425 16.595L17.2038 15.3888L21.8687 11.0087ZM8.6875 19.9106C8.15115 19.8918 7.64394 19.6619 7.27617 19.2711C6.90841 18.8802 6.70985 18.3599 6.72367 17.8234C6.73749 17.2869 6.96258 16.7776 7.34998 16.4062C7.73738 16.0348 8.25576 15.8314 8.79236 15.8402C9.32897 15.849 9.8404 16.0693 10.2154 16.4532C10.5904 16.8371 10.7987 17.3535 10.7949 17.8902C10.7912 18.4269 10.5757 18.9403 10.1953 19.3189C9.8149 19.6975 9.30043 19.9106 8.76375 19.9119C8.73812 19.9119 8.7125 19.9113 8.6875 19.9106ZM8.01312 14.1237V14.1244C7.39445 14.273 6.82387 14.5769 6.35527 15.0073C5.88668 15.4377 5.53553 15.9805 5.335 16.5844L3.89062 9.63V9.625H4.95312L8.01312 14.1237Z" fill="#FDC75B"/>
<path d="M31.0532 22.9846L29.7212 24.0476L25.9824 17.2199C25.9096 16.9754 25.7856 16.7491 25.6187 16.5562L22.5288 10.9134C22.5214 10.8288 22.4966 10.7466 22.4558 10.6721C22.415 10.5976 22.3592 10.5324 22.2918 10.4807L21.5155 9.06244H25.525C25.6285 9.06247 25.7304 9.03679 25.8215 8.9877C25.9127 8.93861 25.9902 8.86765 26.0471 8.78119L27.6146 6.39869C27.7057 6.26021 27.7381 6.0912 27.7046 5.92886C27.6711 5.76652 27.5745 5.62414 27.436 5.53303C27.2975 5.44193 27.1285 5.40957 26.9662 5.44308C26.8038 5.47658 26.6614 5.57321 26.5703 5.71169L25.1881 7.81244H20.4606C20.3521 7.81247 20.2455 7.84073 20.1513 7.89445C20.057 7.94817 19.9784 8.0255 19.9231 8.11882C19.8678 8.21215 19.8377 8.31826 19.8358 8.42673C19.834 8.53519 19.8604 8.64227 19.9125 8.73744L21.088 10.8843L17.0005 14.7218L8.98565 13.4051C8.95215 13.3996 8.91827 13.3968 8.88434 13.3968C8.68934 13.397 8.49458 13.4101 8.30134 13.4362L6.13409 10.2499H7.49996C7.66572 10.2499 7.82469 10.1841 7.9419 10.0669C8.05911 9.94967 8.12496 9.7907 8.12496 9.62494C8.12496 9.45918 8.05911 9.30021 7.9419 9.183C7.82469 9.06579 7.66572 8.99994 7.49996 8.99994H5.0784C4.98853 8.97985 4.89533 8.97985 4.80546 8.99994H2.43746C2.2717 8.99994 2.11273 9.06579 1.99552 9.183C1.87831 9.30021 1.81246 9.45918 1.81246 9.62494C1.81246 9.7907 1.87831 9.94967 1.99552 10.0669C2.11273 10.1841 2.2717 10.2499 2.43746 10.2499H3.38121L4.69034 16.5539C4.49827 17.2252 4.46932 17.9328 4.6059 18.6176L2.48627 24.7404L1.16702 25.7933C1.10244 25.8443 1.04857 25.9076 1.00852 25.9795C0.968472 26.0514 0.943024 26.1306 0.93364 26.2123C0.924255 26.2941 0.93112 26.377 0.953839 26.4561C0.976559 26.5352 1.01469 26.6091 1.06603 26.6734C1.11737 26.7378 1.18092 26.7913 1.25303 26.831C1.32513 26.8708 1.40438 26.8958 1.4862 26.9048C1.56803 26.9138 1.65083 26.9066 1.72985 26.8835C1.80886 26.8604 1.88254 26.822 1.94665 26.7703L3.30346 25.6874H27.6666L26.7041 26.4558C26.6395 26.5068 26.5856 26.5701 26.5456 26.642C26.5055 26.7139 26.4801 26.7931 26.4707 26.8748C26.4613 26.9566 26.4682 27.0395 26.4909 27.1186C26.5136 27.1977 26.5517 27.2716 26.6031 27.3359C26.6544 27.4003 26.718 27.4538 26.7901 27.4935C26.8622 27.5333 26.9414 27.5583 27.0233 27.5673C27.1051 27.5763 27.1879 27.5691 27.2669 27.546C27.3459 27.5229 27.4196 27.4845 27.4837 27.4328L29.6875 25.6739C29.7733 25.6568 29.8546 25.6219 29.9261 25.5714C29.9976 25.5208 30.0576 25.4558 30.1023 25.3806C30.1142 25.3601 30.1249 25.3389 30.1344 25.3172L31.833 23.9616C31.9625 23.8582 32.0457 23.7075 32.0642 23.5428C32.0827 23.3781 32.035 23.2127 31.9316 23.0832C31.8282 22.9536 31.6776 22.8705 31.5128 22.852C31.3481 22.8335 31.1828 22.8812 31.0532 22.9846ZM21.7081 12.0168L23.8015 15.8398L18.5546 14.9773L21.7081 12.0168ZM24.4062 17.2062C24.4788 17.2276 24.5467 17.2627 24.6062 17.3094L24.8055 17.6733C24.8344 17.8966 24.7535 18.2083 24.4065 18.3143L9.31246 20.7944V20.4795C9.94763 20.3447 10.5113 19.9816 10.8968 19.4591C11.2824 18.9366 11.4629 18.2909 11.4044 17.6442C11.3459 16.9975 11.0523 16.3948 10.5792 15.95C10.1061 15.5052 9.48639 15.2493 8.83733 15.2307C8.18826 15.2121 7.55491 15.4321 7.05714 15.8491C6.55938 16.266 6.23176 16.851 6.13629 17.4933C6.04082 18.1356 6.18413 18.7906 6.5391 19.3343C6.89407 19.878 7.43605 20.2727 8.06246 20.4437V20.7614C7.40363 20.5827 6.82208 20.1918 6.40787 19.6492C5.99366 19.1066 5.76989 18.4426 5.77121 17.7599C5.77069 16.9426 6.09187 16.1579 6.66532 15.5754C7.23876 14.993 8.01839 14.6596 8.83565 14.6474L24.4062 17.2062ZM8.68746 17.1249C8.5217 17.1249 8.36273 17.1908 8.24552 17.308C8.12831 17.4252 8.06246 17.5842 8.06246 17.7499V19.1017C7.78673 18.944 7.5724 18.6978 7.45425 18.4029C7.33611 18.1081 7.3211 17.782 7.41165 17.4776C7.50221 17.1731 7.69301 16.9082 7.95309 16.7259C8.21317 16.5436 8.52724 16.4545 8.84432 16.4731C9.16139 16.4918 9.46285 16.6171 9.69974 16.8287C9.93664 17.0403 10.0951 17.3257 10.1493 17.6387C10.2035 17.9516 10.1503 18.2737 9.99843 18.5527C9.84652 18.8316 9.60478 19.051 9.31246 19.1753V17.7499C9.31246 17.5842 9.24661 17.4252 9.1294 17.308C9.01219 17.1908 8.85322 17.1249 8.68746 17.1249ZM5.61765 14.8719L4.67321 10.3249L7.04127 13.8062C6.49925 14.061 6.01485 14.4237 5.61765 14.8719ZM6.39465 22.4207C6.29124 22.2912 6.14061 22.208 5.9759 22.1895C5.81119 22.171 5.64588 22.2187 5.51634 22.3221L4.31409 23.2816L5.34284 20.31C5.55932 20.6096 5.81274 20.8807 6.09709 21.1168C6.6624 21.5887 7.33893 21.9083 8.06246 22.0452V22.3124H7.18746C7.0217 22.3124 6.86273 22.3783 6.74552 22.4955C6.62831 22.6127 6.56246 22.7717 6.56246 22.9374C6.56246 23.1032 6.62831 23.2622 6.74552 23.3794C6.86273 23.4966 7.0217 23.5624 7.18746 23.5624H10.4375C10.6032 23.5624 10.7622 23.4966 10.8794 23.3794C10.9966 23.2622 11.0625 23.1032 11.0625 22.9374C11.0625 22.7717 10.9966 22.6127 10.8794 22.4955C10.7622 22.3783 10.6032 22.3124 10.4375 22.3124H9.31246V22.0611L24.6437 19.5416C24.6638 19.5383 24.6838 19.5341 24.7035 19.5288C25.0263 19.446 25.3198 19.2756 25.5518 19.0364L28.5094 24.4374H4.86971L6.29609 23.2991C6.36023 23.2479 6.41367 23.1845 6.45334 23.1127C6.493 23.0408 6.51813 22.9619 6.52729 22.8803C6.53644 22.7987 6.52944 22.7162 6.50668 22.6373C6.48392 22.5584 6.44585 22.4848 6.39465 22.4207Z" fill="black"/>
</g>
<defs>
<clipPath id="clip0_128_2337">
<rect width="32" height="32" fill="white" transform="translate(0.5 0.5)"/>
</clipPath>
</defs>
</svg>
