<svg width="33" height="33" viewBox="0 0 33 33" fill="none" xmlns="http://www.w3.org/2000/svg">
<path d="M19.75 5.5247L17 6.0247L16.775 4.7997C16.75 4.6247 16.575 4.5247 16.425 4.5497L13.65 5.0247C13.475 5.0497 13.375 5.2247 13.4 5.3747L13.45 5.6747L10.675 6.1497C10.5 6.1747 10.4 6.3497 10.425 6.4997L10.525 7.1247L7.75002 7.6247C7.57502 7.6497 7.47502 7.8247 7.50002 7.9747L11 27.9747L23.625 25.7747L20.125 5.7747C20.1 5.6247 19.925 5.4997 19.75 5.5247Z" fill="#757575"/>
<path d="M19.75 5.5247L17 6.0247L16.775 4.7997C16.75 4.6247 16.575 4.5247 16.425 4.5497L13.65 5.0247C13.475 5.0497 13.375 5.2247 13.4 5.3747L13.45 5.6747L10.675 6.1497C10.5 6.1747 10.4 6.3497 10.425 6.4997L10.525 7.1247L7.75002 7.6247C7.57502 7.6497 7.47502 7.8247 7.50002 7.9747L11 27.9747L23.625 25.7747L20.125 5.7747C20.1 5.6247 19.925 5.4997 19.75 5.5247Z" stroke="#3D3D3D" stroke-width="2" stroke-miterlimit="10"/>
<path d="M10.525 7.15039L11.125 10.5254" stroke="#3D3D3D" stroke-width="2" stroke-miterlimit="10"/>
<path d="M13.45 5.7002L13.975 8.7752" stroke="#3D3D3D" stroke-width="2" stroke-miterlimit="10"/>
<path d="M17 6.02539L17.425 8.47539" stroke="#3D3D3D" stroke-width="2" stroke-miterlimit="10"/>
<path d="M11 27.9998L12.55 27.7248C13.225 27.5998 13.675 26.9498 13.575 26.2748L12.75 21.6748C12.425 19.7998 13.675 18.0248 15.55 17.6998C17.425 17.3748 19.2 18.6248 19.525 20.4998L20.325 25.1248C20.45 25.7998 21.1 26.2498 21.775 26.1498L23.625 25.8248" stroke="#3D3D3D" stroke-width="2" stroke-miterlimit="10"/>
<path d="M10.275 15.2254C10.6755 15.2254 11 14.9008 11 14.5004C11 14.1 10.6755 13.7754 10.275 13.7754C9.87464 13.7754 9.55005 14.1 9.55005 14.5004C9.55005 14.9008 9.87464 15.2254 10.275 15.2254Z" fill="#3D3D3D"/>
<path d="M13.175 13.9754C13.5754 13.9754 13.9 13.6508 13.9 13.2504C13.9 12.85 13.5754 12.5254 13.175 12.5254C12.7745 12.5254 12.45 12.85 12.45 13.2504C12.45 13.6508 12.7745 13.9754 13.175 13.9754Z" fill="#3D3D3D"/>
<path d="M16.25 13.4246C16.6504 13.4246 16.975 13.1 16.975 12.6996C16.975 12.2992 16.6504 11.9746 16.25 11.9746C15.8496 11.9746 15.525 12.2992 15.525 12.6996C15.525 13.1 15.8496 13.4246 16.25 13.4246Z" fill="#3D3D3D"/>
<path d="M19.5499 13.6004C19.9504 13.6004 20.275 13.2758 20.275 12.8754C20.275 12.475 19.9504 12.1504 19.5499 12.1504C19.1495 12.1504 18.825 12.475 18.825 12.8754C18.825 13.2758 19.1495 13.6004 19.5499 13.6004Z" fill="#3D3D3D"/>
<path d="M25.25 8.25H22.5V7.075C22.5 6.9 22.3 6.75 22.125 6.75H19.3C19.125 6.75 19 6.9 19 7.075V7.5H16.175C16 7.5 15.75 7.525 15.75 7.7V8.25H13.05C12.875 8.25 12.75 8.45 12.75 8.625V29H25.5V8.625C25.5 8.45 25.425 8.25 25.25 8.25Z" fill="#757575"/>
<path d="M12.75 29H14.3C15 29 15.5 28.375 15.5 27.7V23C15.5 21.1 17.075 19.5 18.975 19.5H19.025C20.9 19.5 22.5 21.1 22.5 23V27.675C22.5 28.375 23 28.975 23.675 28.975H25.5" fill="#241F1F"/>
<path d="M25.25 8.25H22.5V7.075C22.5 6.9 22.3 6.75 22.125 6.75H19.3C19.125 6.75 19 6.9 19 7.075V7.5H16.175C16 7.5 15.75 7.525 15.75 7.7V8.25H13.05C12.875 8.25 12.75 8.45 12.75 8.625V29H25.5V8.625C25.5 8.45 25.425 8.25 25.25 8.25Z" stroke="#3D3D3D" stroke-width="2" stroke-miterlimit="10"/>
<path d="M15.75 8.25V11.75" stroke="#3D3D3D" stroke-width="2" stroke-miterlimit="10"/>
<path d="M21.25 27.875C21.25 28.225 20.975 28.5 20.625 28.5H19.375C19.025 28.5 18.75 28.225 18.75 27.875V25.125C18.75 24.775 19.025 24.5 19.375 24.5H20.625C20.975 24.5 21.25 24.775 21.25 25.125V27.875Z" stroke="#3D3D3D" stroke-width="2" stroke-miterlimit="10"/>
<path d="M19 7.5V10.5" stroke="#3D3D3D" stroke-width="2" stroke-miterlimit="10"/>
<path d="M16.25 21.25H20.35C20.525 21.25 20.75 21.4 20.75 21.575V23.425C20.75 23.6 20.525 23.75 20.35 23.75H15.5" fill="#241F1F"/>
<path d="M22.5 8.25V10.75" stroke="#3D3D3D" stroke-width="2" stroke-miterlimit="10"/>
<path d="M12.75 29H14.3C15 29 15.5 28.375 15.5 27.7V23C15.5 21.1 17.075 19.5 18.975 19.5H19.025C20.9 19.5 22.5 21.1 22.5 23V27.675C22.5 28.375 23 28.975 23.675 28.975H25.5" stroke="#3D3D3D" stroke-width="2" stroke-miterlimit="10"/>
<path d="M22.5 25.25H20.5V28H22.5V25.25Z" fill="#757575"/>
<path d="M19.25 25.25H15.5V28H19.25V25.25Z" fill="#757575"/>
<path d="M22.5 25.25H20.5V28H22.5V25.25Z" stroke="#3D3D3D" stroke-width="2" stroke-miterlimit="10"/>
<path d="M19.25 25.25H15.5V28H19.25V25.25Z" stroke="#3D3D3D" stroke-width="2" stroke-miterlimit="10"/>
<path d="M18.2 28H19.25V25.25H18.2C17.425 25.25 16.75 25.85 16.75 26.625V26.6C16.75 27.375 17.425 28 18.2 28Z" stroke="#3D3D3D" stroke-width="2" stroke-miterlimit="10"/>
<path d="M18.05 26.8998C18.2157 26.8998 18.35 26.7655 18.35 26.5998C18.35 26.4341 18.2157 26.2998 18.05 26.2998C17.8843 26.2998 17.75 26.4341 17.75 26.5998C17.75 26.7655 17.8843 26.8998 18.05 26.8998Z" fill="#3D3D3D"/>
<path d="M14.35 16.2254C14.7504 16.2254 15.075 15.9008 15.075 15.5004C15.075 15.1 14.7504 14.7754 14.35 14.7754C13.9496 14.7754 13.625 15.1 13.625 15.5004C13.625 15.9008 13.9496 16.2254 14.35 16.2254Z" fill="#3D3D3D"/>
<path d="M17.4249 15.4998C17.8254 15.4998 18.15 15.1752 18.15 14.7748C18.15 14.3744 17.8254 14.0498 17.4249 14.0498C17.0245 14.0498 16.7 14.3744 16.7 14.7748C16.7 15.1752 17.0245 15.4998 17.4249 15.4998Z" fill="#3D3D3D"/>
<path d="M20.5499 15.4998C20.9504 15.4998 21.275 15.1752 21.275 14.7748C21.275 14.3744 20.9504 14.0498 20.5499 14.0498C20.1495 14.0498 19.825 14.3744 19.825 14.7748C19.825 15.1752 20.1495 15.4998 20.5499 15.4998Z" fill="#3D3D3D"/>
<path d="M23.775 16.2254C24.1755 16.2254 24.5 15.9008 24.5 15.5004C24.5 15.1 24.1755 14.7754 23.775 14.7754C23.3746 14.7754 23.05 15.1 23.05 15.5004C23.05 15.9008 23.3746 16.2254 23.775 16.2254Z" fill="#3D3D3D"/>
<path d="M16.25 21.25H20.35C20.525 21.25 20.75 21.4 20.75 21.575V23.425C20.75 23.6 20.525 23.75 20.35 23.75H15.5" stroke="#3D3D3D" stroke-width="2" stroke-miterlimit="10"/>
</svg>
