<svg width="63" height="59" viewBox="0 0 63 59" fill="none" xmlns="http://www.w3.org/2000/svg">
<rect width="63" height="59" rx="10" fill="white"/>
<path d="M34.75 18.5247L32 19.0247L31.775 17.7997C31.75 17.6247 31.575 17.5247 31.425 17.5497L28.65 18.0247C28.475 18.0497 28.375 18.2247 28.4 18.3747L28.45 18.6747L25.675 19.1497C25.5 19.1747 25.4 19.3497 25.425 19.4997L25.525 20.1247L22.75 20.6247C22.575 20.6497 22.475 20.8247 22.5 20.9747L26 40.9747L38.625 38.7747L35.125 18.7747C35.1 18.6247 34.925 18.4997 34.75 18.5247Z" fill="#757575"/>
<path d="M34.75 18.5247L32 19.0247L31.775 17.7997C31.75 17.6247 31.575 17.5247 31.425 17.5497L28.65 18.0247C28.475 18.0497 28.375 18.2247 28.4 18.3747L28.45 18.6747L25.675 19.1497C25.5 19.1747 25.4 19.3497 25.425 19.4997L25.525 20.1247L22.75 20.6247C22.575 20.6497 22.475 20.8247 22.5 20.9747L26 40.9747L38.625 38.7747L35.125 18.7747C35.1 18.6247 34.925 18.4997 34.75 18.5247Z" stroke="#3D3D3D" stroke-width="2" stroke-miterlimit="10"/>
<path d="M25.525 20.1504L26.125 23.5254" stroke="#3D3D3D" stroke-width="2" stroke-miterlimit="10"/>
<path d="M28.45 18.7002L28.975 21.7752" stroke="#3D3D3D" stroke-width="2" stroke-miterlimit="10"/>
<path d="M32 19.0254L32.425 21.4754" stroke="#3D3D3D" stroke-width="2" stroke-miterlimit="10"/>
<path d="M26 40.9998L27.55 40.7248C28.225 40.5998 28.675 39.9498 28.575 39.2748L27.75 34.6748C27.425 32.7998 28.675 31.0248 30.55 30.6998C32.425 30.3748 34.2 31.6248 34.525 33.4998L35.325 38.1248C35.45 38.7998 36.1 39.2498 36.775 39.1498L38.625 38.8248" stroke="#3D3D3D" stroke-width="2" stroke-miterlimit="10"/>
<path d="M25.275 28.2254C25.6755 28.2254 26 27.9008 26 27.5004C26 27.1 25.6755 26.7754 25.275 26.7754C24.8746 26.7754 24.55 27.1 24.55 27.5004C24.55 27.9008 24.8746 28.2254 25.275 28.2254Z" fill="#3D3D3D"/>
<path d="M28.175 26.9754C28.5754 26.9754 28.9 26.6508 28.9 26.2504C28.9 25.85 28.5754 25.5254 28.175 25.5254C27.7745 25.5254 27.45 25.85 27.45 26.2504C27.45 26.6508 27.7745 26.9754 28.175 26.9754Z" fill="#3D3D3D"/>
<path d="M31.25 26.4246C31.6504 26.4246 31.975 26.1 31.975 25.6996C31.975 25.2992 31.6504 24.9746 31.25 24.9746C30.8496 24.9746 30.525 25.2992 30.525 25.6996C30.525 26.1 30.8496 26.4246 31.25 26.4246Z" fill="#3D3D3D"/>
<path d="M34.5499 26.6004C34.9504 26.6004 35.275 26.2758 35.275 25.8754C35.275 25.475 34.9504 25.1504 34.5499 25.1504C34.1495 25.1504 33.825 25.475 33.825 25.8754C33.825 26.2758 34.1495 26.6004 34.5499 26.6004Z" fill="#3D3D3D"/>
<path d="M40.25 21.25H37.5V20.075C37.5 19.9 37.3 19.75 37.125 19.75H34.3C34.125 19.75 34 19.9 34 20.075V20.5H31.175C31 20.5 30.75 20.525 30.75 20.7V21.25H28.05C27.875 21.25 27.75 21.45 27.75 21.625V42H40.5V21.625C40.5 21.45 40.425 21.25 40.25 21.25Z" fill="#757575"/>
<path d="M27.75 42H29.3C30 42 30.5 41.375 30.5 40.7V36C30.5 34.1 32.075 32.5 33.975 32.5H34.025C35.9 32.5 37.5 34.1 37.5 36V40.675C37.5 41.375 38 41.975 38.675 41.975H40.5" fill="#241F1F"/>
<path d="M40.25 21.25H37.5V20.075C37.5 19.9 37.3 19.75 37.125 19.75H34.3C34.125 19.75 34 19.9 34 20.075V20.5H31.175C31 20.5 30.75 20.525 30.75 20.7V21.25H28.05C27.875 21.25 27.75 21.45 27.75 21.625V42H40.5V21.625C40.5 21.45 40.425 21.25 40.25 21.25Z" stroke="#3D3D3D" stroke-width="2" stroke-miterlimit="10"/>
<path d="M30.75 21.25V24.75" stroke="#3D3D3D" stroke-width="2" stroke-miterlimit="10"/>
<path d="M36.25 40.875C36.25 41.225 35.975 41.5 35.625 41.5H34.375C34.025 41.5 33.75 41.225 33.75 40.875V38.125C33.75 37.775 34.025 37.5 34.375 37.5H35.625C35.975 37.5 36.25 37.775 36.25 38.125V40.875Z" stroke="#3D3D3D" stroke-width="2" stroke-miterlimit="10"/>
<path d="M34 20.5V23.5" stroke="#3D3D3D" stroke-width="2" stroke-miterlimit="10"/>
<path d="M31.25 34.25H35.35C35.525 34.25 35.75 34.4 35.75 34.575V36.425C35.75 36.6 35.525 36.75 35.35 36.75H30.5" fill="#241F1F"/>
<path d="M37.5 21.25V23.75" stroke="#3D3D3D" stroke-width="2" stroke-miterlimit="10"/>
<path d="M27.75 42H29.3C30 42 30.5 41.375 30.5 40.7V36C30.5 34.1 32.075 32.5 33.975 32.5H34.025C35.9 32.5 37.5 34.1 37.5 36V40.675C37.5 41.375 38 41.975 38.675 41.975H40.5" stroke="#3D3D3D" stroke-width="2" stroke-miterlimit="10"/>
<path d="M37.5 38.25H35.5V41H37.5V38.25Z" fill="#757575"/>
<path d="M34.25 38.25H30.5V41H34.25V38.25Z" fill="#757575"/>
<path d="M37.5 38.25H35.5V41H37.5V38.25Z" stroke="#3D3D3D" stroke-width="2" stroke-miterlimit="10"/>
<path d="M34.25 38.25H30.5V41H34.25V38.25Z" stroke="#3D3D3D" stroke-width="2" stroke-miterlimit="10"/>
<path d="M33.2 41H34.25V38.25H33.2C32.425 38.25 31.75 38.85 31.75 39.625V39.6C31.75 40.375 32.425 41 33.2 41Z" stroke="#3D3D3D" stroke-width="2" stroke-miterlimit="10"/>
<path d="M33.05 39.8998C33.2157 39.8998 33.35 39.7655 33.35 39.5998C33.35 39.4341 33.2157 39.2998 33.05 39.2998C32.8843 39.2998 32.75 39.4341 32.75 39.5998C32.75 39.7655 32.8843 39.8998 33.05 39.8998Z" fill="#3D3D3D"/>
<path d="M29.35 29.2254C29.7504 29.2254 30.075 28.9008 30.075 28.5004C30.075 28.1 29.7504 27.7754 29.35 27.7754C28.9496 27.7754 28.625 28.1 28.625 28.5004C28.625 28.9008 28.9496 29.2254 29.35 29.2254Z" fill="#3D3D3D"/>
<path d="M32.4249 28.4998C32.8254 28.4998 33.15 28.1752 33.15 27.7748C33.15 27.3744 32.8254 27.0498 32.4249 27.0498C32.0245 27.0498 31.7 27.3744 31.7 27.7748C31.7 28.1752 32.0245 28.4998 32.4249 28.4998Z" fill="#3D3D3D"/>
<path d="M35.5499 28.4998C35.9504 28.4998 36.275 28.1752 36.275 27.7748C36.275 27.3744 35.9504 27.0498 35.5499 27.0498C35.1495 27.0498 34.825 27.3744 34.825 27.7748C34.825 28.1752 35.1495 28.4998 35.5499 28.4998Z" fill="#3D3D3D"/>
<path d="M38.775 29.2254C39.1755 29.2254 39.5 28.9008 39.5 28.5004C39.5 28.1 39.1755 27.7754 38.775 27.7754C38.3746 27.7754 38.05 28.1 38.05 28.5004C38.05 28.9008 38.3746 29.2254 38.775 29.2254Z" fill="#3D3D3D"/>
<path d="M31.25 34.25H35.35C35.525 34.25 35.75 34.4 35.75 34.575V36.425C35.75 36.6 35.525 36.75 35.35 36.75H30.5" stroke="#3D3D3D" stroke-width="2" stroke-miterlimit="10"/>
</svg>
