<svg width="63" height="59" viewBox="0 0 63 59" fill="none" xmlns="http://www.w3.org/2000/svg">
<rect width="63" height="59" rx="10" fill="white"/>
<path d="M46.2953 35.7886L37.28 17.4692C37.0949 17.0931 36.7964 16.7847 36.4266 16.5873C36.0568 16.3899 35.6344 16.3137 35.219 16.3692L26.889 17.5042C26.7771 17.5195 26.6737 17.5721 26.5955 17.6536C26.5174 17.7351 26.4691 17.8406 26.4586 17.953C26.4481 18.0654 26.4759 18.1781 26.5375 18.2727C26.5992 18.3672 26.691 18.4382 26.7981 18.4739L34.776 21.1347C34.9747 21.2001 35.1475 21.3268 35.2698 21.4966C35.392 21.6663 35.4573 21.8705 35.4564 22.0797V42.4797C35.4436 42.5697 35.4557 42.6615 35.4913 42.7451C35.5268 42.8288 35.5845 42.9012 35.6581 42.9545C35.7317 43.0079 35.8185 43.0401 35.9091 43.0478C35.9997 43.0555 36.0906 43.0384 36.1722 42.9982L45.3822 38.4685C45.8581 38.2336 46.2215 37.8196 46.3927 37.3173C46.5638 36.8149 46.5288 36.2652 46.2953 35.7886Z" fill="#318FB5"/>
<path d="M35.0896 20.1856L27.1146 17.5256C27.0119 17.4915 26.9009 17.4915 26.7982 17.5256L18.826 20.1848C18.4267 20.3153 18.0791 20.5691 17.833 20.9095C17.5869 21.25 17.455 21.6597 17.4563 22.0798V42.4998C17.4569 43.03 17.6678 43.5384 18.0427 43.9133C18.4177 44.2883 18.926 44.4992 19.4563 44.4998H34.4563C34.9695 44.5038 35.4642 44.3084 35.8361 43.9547C36.208 43.6011 36.4281 43.1169 36.45 42.6041C36.4546 42.5695 36.4568 42.5347 36.4563 42.4998V22.0798C36.4577 21.6602 36.3263 21.2509 36.0807 20.9106C35.8352 20.5703 35.4883 20.3165 35.0896 20.1856Z" fill="#B0CAC7"/>
<path d="M23.8432 33.2727C24.3948 33.2722 24.9292 33.0804 25.3552 32.7301C25.7813 32.3798 26.0727 31.8926 26.1799 31.3516C26.2871 30.8105 26.2033 30.249 25.943 29.7627C25.6826 29.2765 25.2617 28.8955 24.7519 28.6848C24.2422 28.4741 23.6752 28.4466 23.1474 28.607C22.6197 28.7674 22.1639 29.1059 21.8577 29.5646C21.5515 30.0234 21.4138 30.5742 21.4681 31.1231C21.5224 31.672 21.7654 32.1851 22.1555 32.575C22.377 32.7967 22.6402 32.9725 22.9298 33.0922C23.2194 33.2119 23.5298 33.2733 23.8432 33.2727ZM31.7573 35.4254C31.3669 35.0348 30.853 34.7917 30.3034 34.7375C29.7538 34.6834 29.2024 34.8214 28.7431 35.1282C28.2839 35.435 27.9453 35.8916 27.7849 36.4201C27.6246 36.9486 27.6524 37.5163 27.8638 38.0266C28.0751 38.5368 28.4569 38.958 28.9439 39.2184C29.431 39.4787 29.9933 39.5621 30.535 39.4543C31.0767 39.3466 31.5642 39.0543 31.9145 38.6274C32.2649 38.2004 32.4563 37.6652 32.4563 37.1129C32.456 36.48 32.2046 35.8731 31.7573 35.4254ZM31.7573 29.1995C31.6636 29.1057 31.5364 29.053 31.4038 29.053C31.2712 29.053 31.1441 29.1057 31.0503 29.1995L22.1555 38.094C22.1078 38.1401 22.0697 38.1953 22.0435 38.2563C22.0173 38.3173 22.0035 38.3829 22.0029 38.4493C22.0023 38.5157 22.015 38.5815 22.0401 38.643C22.0653 38.7044 22.1024 38.7603 22.1493 38.8072C22.1963 38.8541 22.2521 38.8913 22.3136 38.9164C22.375 38.9416 22.4409 38.9542 22.5072 38.9536C22.5736 38.9531 22.6392 38.9393 22.7002 38.9131C22.7612 38.8869 22.8164 38.8488 22.8625 38.801L31.7575 29.9065C31.8513 29.8127 31.9039 29.6855 31.9039 29.5529C31.9038 29.4203 31.8511 29.2932 31.7573 29.1995Z" fill="#F7D6BF"/>
<path d="M26.9565 25C28.0611 25 28.9565 24.1046 28.9565 23C28.9565 21.8954 28.0611 21 26.9565 21C25.852 21 24.9565 21.8954 24.9565 23C24.9565 24.1046 25.852 25 26.9565 25Z" fill="#F7D6BF"/>
<path d="M46.295 35.7892L37.2797 17.4698C37.0947 17.0937 36.7962 16.7852 36.4264 16.5879C36.0566 16.3905 35.6342 16.3142 35.2187 16.3698L26.8887 17.5048C26.873 17.507 26.86 17.5152 26.8448 17.5187C26.8296 17.5223 26.8131 17.5213 26.7979 17.5263L22.6765 18.9007L17.3125 14.6095C17.2612 14.5685 17.2023 14.538 17.1392 14.5197C17.0761 14.5015 17.0101 14.4958 16.9448 14.5031C16.813 14.5178 16.6924 14.5842 16.6096 14.6878C16.5268 14.7914 16.4885 14.9237 16.5032 15.0555C16.5179 15.1873 16.5844 15.3079 16.688 15.3907L21.5465 19.2776L18.8256 20.1852C18.4264 20.3158 18.0787 20.5695 17.8327 20.91C17.5866 21.2504 17.4547 21.6601 17.456 22.0802V42.5002C17.4566 43.0304 17.6675 43.5388 18.0424 43.9138C18.4174 44.2887 18.9257 44.4996 19.456 44.5002H34.456C34.92 44.5029 35.3701 44.3422 35.7274 44.0462C36.0847 43.7503 36.3264 43.3379 36.41 42.8815L45.3819 38.4688C45.8578 38.234 46.2211 37.8201 46.3923 37.3177C46.5635 36.8154 46.5285 36.2657 46.295 35.7892ZM35.456 42.4802C35.4534 42.4993 35.4518 42.5185 35.4514 42.5378C35.4452 42.7968 35.3373 43.043 35.1511 43.2231C34.9648 43.4032 34.7151 43.5027 34.456 43.5002H19.456C19.1909 43.4999 18.9367 43.3944 18.7492 43.2069C18.5618 43.0195 18.4563 42.7653 18.456 42.5002V22.0802C18.4552 21.8705 18.521 21.666 18.6438 21.496C18.7665 21.3261 18.9401 21.1995 19.1394 21.1344L22.4762 20.0213L25.148 22.1587C25.0228 22.4217 24.9573 22.709 24.956 23.0002C24.9525 23.4538 25.102 23.8953 25.3805 24.2534C25.6589 24.6115 26.05 24.8652 26.4905 24.9735C26.931 25.0818 27.3952 25.0384 27.8079 24.8502C28.2207 24.6621 28.5579 24.3402 28.7651 23.9367C28.9723 23.5331 29.0373 23.0715 28.9497 22.6265C28.862 22.1814 28.6268 21.7789 28.2821 21.484C27.9374 21.1892 27.5033 21.0192 27.05 21.0016C26.5968 20.984 26.1508 21.1198 25.7843 21.387L23.6061 19.6445L26.9561 18.5271L34.7756 21.1352C34.9743 21.2006 35.1472 21.3273 35.2694 21.497C35.3917 21.6668 35.457 21.871 35.456 22.0802V42.4802ZM27.3125 22.6095L26.6262 22.0605C26.7319 22.0217 26.8434 22.0013 26.956 22.0002C27.1647 21.9978 27.369 22.0601 27.5409 22.1785C27.7128 22.2969 27.8439 22.4656 27.9161 22.6614C27.9884 22.8572 27.9983 23.0706 27.9444 23.2723C27.8906 23.4739 27.7757 23.654 27.6155 23.7878C27.4553 23.9216 27.2576 24.0025 27.0495 24.0195C26.8415 24.0364 26.6333 23.9886 26.4535 23.8826C26.2738 23.7766 26.1312 23.6175 26.0454 23.4272C25.9596 23.237 25.9347 23.0248 25.9743 22.8199L26.688 23.3908C26.7916 23.4736 26.9238 23.5119 27.0556 23.4972C27.1874 23.4825 27.308 23.416 27.3908 23.3124C27.4737 23.2088 27.5119 23.0766 27.4972 22.9448C27.4825 22.813 27.4161 22.6923 27.3125 22.6095ZM44.9409 37.5714L36.456 41.7442V22.0802C36.4574 21.6606 36.3259 21.2513 36.0804 20.9111C35.8349 20.5708 35.488 20.317 35.0893 20.1861L29.1521 18.2057L35.3521 17.3609C35.5597 17.3331 35.7709 17.3713 35.9557 17.47C36.1405 17.5687 36.2896 17.7229 36.3821 17.9109L45.3971 36.2298C45.514 36.4682 45.5317 36.7434 45.4462 36.9948C45.3607 37.2463 45.179 37.4536 44.9409 37.5714Z" fill="#096293"/>
<path d="M23.843 33.2727C24.3945 33.2721 24.9288 33.0803 25.3549 32.73C25.7809 32.3797 26.0723 31.8925 26.1794 31.3514C26.2866 30.8104 26.2028 30.2489 25.9424 29.7627C25.682 29.2764 25.2611 28.8955 24.7514 28.6848C24.2417 28.4741 23.6746 28.4466 23.1469 28.607C22.6192 28.7674 22.1634 29.1059 21.8572 29.5646C21.551 30.0234 21.4133 30.5741 21.4676 31.123C21.5219 31.6719 21.7649 32.185 22.155 32.5749C22.3765 32.7967 22.6397 32.9725 22.9294 33.0922C23.219 33.212 23.5295 33.2733 23.843 33.2727ZM22.8623 29.9065C23.0892 29.6794 23.3878 29.538 23.7072 29.5064C24.0267 29.4748 24.3472 29.555 24.6142 29.7333C24.8812 29.9115 25.0781 30.1768 25.1714 30.484C25.2647 30.7912 25.2486 31.1212 25.1258 31.4178C25.003 31.7144 24.7812 31.9593 24.4981 32.1107C24.2151 32.2621 23.8882 32.3106 23.5734 32.2481C23.2585 32.1855 22.9751 32.0157 22.7714 31.7676C22.5677 31.5195 22.4563 31.2084 22.4563 30.8874C22.4559 30.7052 22.4916 30.5247 22.5613 30.3564C22.6309 30.188 22.7332 30.0351 22.8623 29.9065ZM28.3816 35.4253C28.0478 35.7591 27.8205 36.1844 27.7284 36.6474C27.6363 37.1103 27.6836 37.5902 27.8642 38.0263C28.0449 38.4625 28.3508 38.8352 28.7433 39.0975C29.1358 39.3597 29.5972 39.4997 30.0693 39.4997C30.5413 39.4997 31.0028 39.3597 31.3953 39.0975C31.7878 38.8352 32.0937 38.4625 32.2743 38.0263C32.455 37.5902 32.5023 37.1103 32.4102 36.6474C32.3181 36.1844 32.0908 35.7591 31.757 35.4253C31.5365 35.2017 31.2737 35.0241 30.984 34.903C30.6943 34.7818 30.3833 34.7194 30.0693 34.7194C29.7552 34.7194 29.4443 34.7818 29.1546 34.903C28.8648 35.0241 28.6021 35.2017 28.3816 35.4253ZM31.05 38.094C30.8231 38.321 30.5245 38.4624 30.205 38.494C29.8856 38.5256 29.5651 38.4454 29.2981 38.2671C29.0311 38.0889 28.8343 37.8236 28.741 37.5164C28.6477 37.2093 28.6638 36.8793 28.7866 36.5827C28.9093 36.2861 29.1311 36.0412 29.4142 35.8898C29.6973 35.7384 30.0241 35.6898 30.3389 35.7524C30.6538 35.815 30.9372 35.9847 31.1409 36.2328C31.3446 36.4809 31.4559 36.792 31.456 37.113C31.4559 37.4808 31.3099 37.8336 31.05 38.094ZM31.757 29.1995C31.7106 29.153 31.6555 29.1162 31.5948 29.091C31.5342 29.0659 31.4692 29.0529 31.4035 29.0529C31.3378 29.0529 31.2728 29.0659 31.2122 29.091C31.1515 29.1162 31.0964 29.153 31.05 29.1995L22.155 38.094C22.1076 38.1402 22.0699 38.1953 22.044 38.2562C22.018 38.3171 22.0045 38.3826 22.0041 38.4488C22.0036 38.515 22.0164 38.5806 22.0415 38.6418C22.0666 38.7031 22.1037 38.7587 22.1505 38.8055C22.1973 38.8523 22.2529 38.8894 22.3142 38.9145C22.3754 38.9396 22.441 38.9524 22.5072 38.952C22.5734 38.9515 22.6389 38.938 22.6998 38.9121C22.7607 38.8862 22.8158 38.8484 22.8621 38.801L31.7571 29.9065C31.8035 29.86 31.8403 29.8049 31.8655 29.7443C31.8906 29.6836 31.9036 29.6186 31.9036 29.5529C31.9035 29.4873 31.8906 29.4223 31.8655 29.3616C31.8403 29.301 31.8035 29.2459 31.757 29.1995Z" fill="#096293"/>
</svg>
