<svg width="24" height="24" viewBox="0 0 24 24" fill="none" xmlns="http://www.w3.org/2000/svg">
<path d="M20.9701 1H18.0301C17.1601 1 16.5201 1.36 16.2301 2C16.0701 2.29 16.0001 2.63 16.0001 3.03V5.97C16.0001 7.24 16.7601 8 18.0301 8H20.9701C21.3701 8 21.7101 7.93 22.0001 7.77C22.6401 7.48 23.0001 6.84 23.0001 5.97V3.03C23.0001 1.76 22.2401 1 20.9701 1ZM21.9101 4.93C21.8101 5.03 21.6601 5.1 21.5001 5.11H20.0901V5.62L20.1001 6.5C20.0901 6.67 20.0301 6.81 19.9101 6.93C19.8101 7.03 19.6601 7.1 19.5001 7.1C19.1701 7.1 18.9001 6.83 18.9001 6.5V5.1L17.5001 5.11C17.3401 5.10738 17.1875 5.04195 17.0752 4.92784C16.963 4.81372 16.9001 4.66006 16.9001 4.5C16.9001 4.17 17.1701 3.9 17.5001 3.9L18.3801 3.91H18.9001V2.51C18.9001 2.18 19.1701 1.9 19.5001 1.9C19.8301 1.9 20.1001 2.18 20.1001 2.51L20.0901 3.22V3.9H21.5001C21.8301 3.9 22.1001 4.17 22.1001 4.5C22.0899 4.66136 22.0225 4.81381 21.9101 4.93ZM9.00109 10.381C9.63231 10.381 10.2377 10.1303 10.684 9.68391C11.1303 9.23758 11.3811 8.63222 11.3811 8.001C11.3811 7.36979 11.1303 6.76442 10.684 6.31809C10.2377 5.87175 9.63231 5.621 9.00109 5.621C8.36988 5.621 7.76452 5.87175 7.31818 6.31809C6.87184 6.76442 6.62109 7.36979 6.62109 8.001C6.62109 8.63222 6.87184 9.23758 7.31818 9.68391C7.76452 10.1303 8.36988 10.381 9.00109 10.381Z" fill="white"/>
<path d="M20.97 8H20.5V12.61L20.37 12.5C19.59 11.83 18.33 11.83 17.55 12.5L13.39 16.07C12.61 16.74 11.35 16.74 10.57 16.07L10.23 15.79C9.52 15.17 8.39 15.11 7.59 15.65L3.85 18.16C3.63 17.6 3.5 16.95 3.5 16.19V7.81C3.5 4.99 4.99 3.5 7.81 3.5H16V3.03C16 2.63 16.07 2.29 16.23 2H7.81C4.17 2 2 4.17 2 7.81V16.19C2 17.28 2.19 18.23 2.56 19.03C3.42 20.93 5.26 22 7.81 22H16.19C19.83 22 22 19.83 22 16.19V7.77C21.71 7.93 21.37 8 20.97 8Z" fill="white"/>
</svg>
