<svg width="33" height="33" viewBox="0 0 33 33" fill="none" xmlns="http://www.w3.org/2000/svg">
<path d="M27.3958 22.3456C21.4161 25.8206 11.6956 25.8206 5.67674 22.3456C2.64986 20.598 1.13722 18.303 1.14368 16.0112L1.14004 16.8995C1.13351 19.1913 2.64615 21.4862 5.67303 23.2338C11.6918 26.7088 21.4124 26.7088 27.3921 23.2338C30.3629 21.5072 31.8499 19.2488 31.8563 16.9872L31.86 16.099C31.8536 18.3609 30.3665 20.6193 27.3958 22.3456Z" fill="#B0AFB0"/>
<path d="M27.3251 9.76472C33.344 13.2397 33.3756 18.8702 27.3958 22.3453C21.416 25.8203 11.6956 25.8204 5.6767 22.3454C-0.337057 18.8733 -0.373793 13.2399 5.60598 9.76492C11.5858 6.28991 21.3113 6.29266 27.3251 9.76472Z" fill="#E8E8E8"/>
<path d="M24.1342 11.6193C28.3786 14.0698 28.4009 18.0403 24.184 20.4908C19.9672 22.9414 13.1125 22.9414 8.86812 20.4909C4.62729 18.0425 4.60144 14.07 8.81827 11.6194C13.0351 9.16883 19.8933 9.17088 24.1342 11.6193Z" fill="#D7D7D7"/>
<path d="M8.81829 12.3987C13.0351 9.94811 19.8934 9.95015 24.1342 12.3984C26.0962 13.5313 27.1442 14.989 27.3001 16.4711C27.4892 14.73 26.44 12.9505 24.1342 11.6191C19.8934 9.17089 13.0351 9.16884 8.81829 11.6195C6.55134 12.9366 5.52248 14.6938 5.70354 16.4176C5.86251 14.9541 6.89285 13.5174 8.81829 12.3987Z" fill="#B0AFB0"/>
<path d="M22.6829 12.1992L22.8337 13.26C22.8924 13.6786 22.6818 14.1334 22.1807 14.5325C21.1795 15.3383 19.3884 15.6058 18.188 15.1289C17.5841 14.8911 17.2412 14.5112 17.1782 14.0895L17.0273 13.0287C17.0903 13.4503 17.4337 13.8339 18.0376 14.0717C19.2375 14.5448 21.0286 14.2773 22.0341 13.4748C22.5316 13.0762 22.7416 12.6175 22.6829 12.1992Z" fill="#589441"/>
<path d="M21.6719 11.1618C22.8726 11.6349 23.0334 12.6712 22.0283 13.4752C21.0254 14.2775 19.2348 14.5449 18.034 14.0718C16.8306 13.5977 16.6699 12.5614 17.6728 11.7591C18.6779 10.9551 20.4685 10.6877 21.6719 11.1618Z" fill="#73AE43"/>
<path d="M20.0773 14.0651C19.3547 14.173 18.6535 14.1131 18.1033 13.8962C17.5843 13.6917 17.2677 13.3753 17.2121 13.0054C17.1567 12.6394 17.3621 12.249 17.7904 11.9064C18.251 11.538 18.9029 11.2756 19.6258 11.1676C20.3488 11.0596 21.0507 11.1198 21.6025 11.3372C22.1199 11.541 22.4356 11.8566 22.4911 12.2258C22.5467 12.5926 22.3402 12.984 21.9106 13.3277C21.4511 13.6953 20.7999 13.9572 20.0773 14.0651Z" fill="#80BC41"/>
<g opacity="0.2">
<path d="M19.8971 12.9077C19.9298 12.9268 20.5517 13.2887 20.5788 13.4632C20.6059 13.6376 20.368 13.8173 20.0459 13.8653C19.8849 13.8894 19.7341 13.8759 19.62 13.8346C19.5059 13.7933 19.4287 13.7243 19.415 13.637C19.388 13.4626 19.8717 12.9355 19.8971 12.9077Z" fill="white"/>
<path d="M21.3534 11.4737C21.5995 11.5628 21.6306 11.7631 21.4228 11.9199C21.2151 12.0767 20.2594 12.3244 20.2091 12.3375C20.2147 12.3082 20.3204 11.7529 20.5281 11.5961C20.7358 11.4392 21.1054 11.384 21.3534 11.4737ZM21.5623 12.8048C21.8083 12.8938 21.8395 13.0941 21.63 13.2522C21.4223 13.409 21.0526 13.4642 20.8067 13.3751C20.5587 13.2854 20.2893 12.7879 20.275 12.7617C20.327 12.7594 21.3143 12.7151 21.5623 12.8048ZM19.492 12.8787C19.4864 12.9079 19.3805 13.4615 19.171 13.6195C18.9632 13.7764 18.5936 13.8316 18.3477 13.7425C18.0997 13.6528 18.0685 13.4525 18.2763 13.2957C18.4857 13.1376 19.4417 12.8917 19.492 12.8787Z" fill="white"/>
<path d="M19.2979 12.6908C19.2572 12.713 18.4834 13.1351 18.1613 13.1831C18.0003 13.2072 17.8489 13.1935 17.7344 13.152C17.6198 13.1105 17.542 13.0413 17.5285 12.9541C17.5013 12.7796 17.7393 12.6 18.0613 12.5519C18.3834 12.5038 19.2523 12.6814 19.2979 12.6908ZM18.8961 11.8399C19.1421 11.9289 19.4118 12.4283 19.426 12.4546C19.374 12.4569 18.3865 12.4993 18.1404 12.4103C17.8944 12.3212 17.8633 12.1209 18.0711 11.9642C18.2805 11.8061 18.6501 11.7509 18.8961 11.8399ZM20.0817 11.3803C20.1963 11.4218 20.2739 11.4911 20.2875 11.5783C20.3146 11.7528 19.8294 12.2811 19.8039 12.3089C19.771 12.2898 19.1474 11.9271 19.1202 11.7527C19.0931 11.5782 19.3326 11.3974 19.6546 11.3493C19.8157 11.3252 19.9671 11.3388 20.0817 11.3803ZM21.9673 12.0628C22.0814 12.1041 22.1586 12.1732 22.1721 12.2605C22.1993 12.435 21.9598 12.6158 21.6377 12.6639C21.3157 12.712 20.4487 12.5351 20.403 12.5258C20.4439 12.5035 21.2193 12.0803 21.5413 12.0322C21.7023 12.0081 21.8533 12.0215 21.9673 12.0628Z" fill="white"/>
</g>
<path d="M20.1146 11.1846L20.2654 12.2454C20.3241 12.6639 20.1135 13.1187 19.6124 13.5179C18.6112 14.3236 16.8201 14.5912 15.6196 14.1142C15.0157 13.8764 14.6729 13.4966 14.6098 13.0748L14.459 12.014C14.522 12.4356 14.8654 12.8193 15.4693 13.0571C16.6692 13.5302 18.4603 13.2626 19.4658 12.4602C19.9633 12.0616 20.1733 11.6029 20.1146 11.1846Z" fill="#53893E"/>
<path d="M19.1036 10.1471C20.3044 10.6203 20.4652 11.6566 19.46 12.4606C18.4572 13.2628 16.6666 13.5303 15.4658 13.0572C14.2624 12.583 14.1017 11.5467 15.1046 10.7445C16.1097 9.94046 17.9002 9.67301 19.1036 10.1471Z" fill="#73AE43"/>
<path d="M17.509 13.0505C16.7864 13.1584 16.0853 13.0985 15.535 12.8816C15.0161 12.6771 14.6995 12.3607 14.6439 11.9908C14.5885 11.6248 14.7939 11.2344 15.2222 10.8918C15.6827 10.5234 16.3346 10.261 17.0576 10.153C17.7805 10.0449 18.4825 10.1052 19.0343 10.3226C19.5517 10.5264 19.8674 10.842 19.9229 11.2112C19.9784 11.5779 19.772 11.9694 19.3424 12.3131C18.8829 12.6807 18.2317 12.9425 17.509 13.0505Z" fill="#80BC41"/>
<g opacity="0.2">
<path d="M17.3288 11.8931C17.3615 11.9121 17.9834 12.2741 18.0106 12.4485C18.0377 12.623 17.7998 12.8026 17.4777 12.8507C17.3167 12.8748 17.1658 12.8613 17.0517 12.82C16.9377 12.7787 16.8604 12.7096 16.8468 12.6223C16.8198 12.4479 17.3034 11.9208 17.3288 11.8931Z" fill="white"/>
<path d="M18.7852 10.4591C19.0312 10.5481 19.0623 10.7484 18.8545 10.9052C18.6468 11.062 17.6912 11.3098 17.6409 11.3228C17.6465 11.2936 17.7521 10.7382 17.9599 10.5814C18.1676 10.4245 18.5372 10.3693 18.7852 10.4591ZM18.994 11.7902C19.2401 11.8792 19.2712 12.0795 19.0617 12.2375C18.854 12.3943 18.4843 12.4496 18.2384 12.3605C17.9904 12.2707 17.7209 11.7733 17.7067 11.7471C17.7588 11.7448 18.7461 11.7004 18.994 11.7902ZM16.9238 11.8641C16.9182 11.8932 16.8121 12.4468 16.6027 12.6049C16.3949 12.7618 16.0254 12.8169 15.7794 12.7278C15.5314 12.6381 15.5003 12.4378 15.7081 12.281C15.9174 12.1229 16.8734 11.877 16.9238 11.8641Z" fill="white"/>
<path d="M16.7297 11.6761C16.689 11.6983 15.9151 12.1204 15.5931 12.1685C15.432 12.1925 15.2807 12.1788 15.1661 12.1374C15.0516 12.0959 14.9738 12.0266 14.9602 11.9394C14.9331 11.765 15.1711 11.5853 15.4931 11.5372C15.8151 11.4892 16.684 11.6668 16.7297 11.6761ZM16.3278 10.8252C16.5738 10.9143 16.8435 11.4137 16.8577 11.44C16.8057 11.4422 15.8182 11.4846 15.5721 11.3956C15.3261 11.3066 15.295 11.1063 15.5028 10.9495C15.7122 10.7914 16.0818 10.7362 16.3278 10.8252ZM17.5135 10.3657C17.628 10.4071 17.7056 10.4764 17.7192 10.5637C17.7463 10.7381 17.2612 11.2665 17.2356 11.2942C17.2028 11.2752 16.5791 10.9125 16.552 10.738C16.5248 10.5635 16.7644 10.3827 17.0864 10.3346C17.2474 10.3106 17.3989 10.3242 17.5135 10.3657ZM19.3991 11.0482C19.5131 11.0894 19.5903 11.1586 19.6039 11.2458C19.631 11.4203 19.3915 11.6011 19.0695 11.6492C18.7475 11.6974 17.8804 11.5205 17.8348 11.5111C17.8756 11.4889 18.6511 11.0656 18.973 11.0176C19.1341 10.9934 19.285 11.0069 19.3991 11.0482Z" fill="white"/>
</g>
<path d="M16.8336 10.5337L17.0817 11.5761C17.1788 11.9874 17.0111 12.4597 16.549 12.9034C15.6265 13.7981 13.8676 14.2299 12.6283 13.8658C12.005 13.6847 11.6286 13.3382 11.5269 12.924L11.2788 11.8816C11.3804 12.2956 11.7578 12.6459 12.3811 12.8269C13.6195 13.1873 15.3783 12.7556 16.3054 11.8637C16.7639 11.4209 16.9306 10.9448 16.8336 10.5337Z" fill="#589441"/>
<path d="M15.731 9.59385C16.9704 9.95411 17.2261 10.9711 16.2995 11.8645C15.3749 12.7559 13.6167 13.1875 12.3774 12.8273C11.1354 12.4662 10.8796 11.4492 11.8043 10.5578C12.7308 9.66444 14.4891 9.23283 15.731 9.59385Z" fill="#73AE43"/>
<path d="M14.4113 12.6321C13.7017 12.8063 12.998 12.8113 12.4301 12.6461C11.8945 12.4904 11.55 12.2046 11.4605 11.8414C11.3715 11.4821 11.54 11.0744 11.9348 10.6937C12.3594 10.2844 12.9843 9.96289 13.6942 9.78861C14.4042 9.61434 15.1086 9.60948 15.6781 9.77505C16.212 9.93025 16.5556 10.2154 16.6449 10.5778C16.7341 10.9379 16.5647 11.3467 16.1686 11.7286C15.7451 12.1372 15.1209 12.4579 14.4113 12.6321Z" fill="#80BC41"/>
<g opacity="0.2">
<path d="M14.125 11.4961C14.1594 11.512 14.812 11.815 14.8552 11.9863C14.8983 12.1575 14.6779 12.3583 14.3617 12.4359C14.2036 12.4747 14.0521 12.4752 13.9348 12.4446C13.8174 12.414 13.7341 12.3524 13.7125 12.2668C13.6693 12.0955 14.1023 11.526 14.125 11.4961Z" fill="white"/>
<path d="M15.4428 9.93415C15.696 10.0001 15.7455 10.1967 15.553 10.372C15.3607 10.5473 14.432 10.8822 14.3831 10.8998C14.3859 10.8702 14.4399 10.3074 14.6322 10.1322C14.8247 9.9568 15.1876 9.86765 15.4428 9.93415ZM15.7737 11.2403C16.0269 11.3062 16.0763 11.5028 15.8823 11.6796C15.69 11.8548 15.3271 11.9439 15.0739 11.878C14.8187 11.8115 14.5045 11.3411 14.4879 11.3163C14.5394 11.3091 15.5184 11.1738 15.7737 11.2403ZM13.719 11.505C13.7161 11.5345 13.6617 12.0955 13.4678 12.2722C13.2753 12.4476 12.9125 12.5366 12.6593 12.4707C12.4041 12.4042 12.3545 12.2077 12.547 12.0323C12.7409 11.8556 13.6701 11.5225 13.719 11.505Z" fill="white"/>
<path d="M13.5085 11.3356C13.47 11.3615 12.7384 11.8532 12.4222 11.9308C12.2641 11.9696 12.1121 11.97 11.9942 11.9393C11.8763 11.9086 11.7925 11.8468 11.7709 11.7612C11.7278 11.59 11.9482 11.3892 12.2643 11.3115C12.5806 11.2339 13.4621 11.3305 13.5085 11.3356ZM13.0298 10.5255C13.283 10.5914 13.5976 11.0638 13.6142 11.0886C13.5626 11.0956 12.5832 11.2291 12.33 11.1631C12.0768 11.0971 12.0273 10.9006 12.2197 10.7253C12.4136 10.5486 12.7766 10.4596 13.0298 10.5255ZM14.1679 9.95843C14.2858 9.98915 14.3695 10.051 14.3911 10.1366C14.4343 10.3078 13.9999 10.8786 13.977 10.9087C13.9426 10.8927 13.2881 10.5892 13.2449 10.418C13.2018 10.2468 13.4236 10.0446 13.7399 9.96701C13.8979 9.92816 14.05 9.92771 14.1679 9.95843ZM16.1085 10.464C16.2259 10.4946 16.3091 10.5563 16.3306 10.6419C16.3738 10.8131 16.1519 11.0153 15.8357 11.0928C15.5195 11.1705 14.6398 11.0743 14.5935 11.0693C14.6321 11.0434 15.3652 10.5504 15.6814 10.4727C15.8396 10.434 15.9911 10.4334 16.1085 10.464Z" fill="white"/>
</g>
<path d="M14.6429 11.3657L14.9861 12.3808C15.1208 12.7814 14.9974 13.2672 14.5782 13.7516C13.7422 14.7277 12.0307 15.32 10.7631 15.0718C10.1257 14.9491 9.71896 14.6387 9.5795 14.2357L9.23621 13.2207C9.3756 13.6236 9.78373 13.9376 10.421 14.0603C11.6874 14.3048 13.3988 13.7125 14.2397 12.7389C14.6554 12.2556 14.7775 11.7662 14.6429 11.3657Z" fill="#53893E"/>
<path d="M13.4583 10.5318C14.7256 10.7762 15.0741 11.7652 14.2339 12.7403C13.3956 13.7132 11.6847 14.3053 10.4174 14.061C9.14738 13.8161 8.7989 12.827 9.63724 11.8541C10.4774 10.879 12.1883 10.2869 13.4583 10.5318Z" fill="#73AE43"/>
<path d="M12.4246 13.6792C11.7341 13.9181 11.0339 13.988 10.4532 13.876C9.90545 13.7704 9.53611 13.5176 9.41348 13.1642C9.29175 12.8146 9.42193 12.3932 9.77988 11.9776C10.1649 11.5308 10.7574 11.153 11.4482 10.914C12.1391 10.6749 12.84 10.6051 13.4224 10.7173C13.9684 10.8225 14.3368 11.0748 14.4592 11.4274C14.5812 11.7777 14.4503 12.2004 14.0912 12.6173C13.7071 13.0632 13.1151 13.4402 12.4246 13.6792Z" fill="#80BC41"/>
<g opacity="0.2">
<path d="M12.0347 12.5742C12.0704 12.587 12.7482 12.8284 12.807 12.9949C12.8657 13.1614 12.6648 13.3817 12.3571 13.4882C12.2032 13.5414 12.0525 13.5559 11.9328 13.5363C11.813 13.5167 11.7245 13.463 11.695 13.3797C11.6363 13.2132 12.0148 12.6062 12.0347 12.5742Z" fill="white"/>
<path d="M13.2028 10.8972C13.4609 10.9395 13.5283 11.1306 13.3529 11.3229C13.1776 11.5152 12.2837 11.9345 12.2367 11.9565C12.2368 11.9267 12.2385 11.3613 12.4139 11.1691C12.5893 10.9768 12.9425 10.8545 13.2028 10.8972ZM13.6528 12.1672C13.9109 12.2095 13.9783 12.4006 13.8015 12.5945C13.6261 12.7868 13.273 12.909 13.0148 12.8667C12.7546 12.8241 12.3982 12.3846 12.3795 12.3615C12.4302 12.3496 13.3925 12.1245 13.6528 12.1672ZM11.6313 12.6204C11.6312 12.6501 11.6288 13.2137 11.4519 13.4076C11.2765 13.5999 10.9234 13.7221 10.6652 13.6797C10.405 13.6371 10.3375 13.446 10.5129 13.2537C10.6897 13.0598 11.5842 12.6424 11.6313 12.6204Z" fill="white"/>
<path d="M11.406 12.4714C11.37 12.5007 10.6869 13.0578 10.3792 13.1643C10.2254 13.2176 10.0741 13.232 9.95382 13.2122C9.83357 13.1925 9.74441 13.1388 9.71504 13.0555C9.65629 12.889 9.85718 12.6687 10.1649 12.5622C10.4726 12.4557 11.3593 12.4706 11.406 12.4714ZM10.8545 11.7089C11.1127 11.7512 11.4696 12.1925 11.4883 12.2157C11.4377 12.2275 10.4747 12.4507 10.2165 12.4084C9.95837 12.3661 9.89097 12.1749 10.0663 11.9827C10.2432 11.7888 10.5963 11.6666 10.8545 11.7089ZM11.9355 11.0392C12.0557 11.0589 12.1448 11.1127 12.1741 11.196C12.2329 11.3625 11.853 11.971 11.8331 12.003C11.7973 11.9902 11.1175 11.7484 11.0588 11.5818C11 11.4153 11.2023 11.1936 11.5099 11.0871C11.6638 11.0339 11.8152 11.0195 11.9355 11.0392ZM13.9144 11.3635C14.0341 11.3831 14.1227 11.4369 14.152 11.5201C14.2108 11.6867 14.0086 11.9084 13.7009 12.0149C13.3932 12.1214 12.5084 12.1068 12.4619 12.1061C12.4979 12.0767 13.1823 11.5181 13.4899 11.4117C13.6438 11.3584 13.7947 11.3438 13.9144 11.3635Z" fill="white"/>
</g>
<path d="M12.1466 12.6509L12.6942 13.5718C12.9095 13.9355 12.8903 14.4364 12.5814 14.9977C11.9677 16.1268 10.4176 17.0633 9.12608 17.0853C8.47712 17.0984 8.01453 16.8798 7.79399 16.5148L7.24634 15.5938C7.46675 15.9587 7.93146 16.1805 8.58035 16.1675C9.86989 16.1421 11.4199 15.2057 12.039 14.0779C12.3446 13.5185 12.3618 13.0144 12.1466 12.6509Z" fill="#589441"/>
<path d="M10.8141 12.0826C12.1044 12.0569 12.6518 12.9514 12.0337 14.0805C11.417 15.207 9.86744 16.1432 8.57707 16.1688C7.28389 16.1946 6.73656 15.3 7.35333 14.1735C7.97138 13.0445 9.52094 12.1082 10.8141 12.0826Z" fill="#73AE43"/>
<path d="M10.4603 15.376C9.83495 15.7538 9.16475 15.9684 8.57345 15.98C8.01575 15.9911 7.6018 15.821 7.40807 15.501C7.21601 15.1846 7.2553 14.7452 7.51866 14.264C7.80186 13.7467 8.30247 13.2535 8.92814 12.8756C9.5538 12.4975 10.2248 12.2829 10.8177 12.271C11.3737 12.2599 11.7866 12.4297 11.98 12.749C12.1724 13.0661 12.1326 13.5068 11.8685 13.9895C11.5859 14.5058 11.0856 14.9981 10.4603 15.376Z" fill="#80BC41"/>
<g opacity="0.2">
<path d="M9.84835 14.3774C9.88592 14.3824 10.5992 14.477 10.6914 14.6276C10.7837 14.7782 10.6332 15.0356 10.3545 15.2039C10.2151 15.2881 10.0707 15.3337 9.94954 15.3396C9.82839 15.3454 9.73047 15.3113 9.68439 15.2361C9.59216 15.0855 9.83555 14.4128 9.84835 14.3774Z" fill="white"/>
<path d="M10.6405 12.4933C10.9018 12.4808 11.0076 12.6536 10.8762 12.8784C10.7449 13.103 9.95827 13.6997 9.91687 13.7311C9.91072 13.702 9.79443 13.1487 9.92576 12.924C10.0572 12.6992 10.3771 12.5059 10.6405 12.4933ZM11.3457 13.6413C11.607 13.6288 11.7128 13.8017 11.5804 14.0282C11.4491 14.2529 11.1292 14.4461 10.8679 14.4587C10.6045 14.4713 10.1643 14.116 10.1411 14.0973C10.1882 14.0751 11.0823 13.654 11.3457 13.6413ZM9.46343 14.5067C9.46951 14.5358 9.58477 15.0874 9.45235 15.314C9.32096 15.5388 9.00115 15.7319 8.73984 15.7445C8.47642 15.7571 8.37056 15.5843 8.50195 15.3596C8.63437 15.133 9.42202 14.538 9.46343 14.5067Z" fill="white"/>
<path d="M9.21192 14.4077C9.18286 14.4438 8.63112 15.1313 8.35246 15.2997C8.21313 15.3839 8.06817 15.4296 7.94644 15.4354C7.82472 15.4412 7.72635 15.4072 7.6802 15.332C7.58798 15.1814 7.73844 14.924 8.01716 14.7556C8.29588 14.5873 9.16616 14.4167 9.21192 14.4077ZM8.51342 13.7771C8.77473 13.7646 9.21588 14.1217 9.23912 14.1405C9.19201 14.1626 8.29691 14.5819 8.0356 14.5945C7.77428 14.607 7.66849 14.4342 7.79982 14.2095C7.93224 13.983 8.25211 13.7897 8.51342 13.7771ZM9.43073 12.8965C9.55246 12.8907 9.65076 12.9247 9.69691 13.0001C9.78913 13.1506 9.54472 13.825 9.53185 13.8605C9.49422 13.8555 8.77896 13.7609 8.68673 13.6103C8.59451 13.4597 8.746 13.2006 9.02465 13.0323C9.16398 12.9481 9.309 12.9023 9.43073 12.8965ZM11.4337 12.8004C11.5549 12.7946 11.6527 12.8287 11.6988 12.904C11.7911 13.0546 11.6396 13.3137 11.3609 13.482C11.0823 13.6504 10.2139 13.821 10.1682 13.8299C10.1973 13.7937 10.75 13.1045 11.0287 12.9362C11.1681 12.852 11.3126 12.8063 11.4337 12.8004Z" fill="white"/>
</g>
<path d="M10.8893 18.2845L10.4619 18.9521C10.2571 19.2715 9.8478 19.4584 9.27289 19.4373C8.11961 19.401 6.74271 18.536 6.20364 17.5092C5.93119 16.994 5.91967 16.5348 6.12332 16.2106L6.55071 15.543C6.34713 15.8671 6.35679 16.3293 6.62924 16.8444C7.17017 17.8683 8.547 18.7332 9.70137 18.7743C10.2734 18.7936 10.6847 18.6038 10.8893 18.2845Z" fill="#E02426"/>
<path d="M8.25937 16.1217L8.26852 16.2064L8.22212 16.2083C8.16158 16.2062 8.09943 16.2005 8.03927 16.1915L8.01124 16.1835L7.99851 16.1444L8.03064 16.0928L8.14148 16.0931L8.25937 16.1217ZM8.14807 16.891L8.16497 16.9302L8.14283 16.9856L8.04369 16.9998L7.92734 16.9817L7.9082 16.8932L7.94686 16.884C8.00529 16.8825 8.06385 16.881 8.12606 16.8867L8.14807 16.891ZM9.47147 17.4145C9.48516 17.4404 9.49803 17.4663 9.51006 17.4932L9.51332 17.5143L9.46539 17.5056L9.37444 17.4533L9.30942 17.3526L9.2803 17.2603L9.39595 17.2924L9.42673 17.3356C9.44318 17.3626 9.45777 17.3886 9.47147 17.4145ZM9.42641 17.763C9.44036 17.7894 9.45367 17.8162 9.46571 17.843L9.46711 17.8606L9.41694 17.8554L9.33016 17.8032L9.26494 17.7025L9.23607 17.6102L9.35172 17.6423L9.38251 17.6855C9.39787 17.7107 9.41246 17.7366 9.42641 17.763Z" fill="#FDDB00"/>
<path d="M9.57451 17.0789C9.58846 17.1052 9.60107 17.1311 9.61233 17.1562L9.6156 17.1774L9.56747 17.1687L9.47653 17.1163L9.41342 17.0193L9.38245 16.9233L9.49829 16.9555L9.52907 16.9987C9.54533 17.0256 9.56056 17.0525 9.57451 17.0789Z" fill="#FDDB00"/>
<path d="M10.8057 16.9757C11.3488 18.003 10.8537 18.8011 9.70193 18.7615C8.54628 18.7216 7.17322 17.8591 6.63018 16.8318C6.089 15.808 6.58417 15.0099 7.73981 15.0498C8.89156 15.0894 10.2645 15.952 10.8057 16.9757ZM8.03473 17.7762C8.1002 17.8031 8.15901 17.7946 8.18442 17.7604C8.30033 17.6132 8.59466 17.2052 8.50052 17.0121C8.37841 16.7812 8.24273 17.3474 8.13981 17.3019C8.05457 17.2641 7.87217 17.1246 7.79761 16.9835C7.78193 16.9539 7.77105 16.9243 7.76676 16.8955C7.74641 16.7296 7.62852 16.1703 7.83569 16.0088C8.03517 15.8582 8.30839 15.7995 8.42999 16.0295C8.43588 16.0406 8.44125 16.0525 8.44657 16.0649C8.53476 16.2792 8.40106 16.3495 8.42225 16.3897C8.42788 16.4004 8.44452 16.4089 8.47869 16.4175C8.64849 16.462 8.6401 16.4688 8.68951 16.3229C8.72868 16.1879 8.91671 15.9211 8.80657 15.7129C8.79453 15.6902 8.77898 15.6682 8.75914 15.647C8.553 15.429 8.01591 15.2805 7.78244 15.3849C7.54916 15.4894 7.17002 15.6696 7.11549 15.9629C7.05911 16.2526 7.07402 16.5869 7.20689 16.8761C7.22333 16.9132 7.24273 16.9537 7.26532 16.9965C7.40637 17.263 7.66871 17.6183 8.03473 17.7762ZM8.87114 18.2443C9.08369 18.452 9.61777 18.5723 9.83549 18.4534C10.0514 18.3308 10.3953 18.1213 10.4199 17.8164C10.4486 17.5116 10.4022 17.1693 10.247 16.8756C10.0937 16.5857 9.7338 16.0848 9.25617 15.9664C9.23626 15.9965 8.85866 16.5682 8.98583 16.8088C9.12183 17.0511 9.20113 16.4531 9.30647 16.4953C9.39613 16.5289 9.60068 16.674 9.67927 16.8226C9.69156 16.8459 9.7009 16.8692 9.70621 16.8921C9.74449 17.0621 9.90826 17.6336 9.72068 17.8098C9.53745 17.9874 9.2714 18.0593 9.13405 17.7995C9.13226 17.7961 9.13047 17.7927 9.129 17.7894C9.02564 17.5764 9.14327 17.4964 9.1217 17.4555C9.11569 17.4442 9.09924 17.4359 9.06455 17.4287C8.90045 17.395 8.90692 17.3846 8.87524 17.5417C8.84753 17.6796 8.69994 17.9545 8.80983 18.1623C8.82506 18.1912 8.84522 18.2187 8.87114 18.2443ZM8.10621 16.5206C8.1217 16.4826 8.13527 16.4409 8.14468 16.399L8.14237 16.3567L8.04017 16.283L7.99741 16.3447L7.99249 16.4324L8.04663 16.5046L8.09373 16.5343L8.10621 16.5206ZM8.16477 16.9303L8.14788 16.8911L8.12586 16.8867C8.06365 16.8811 8.00503 16.8825 7.94666 16.8841L7.90801 16.8932L7.92714 16.9817L8.04362 16.9999L8.14257 16.9856L8.16477 16.9303ZM9.38237 16.9232L9.41329 17.0191L9.47645 17.1161L9.5674 17.1685L9.61553 17.1772L9.6122 17.1559C9.601 17.131 9.58833 17.1051 9.57437 17.0787C9.56042 17.0523 9.54519 17.0255 9.52893 16.9985L9.49815 16.9553L9.38237 16.9232ZM9.2801 17.2604L9.30941 17.3529L9.37425 17.4535L9.46519 17.5058L9.51319 17.5145L9.50986 17.4933C9.49783 17.4665 9.48503 17.4406 9.47133 17.4147C9.45764 17.3887 9.44298 17.3627 9.4266 17.3358L9.39581 17.2926L9.2801 17.2604ZM8.22193 16.2084L8.26826 16.2064L8.25911 16.1218L8.14122 16.0932L8.0305 16.0928L7.99831 16.1444L8.01098 16.1834L8.03901 16.1914C8.09917 16.2006 8.16145 16.2064 8.22193 16.2084ZM9.23594 17.6104L9.26474 17.7028L9.32989 17.8034L9.41668 17.8555L9.46692 17.8608L9.46545 17.8431C9.45348 17.8164 9.44017 17.7896 9.42615 17.7631C9.4122 17.7367 9.39761 17.7108 9.38218 17.6856L9.3514 17.6424L9.23594 17.6104Z" fill="#EF5656"/>
<path d="M8.1425 16.357L8.14487 16.3992C8.13546 16.4411 8.12189 16.4828 8.10647 16.5209L8.09392 16.5345L8.04669 16.5048L7.99268 16.4326L7.9976 16.345L8.04023 16.2832L8.1425 16.357Z" fill="#FDDB00"/>
<path d="M10.2471 16.8758C10.4022 17.1693 10.4488 17.5117 10.4201 17.8164C10.3955 18.1213 10.0515 18.3309 9.83561 18.4534C9.61801 18.5724 9.0838 18.4521 8.87132 18.2445C8.84533 18.2188 8.82524 18.1914 8.81 18.1626C8.70005 17.9546 8.84777 17.6797 8.87541 17.5418C8.90716 17.3847 8.90057 17.3951 9.06473 17.4288C9.09948 17.436 9.1158 17.4443 9.12175 17.4555C9.14332 17.4964 9.02568 17.5764 9.12904 17.7894C9.13064 17.7929 9.13244 17.7962 9.13417 17.7995C9.27151 18.0593 9.53762 17.9875 9.72085 17.8099C9.90844 17.6336 9.74466 17.0622 9.70626 16.8922C9.70101 16.8692 9.69167 16.8459 9.67938 16.8227C9.60079 16.6741 9.39618 16.5288 9.30664 16.4954C9.2013 16.4531 9.122 17.0513 8.98927 16.8147C8.85871 16.5682 9.2365 15.9966 9.25634 15.9665C9.73404 16.085 10.0938 16.5859 10.2471 16.8758ZM8.80674 15.7131C8.91682 15.9213 8.72885 16.1882 8.68968 16.3231C8.64028 16.469 8.64873 16.4622 8.47893 16.4177C8.44463 16.4092 8.42805 16.4006 8.42249 16.39C8.40124 16.3498 8.535 16.2795 8.4468 16.0652C8.44149 16.0527 8.43612 16.041 8.43023 16.0298C8.30863 15.7998 8.03522 15.8584 7.83586 16.009C7.62869 16.1706 7.74658 16.7299 7.76693 16.8957C7.77122 16.9245 7.78216 16.9542 7.79784 16.9838C7.8724 17.1248 8.05468 17.2644 8.14005 17.3021C8.24284 17.3476 8.37864 16.7814 8.49909 17.0093C8.59484 17.2054 8.3005 17.6134 8.1846 17.7605C8.15919 17.7947 8.10044 17.8033 8.03497 17.7764C7.66882 17.6185 7.40661 17.2633 7.26575 16.9968C7.24309 16.954 7.22364 16.9135 7.20725 16.8764C7.07432 16.5872 7.05948 16.2529 7.11586 15.9631C7.17033 15.6698 7.54953 15.4897 7.78281 15.3852C8.01628 15.2808 8.55337 15.4294 8.75951 15.6473C8.77922 15.6683 8.79471 15.6904 8.80674 15.7131Z" fill="#E02426"/>
<path d="M13.0969 20.2131L12.5769 20.8114C12.3279 21.0977 11.8957 21.223 11.33 21.1185C10.1943 20.9148 8.95793 19.8587 8.57399 18.7644C8.37937 18.2151 8.43479 17.7591 8.68349 17.4679L9.20343 16.8696C8.95485 17.1606 8.89719 17.6193 9.09175 18.1686C9.47799 19.2603 10.7143 20.3164 11.8504 20.525C12.4135 20.6273 12.848 20.4993 13.0969 20.2131Z" fill="#D91F26"/>
<path d="M10.8096 17.6909L10.8064 17.7759L10.7602 17.7711C10.7006 17.7602 10.64 17.7455 10.5818 17.7278L10.5552 17.7158L10.5483 17.6753L10.5876 17.6289L10.6972 17.6454L10.8096 17.6909ZM10.5876 18.4357L10.5986 18.477L10.5686 18.5286L10.4685 18.5282L10.356 18.4934L10.35 18.4031L10.3896 18.3996C10.4476 18.4066 10.5058 18.4137 10.5665 18.4283L10.5876 18.4357ZM11.8208 19.1462C11.8306 19.1739 11.8395 19.2014 11.8474 19.2296L11.8476 19.2511L11.8014 19.2355L11.7191 19.1705L11.6694 19.0614L11.654 18.9658L11.7638 19.0144L11.788 19.0616C11.8003 19.0907 11.811 19.1186 11.8208 19.1462ZM11.7255 19.4845C11.7354 19.5126 11.7447 19.5411 11.7527 19.5693L11.7514 19.587L11.7026 19.5745L11.6243 19.5103L11.5744 19.4012L11.5593 19.3056L11.669 19.3542L11.6932 19.4015C11.7049 19.4285 11.7155 19.4564 11.7255 19.4845Z" fill="#FDDB00"/>
<path d="M11.9717 18.8284C11.9817 18.8565 11.9904 18.884 11.9979 18.9104L11.998 18.9318L11.9517 18.9162L11.8693 18.8512L11.821 18.7459L11.8043 18.6465L11.9143 18.6951L11.9385 18.7424C11.9505 18.7714 11.9617 18.8003 11.9717 18.8284Z" fill="#FDDB00"/>
<path d="M13.2047 18.9058C13.5925 20.0012 12.9867 20.7188 11.8529 20.512C10.7154 20.3044 9.4824 19.2513 9.09456 18.156C8.70807 17.0644 9.31408 16.3467 10.4516 16.5543C11.5854 16.7611 12.8182 17.8143 13.2047 18.9058ZM10.3468 19.2947C10.4077 19.3308 10.467 19.331 10.4972 19.3008C10.6333 19.172 10.9838 18.8113 10.9188 18.6065C10.8316 18.3602 10.6149 18.9008 10.5197 18.8407C10.4409 18.7909 10.2807 18.6264 10.2274 18.476C10.2162 18.4444 10.2098 18.4135 10.2097 18.3844C10.2137 18.2173 10.1784 17.6468 10.4069 17.5172C10.6261 17.3971 10.905 17.3789 10.9918 17.6242C10.996 17.636 10.9997 17.6485 11.003 17.6616C11.0591 17.8865 10.9166 17.9366 10.9317 17.9794C10.9358 17.9908 10.9509 18.0017 10.9835 18.015C11.1451 18.0838 11.1358 18.0893 11.2059 17.9521C11.2643 17.8243 11.4891 17.5878 11.4105 17.3657C11.4019 17.3415 11.3897 17.3174 11.3732 17.2936C11.2009 17.0479 10.6912 16.8228 10.445 16.8922C10.199 16.9615 9.79773 17.0847 9.70109 17.3669C9.60317 17.6454 9.56932 17.9783 9.65866 18.2838C9.66954 18.3228 9.68279 18.3658 9.69898 18.4114C9.79972 18.6955 10.0076 19.0852 10.3468 19.2947ZM11.1062 19.8795C11.2862 20.1159 11.7972 20.3126 12.0299 20.2266C12.2613 20.1367 12.632 19.9794 12.7007 19.6813C12.7734 19.384 12.7773 19.0385 12.6665 18.7255C12.5571 18.4164 12.2739 17.8685 11.8186 17.6818C11.7945 17.7087 11.3378 18.2194 11.4286 18.4759C11.5279 18.7354 11.6933 18.1553 11.7914 18.2123C11.8752 18.2586 12.0565 18.432 12.1126 18.5905C12.1214 18.6152 12.1272 18.6397 12.1291 18.6631C12.1422 18.8369 12.2212 19.4261 12.01 19.5731C11.8029 19.7222 11.5292 19.7546 11.4311 19.4776C11.4298 19.474 11.4285 19.4704 11.4275 19.4668C11.3562 19.241 11.4843 19.179 11.4688 19.1355C11.4645 19.1234 11.4494 19.1128 11.4162 19.1007C11.2588 19.0434 11.2667 19.0341 11.2125 19.1849C11.1651 19.3173 10.979 19.5679 11.0574 19.7894C11.0683 19.8203 11.0843 19.8504 11.1062 19.8795ZM10.6002 18.0628C10.621 18.0274 10.6405 17.9882 10.6559 17.9481L10.6598 17.906L10.5694 17.8182L10.5181 17.873L10.5005 17.959L10.5435 18.0383L10.5858 18.0746L10.6002 18.0628ZM10.5984 18.4768L10.5875 18.4355L10.5663 18.428C10.5056 18.4134 10.4474 18.4063 10.3894 18.3994L10.3498 18.4029L10.3559 18.4932L10.4685 18.5281L10.5685 18.5284L10.5984 18.4768ZM11.8042 18.6468L11.8208 18.7461L11.8692 18.8514L11.9515 18.9164L11.9979 18.932L11.9977 18.9105C11.9902 18.8842 11.9814 18.8567 11.9715 18.8286C11.9616 18.8005 11.9504 18.7716 11.9382 18.7426L11.9141 18.6954L11.8042 18.6468ZM11.6539 18.9656L11.6695 19.0613L11.719 19.1703L11.8014 19.2353L11.8476 19.2509L11.8474 19.2294C11.8394 19.2011 11.8305 19.1736 11.8207 19.1461C11.8109 19.1184 11.8002 19.0906 11.7879 19.0615L11.7638 19.0143L11.6539 18.9656ZM10.76 17.7709L10.8062 17.7757L10.8094 17.6906L10.697 17.6451L10.5875 17.6287L10.5481 17.6751L10.555 17.7155L10.5816 17.7275C10.6398 17.7453 10.7005 17.76 10.76 17.7709ZM11.5593 19.3054L11.5744 19.401L11.6242 19.51L11.7024 19.5743L11.7513 19.5868L11.7525 19.5691C11.7445 19.541 11.7353 19.5124 11.7253 19.4842C11.7154 19.4561 11.7047 19.4283 11.693 19.4011L11.6689 19.3539L11.5593 19.3054Z" fill="#EF5656"/>
<path d="M10.6598 17.9062L10.6561 17.9483C10.6406 17.9883 10.6212 18.0276 10.6004 18.0632L10.586 18.0748L10.5436 18.0385L10.5006 17.9593L10.5182 17.8733L10.5693 17.8184L10.6598 17.9062Z" fill="#FDDB00"/>
<path d="M12.6665 18.7255C12.7773 19.0384 12.7736 19.384 12.7008 19.6813C12.6322 19.9794 12.2614 20.1366 12.0299 20.2265C11.7973 20.3125 11.2863 20.1157 11.1063 19.8794C11.0843 19.8503 11.0684 19.8202 11.0575 19.7895C10.979 19.5678 11.1651 19.3173 11.2125 19.1849C11.2667 19.0341 11.2588 19.0434 11.4162 19.1006C11.4495 19.1129 11.4645 19.1234 11.4688 19.1354C11.4842 19.179 11.3561 19.241 11.4274 19.4668C11.4285 19.4705 11.4298 19.474 11.431 19.4776C11.5291 19.7546 11.8029 19.7222 12.01 19.5731C12.2212 19.4261 12.1423 18.8369 12.1291 18.6631C12.1272 18.6396 12.1214 18.6153 12.1126 18.5905C12.0565 18.432 11.8752 18.2585 11.7915 18.2124C11.6933 18.1552 11.5279 18.7355 11.431 18.4822C11.3377 18.2193 11.7946 17.7088 11.8187 17.6819C12.274 17.8684 12.5571 18.4163 12.6665 18.7255ZM11.4107 17.3657C11.4893 17.5877 11.2645 17.8243 11.2061 17.952C11.136 18.0892 11.1453 18.0837 10.9838 18.015C10.9511 18.0016 10.936 17.9907 10.932 17.9794C10.9168 17.9365 11.0594 17.8864 11.0033 17.6615C10.9998 17.6483 10.9963 17.636 10.992 17.6241C10.9052 17.3788 10.6262 17.397 10.407 17.517C10.1785 17.6467 10.2138 18.2172 10.2098 18.3842C10.2098 18.4133 10.2164 18.4443 10.2276 18.4759C10.2808 18.6262 10.4409 18.7908 10.5198 18.8406C10.6149 18.9006 10.8317 18.3601 10.9177 18.6031C10.9838 18.811 10.6333 19.1719 10.4973 19.3006C10.4671 19.3308 10.4077 19.3307 10.3469 19.2946C10.0075 19.0851 9.79984 18.6955 9.69923 18.4114C9.68304 18.3657 9.66967 18.3228 9.65885 18.2837C9.56938 17.9783 9.60336 17.6453 9.70128 17.3669C9.79786 17.0846 10.1992 16.9615 10.4452 16.8921C10.6914 16.8228 11.2011 17.0479 11.3733 17.2935C11.39 17.3173 11.4021 17.3414 11.4107 17.3657Z" fill="#E02426"/>
<path d="M16.5649 20.4798L16.1375 21.1474C15.9328 21.4669 15.5235 21.6537 14.9485 21.6326C13.7953 21.5963 12.4184 20.7313 11.8793 19.7045C11.6068 19.1894 11.5953 18.7301 11.799 18.4059L12.2264 17.7383C12.0228 18.0624 12.0325 18.5246 12.3049 19.0397C12.8458 20.0636 14.2227 20.9286 15.377 20.9696C15.9491 20.9889 16.3603 20.7991 16.5649 20.4798Z" fill="#E02426"/>
<path d="M13.935 18.317L13.9441 18.4017L13.8977 18.4036C13.8372 18.4015 13.775 18.3959 13.7149 18.3868L13.6868 18.3788L13.6741 18.3397L13.7062 18.2881L13.8171 18.2884L13.935 18.317ZM13.8237 19.0863L13.8406 19.1255L13.8184 19.181L13.7192 19.1952L13.6029 19.1771L13.5837 19.0886L13.6224 19.0794C13.6808 19.0779 13.7394 19.0764 13.8016 19.0821L13.8237 19.0863ZM15.1471 19.6099C15.1608 19.6358 15.1736 19.6617 15.1857 19.6885L15.1889 19.7097L15.141 19.701L15.05 19.6487L14.985 19.5481L14.9559 19.4557L15.0715 19.4878L15.1023 19.531C15.1187 19.5579 15.1333 19.5839 15.1471 19.6099ZM15.102 19.9584C15.116 19.9847 15.1293 20.0115 15.1413 20.0384L15.1427 20.056L15.0925 20.0507L15.0058 19.9985L14.9405 19.8978L14.9117 19.8055L15.0273 19.8376L15.0581 19.8808C15.0735 19.906 15.0881 19.932 15.102 19.9584Z" fill="#FDDB00"/>
<path d="M15.2502 19.2742C15.2642 19.3005 15.2768 19.3265 15.2881 19.3515L15.2914 19.3727L15.2433 19.364L15.1523 19.3116L15.0892 19.2146L15.0582 19.1187L15.1741 19.1508L15.2049 19.194C15.221 19.2209 15.2363 19.2477 15.2502 19.2742Z" fill="#FDDB00"/>
<path d="M16.4814 19.171C17.0244 20.1983 16.5294 20.9964 15.3776 20.9568C14.2219 20.9169 12.8489 20.0544 12.3058 19.0271C11.7647 18.0034 12.2598 17.2052 13.4155 17.2451C14.5673 17.2848 15.9402 18.1473 16.4814 19.171ZM13.7104 19.9715C13.7759 19.9984 13.8347 19.9899 13.8601 19.9557C13.976 19.8085 14.2704 19.4005 14.1762 19.2075C14.0541 18.9765 13.9184 19.5427 13.8155 19.4972C13.7303 19.4594 13.5479 19.3199 13.4733 19.1788C13.4576 19.1492 13.4468 19.1196 13.4425 19.0908C13.4221 18.925 13.3042 18.3656 13.5114 18.2041C13.7109 18.0535 13.9841 17.9948 14.1057 18.2249C14.1116 18.2359 14.117 18.2478 14.1223 18.2603C14.2105 18.4745 14.0768 18.5449 14.098 18.5851C14.1036 18.5957 14.1202 18.6043 14.1544 18.6128C14.3242 18.6573 14.3158 18.6641 14.3652 18.5182C14.4044 18.3832 14.5924 18.1164 14.4823 17.9083C14.4703 17.8855 14.4547 17.8635 14.4349 17.8423C14.2287 17.6243 13.6916 17.4758 13.4582 17.5803C13.2249 17.6847 12.8457 17.8649 12.7912 18.1582C12.7348 18.4479 12.7497 18.7822 12.8826 19.0715C12.8991 19.1085 12.9184 19.149 12.941 19.1918C13.082 19.4584 13.3444 19.8137 13.7104 19.9715ZM14.5469 20.4396C14.7594 20.6473 15.2935 20.7676 15.5112 20.6487C15.7272 20.5261 16.071 20.3166 16.0956 20.0117C16.1243 19.7069 16.0779 19.3646 15.9227 19.0709C15.7694 18.781 15.4095 18.2802 14.9319 18.1617C14.912 18.1918 14.5344 18.7635 14.6616 19.0041C14.7976 19.2464 14.8768 18.6484 14.9822 18.6906C15.0719 18.7242 15.2764 18.8693 15.355 19.0179C15.3673 19.0412 15.3766 19.0645 15.3819 19.0874C15.4202 19.2574 15.584 19.8289 15.3964 20.0051C15.2132 20.1827 14.9471 20.2546 14.8098 19.9948C14.808 19.9915 14.8062 19.9881 14.8047 19.9847C14.7014 19.7717 14.819 19.6917 14.7974 19.6508C14.7914 19.6395 14.775 19.6313 14.7403 19.624C14.5762 19.5903 14.5826 19.5799 14.551 19.737C14.5232 19.8749 14.3757 20.1499 14.4856 20.3577C14.5008 20.3866 14.5209 20.414 14.5469 20.4396ZM13.7819 18.7159C13.7974 18.6779 13.811 18.6363 13.8204 18.5943L13.8181 18.552L13.7159 18.4783L13.6731 18.54L13.6682 18.6277L13.7224 18.6999L13.7695 18.7296L13.7819 18.7159ZM13.8404 19.1257L13.8235 19.0864L13.8015 19.0821C13.7393 19.0764 13.6807 19.0779 13.6223 19.0795L13.5837 19.0886L13.6028 19.1771L13.7193 19.1952L13.8182 19.181L13.8404 19.1257ZM15.0581 19.1185L15.089 19.2144L15.1522 19.3115L15.2431 19.3638L15.2912 19.3725L15.2879 19.3513C15.2767 19.3263 15.2641 19.3004 15.2501 19.274C15.2361 19.2476 15.2209 19.2208 15.2047 19.1938L15.1739 19.1506L15.0581 19.1185ZM14.9558 19.4557L14.9851 19.5482L15.05 19.6488L15.1409 19.7011L15.1889 19.7099L15.1856 19.6886C15.1736 19.6618 15.1608 19.6359 15.1471 19.61C15.1334 19.584 15.1187 19.558 15.1023 19.5311L15.0715 19.4879L14.9558 19.4557ZM13.8976 18.4038L13.944 18.4018L13.9348 18.3172L13.8169 18.2885L13.7062 18.2882L13.674 18.3398L13.6867 18.3788L13.7147 18.3868C13.7749 18.396 13.8372 18.4017 13.8976 18.4038ZM14.9117 19.8057L14.9405 19.8981L15.0056 19.9987L15.0924 20.0508L15.1426 20.0562L15.1412 20.0384C15.1292 20.0117 15.1159 19.9849 15.1019 19.9584C15.0879 19.9321 15.0733 19.9061 15.0579 19.8809L15.0271 19.8377L14.9117 19.8057Z" fill="#EF5656"/>
<path d="M13.8182 18.5523L13.8205 18.5945C13.8111 18.6364 13.7976 18.6781 13.7821 18.7162L13.7696 18.7298L13.7224 18.7001L13.6683 18.628L13.6733 18.5403L13.7159 18.4785L13.8182 18.5523Z" fill="#FDDB00"/>
<path d="M15.9227 19.071C16.0779 19.3645 16.1244 19.707 16.0957 20.0117C16.0711 20.3166 15.7272 20.5261 15.5113 20.6487C15.2937 20.7677 14.7595 20.6473 14.547 20.4397C14.521 20.4141 14.5009 20.3866 14.4857 20.3578C14.3757 20.1499 14.5234 19.875 14.5511 19.737C14.5828 19.5799 14.5762 19.5903 14.7404 19.624C14.7751 19.6313 14.7915 19.6396 14.7974 19.6508C14.819 19.6916 14.7013 19.7717 14.8047 19.9847C14.8063 19.9881 14.8081 19.9915 14.8098 19.9948C14.9472 20.2546 15.2133 20.1827 15.3965 20.0051C15.5841 19.8288 15.4203 19.2575 15.3819 19.0874C15.3767 19.0644 15.3673 19.0412 15.355 19.018C15.2764 18.8694 15.0718 18.7241 14.9823 18.6906C14.877 18.6483 14.7977 19.2465 14.6649 19.01C14.5344 18.7634 14.9122 18.1919 14.932 18.1618C15.4096 18.2802 15.7694 18.7811 15.9227 19.071ZM14.4824 17.9085C14.5925 18.1167 14.4045 18.3835 14.3653 18.5184C14.3159 18.6643 14.3244 18.6575 14.1546 18.613C14.1203 18.6045 14.1037 18.5959 14.0981 18.5853C14.0769 18.5451 14.2107 18.4748 14.1225 18.2605C14.1172 18.248 14.1118 18.2363 14.1059 18.2251C13.9843 17.9951 13.7109 18.0537 13.5115 18.2043C13.3044 18.3659 13.4222 18.9252 13.4426 19.091C13.4469 19.1198 13.4578 19.1495 13.4735 19.1791C13.5481 19.3201 13.7303 19.4597 13.8157 19.4975C13.9185 19.543 14.0543 18.9767 14.1748 19.2046C14.2705 19.4007 13.9762 19.8087 13.8603 19.9558C13.8348 19.9901 13.7761 19.9986 13.7106 19.9718C13.3445 19.8138 13.0823 19.4586 12.9414 19.1921C12.9188 19.1493 12.8993 19.1088 12.8829 19.0717C12.75 18.7825 12.7351 18.4482 12.7915 18.1584C12.846 17.8651 13.2252 17.685 13.4585 17.5805C13.6919 17.4761 14.229 17.6247 14.4352 17.8426C14.4549 17.8637 14.4704 17.8857 14.4824 17.9085Z" fill="#E02426"/>
<path d="M24.6604 16.5795L24.8455 17.0791L24.5791 16.9999C24.528 16.9842 24.4676 16.9716 24.4125 16.9641C23.6012 16.8256 22.5224 17.2253 22.0023 17.8537C21.7447 18.1652 21.6724 18.4779 21.7654 18.7292L21.5834 18.2285C21.4903 17.9773 21.5627 17.6645 21.8202 17.3529C22.3373 16.7257 23.4192 16.3248 24.2305 16.4635C24.2856 16.471 24.346 16.4835 24.3941 16.5004L24.6604 16.5795Z" fill="#73AE43"/>
<path d="M28.1002 15.2983L28.28 15.7928C28.1869 15.5416 27.924 15.3496 27.5195 15.2833C26.7124 15.1466 25.6336 15.5464 25.1104 16.1759C24.9236 16.4055 24.8301 16.6424 24.8373 16.8593L24.8456 17.0793L24.6605 16.5797L24.6553 16.3585C24.645 16.1428 24.7416 15.9048 24.9284 15.6752C25.4485 15.0468 26.5305 14.6459 27.3375 14.7826C27.7431 14.8519 28.0059 15.0439 28.1002 15.2983Z" fill="#589441"/>
<path d="M28.4061 15.1875L28.5899 15.6877C28.6989 15.9844 28.6141 16.3523 28.3094 16.7218C28.137 16.9309 27.9059 17.1257 27.6322 17.2901L27.4485 16.7899C27.7222 16.6255 27.9533 16.4306 28.1257 16.2215C28.4304 15.8521 28.5151 15.4841 28.4061 15.1875Z" fill="#73AE43"/>
<path d="M21.4593 18.8415L21.2755 18.3413C21.3859 18.6419 21.6956 18.8693 22.1768 18.9513C22.7421 19.0476 23.4401 18.924 24.0561 18.6237L24.2399 19.124C23.6239 19.4242 22.9259 19.5478 22.3605 19.4515C21.8794 19.3695 21.5697 19.1421 21.4593 18.8415Z" fill="#589441"/>
<path d="M24.397 18.2113L24.579 18.712L24.5553 18.9021C24.5435 19.0111 24.5541 19.1151 24.5893 19.2102L24.4042 18.7106C24.369 18.6155 24.3583 18.5114 24.3733 18.4014L24.397 18.2113ZM27.8139 17.4612L27.999 17.9608C27.9059 17.7095 27.6503 17.5183 27.2509 17.4467L27.0043 17.4022L26.8222 16.9014L27.0688 16.946C27.4652 17.0186 27.7209 17.2098 27.8139 17.4612Z" fill="#73AE43"/>
<path d="M28.1209 17.3467L28.3046 17.8469C28.4137 18.1439 28.329 18.5119 28.025 18.8806C27.4117 19.6244 26.1376 20.0951 25.1851 19.9328C24.7146 19.8527 24.3956 19.6317 24.2829 19.3249L24.0991 18.8247C24.2118 19.1315 24.5309 19.3524 25.0013 19.4326C25.9539 19.5949 27.228 19.1242 27.8413 18.3803C28.1452 18.0117 28.2299 17.6436 28.1209 17.3467Z" fill="#589441"/>
<path d="M27.4485 16.7897C28.2171 17.024 28.4012 17.701 27.8412 18.3802C27.2279 19.124 25.9539 19.5947 25.0013 19.4324C24.4336 19.3357 24.0863 19.0339 24.0561 18.6236C23.4401 18.9238 22.7422 19.0475 22.1768 18.9512C21.2218 18.7885 20.9423 18.053 21.5556 17.3092C22.1582 16.5783 23.404 16.109 24.3529 16.2495C24.3898 16.047 24.4928 15.8366 24.6622 15.6312C25.2755 14.8874 26.5511 14.4148 27.5061 14.5775C28.461 14.7402 28.739 15.4775 28.1257 16.2213C27.9534 16.4305 27.7223 16.6253 27.4485 16.7897ZM25.1707 19.227C25.9784 19.3646 27.0589 18.9643 27.5776 18.3352C28.0918 17.7117 27.8634 17.0883 27.0675 16.9463L26.8219 16.9024L27.0909 16.7668C27.4089 16.6078 27.6759 16.4022 27.8621 16.1765C28.3823 15.5456 28.1469 14.921 27.3368 14.783C26.5291 14.6454 25.4485 15.0458 24.9283 15.6767C24.7406 15.9042 24.6455 16.1412 24.6545 16.3602L24.6614 16.5786L24.3936 16.4992C24.3451 16.4825 24.2857 16.4723 24.2287 16.4626C23.4186 16.3246 22.338 16.725 21.8193 17.3542C21.3006 17.9832 21.5361 18.6078 22.3461 18.7458C22.8878 18.8381 23.5749 18.6914 24.1396 18.3615L24.3964 18.2111L24.3724 18.4011C24.3209 18.8185 24.6267 19.1343 25.1707 19.227Z" fill="#A9C838"/>
<path d="M19.7949 18.953L19.98 19.4526L19.7137 19.3735C19.6625 19.3577 19.6021 19.3452 19.547 19.3377C18.7357 19.1991 17.6569 19.5989 17.1368 20.2273C16.8792 20.5387 16.8068 20.8515 16.9 21.1027L16.7179 20.6021C16.6248 20.3508 16.6972 20.038 16.9547 19.7265C17.4718 19.0992 18.5537 18.6983 19.365 18.837C19.4201 18.8445 19.4805 18.857 19.5286 18.8739L19.7949 18.953Z" fill="#FDDB00"/>
<path d="M23.2347 17.6718L23.4145 18.1664C23.3214 17.9151 23.0585 17.7231 22.6541 17.6569C21.847 17.5202 20.7681 17.9199 20.245 18.5495C20.0582 18.7791 19.9647 19.0159 19.9718 19.2328L19.9801 19.4528L19.7951 18.9533L19.7897 18.7321C19.7794 18.5163 19.876 18.2783 20.0628 18.0487C20.5829 17.4203 21.6649 17.0194 22.4719 17.1561C22.8776 17.2254 23.1405 17.4174 23.2347 17.6718Z" fill="#F8C814"/>
<path d="M23.5407 17.561L23.7244 18.0613C23.8334 18.3579 23.7487 18.7258 23.444 19.0953C23.2715 19.3044 23.0404 19.4993 22.7668 19.6636L22.583 19.1634C22.8567 18.9991 23.0878 18.8042 23.2602 18.5951C23.5649 18.2256 23.6496 17.8577 23.5407 17.561ZM16.5938 21.2151L16.41 20.7149C16.5204 21.0155 16.8301 21.2429 17.3113 21.3249C17.8767 21.4212 18.5746 21.2975 19.1906 20.9973L19.3744 21.4975C18.7584 21.7978 18.0604 21.9214 17.495 21.8251C17.0139 21.7431 16.7042 21.5157 16.5938 21.2151Z" fill="#F8C814"/>
<path d="M19.5314 20.5845L19.7134 21.0851L19.6897 21.2752C19.6779 21.3843 19.6885 21.4883 19.7237 21.5833L19.5386 21.0837C19.5034 20.9887 19.4927 20.8846 19.5077 20.7746L19.5314 20.5845Z" fill="#EEC826"/>
<path d="M22.9485 19.8342L23.1336 20.3338C23.0404 20.0825 22.7849 19.8913 22.3854 19.8198L22.1389 19.7753L21.9568 19.2744L22.2034 19.319C22.5997 19.3917 22.8553 19.5829 22.9485 19.8342Z" fill="#F6D341"/>
<path d="M23.2554 19.7197L23.4391 20.22C23.5482 20.5169 23.4635 20.885 23.1595 21.2536C22.5462 21.9974 21.2722 22.4681 20.3196 22.3058C19.8491 22.2257 19.5301 22.0048 19.4174 21.698L19.2336 21.1977C19.3463 21.5046 19.6654 21.7255 20.1359 21.8056C21.0884 21.9679 22.3625 21.4972 22.9758 20.7534C23.2798 20.3848 23.3645 20.0166 23.2554 19.7197Z" fill="#FDDB00"/>
<path d="M22.5831 19.1632C23.3516 19.3975 23.5357 20.0745 22.9758 20.7536C22.3624 21.4974 21.0884 21.9682 20.1358 21.8058C19.5681 21.7091 19.2208 21.4074 19.1907 20.9971C18.5747 21.2973 17.8767 21.421 17.3113 21.3246C16.3564 21.1619 16.0768 20.4265 16.6901 19.6827C17.2927 18.9518 18.5385 18.4826 19.4874 18.6231C19.5243 18.4206 19.6273 18.2101 19.7967 18.0048C20.41 17.261 21.6856 16.7883 22.6406 16.951C23.5955 17.1137 23.8735 17.851 23.2602 18.5948C23.0878 18.804 22.8567 18.9988 22.5831 19.1632ZM20.3052 21.6005C21.1128 21.7381 22.1934 21.3378 22.7121 20.7087C23.2263 20.0851 22.9978 19.4618 22.2019 19.3198L21.9564 19.2759L22.2254 19.1402C22.5434 18.9813 22.8104 18.7757 22.9966 18.55C23.5167 17.9191 23.2814 17.2944 22.4712 17.1564C21.6636 17.0188 20.5829 17.4192 20.0627 18.0501C19.8751 18.2777 19.7799 18.5147 19.789 18.7337L19.7959 18.9521L19.5281 18.8727C19.4796 18.856 19.4202 18.8458 19.3631 18.8361C18.5531 18.6981 17.4725 19.0985 16.9537 19.7276C16.435 20.3567 16.6705 20.9813 17.4806 21.1193C18.0222 21.2116 18.7094 21.0649 19.2741 20.7349L19.5308 20.5845L19.5068 20.7746C19.4554 21.192 19.7612 21.5078 20.3052 21.6005Z" fill="#FDE34B"/>
<path d="M21.2204 15.79L21.4054 16.2895L21.1391 16.2104C21.0879 16.1946 21.0275 16.1821 20.9724 16.1746C20.1612 16.036 19.0823 16.4358 18.5622 17.0642C18.3046 17.3756 18.2323 17.6884 18.3254 17.9397L18.1434 17.439C18.0502 17.1877 18.1226 16.8749 18.3802 16.5634C18.8972 15.9361 19.9791 15.5352 20.7905 15.6739C20.8455 15.6814 20.9059 15.694 20.954 15.7109L21.2204 15.79Z" fill="#E02426"/>
<path d="M24.6601 14.5087L24.8399 15.0033C24.7468 14.752 24.484 14.56 24.0795 14.4938C23.2724 14.3571 22.1935 14.7568 21.6704 15.3864C21.4836 15.616 21.3901 15.8528 21.3972 16.0697L21.4056 16.2898L21.2205 15.7902L21.2152 15.569C21.205 15.3532 21.3016 15.1152 21.4884 14.8857C22.0085 14.2572 23.0904 13.8564 23.8975 13.9931C24.303 14.0623 24.5659 14.2543 24.6601 14.5087Z" fill="#CF2027"/>
<path d="M24.9661 14.3979L25.1499 14.8982C25.2589 15.1948 25.1741 15.5627 24.8694 15.9322C24.697 16.1413 24.4659 16.3362 24.1922 16.5005L24.0085 16.0003C24.2822 15.836 24.5133 15.6411 24.6857 15.432C24.9904 15.0625 25.0751 14.6946 24.9661 14.3979ZM18.0193 18.052L17.8356 17.5518C17.946 17.8524 18.2557 18.0798 18.7368 18.1618C19.3022 18.2581 20.0002 18.1345 20.6162 17.8342L20.7999 18.3345C20.1839 18.6347 19.4859 18.7583 18.9206 18.662C18.4394 18.58 18.1297 18.3526 18.0193 18.052Z" fill="#CF2027"/>
<path d="M20.9569 17.4214L21.1389 17.9221L21.1152 18.1121C21.1034 18.2212 21.114 18.3252 21.1492 18.4202L20.9641 17.9207C20.9289 17.8256 20.9182 17.7215 20.9332 17.6115L20.9569 17.4214Z" fill="#E02426"/>
<path d="M24.3739 16.6711L24.559 17.1707C24.4658 16.9195 24.2103 16.7282 23.8108 16.6567L23.5643 16.6122L23.3822 16.1113L23.6288 16.1559C24.0252 16.2286 24.2808 16.4199 24.3739 16.6711Z" fill="#CF2027"/>
<path d="M24.6808 16.5566L24.8646 17.0569C24.9736 17.3538 24.8889 17.7219 24.5849 18.0905C23.9716 18.8343 22.6976 19.3051 21.745 19.1428C21.2745 19.0626 20.9555 18.8417 20.8428 18.5349L20.6591 18.0347C20.7718 18.3415 21.0908 18.5624 21.5613 18.6425C22.5138 18.8048 23.7879 18.3341 24.4012 17.5903C24.7052 17.2217 24.7899 16.8536 24.6808 16.5566Z" fill="#E02426"/>
<path d="M24.0085 16.0001C24.777 16.2344 24.9611 16.9115 24.4012 17.5906C23.7879 18.3344 22.5138 18.8051 21.5612 18.6428C20.9935 18.5461 20.6462 18.2444 20.6161 17.8341C20.0001 18.1343 19.3021 18.2579 18.7367 18.1616C17.7818 17.9989 17.5022 17.2635 18.1155 16.5196C18.7182 15.7887 19.9639 15.3195 20.9128 15.46C20.9497 15.2575 21.0528 15.0471 21.2221 14.8417C21.8354 14.0979 23.1111 13.6252 24.066 13.7879C25.0209 13.9506 25.2989 14.6879 24.6857 15.4318C24.5133 15.6409 24.2822 15.8358 24.0085 16.0001ZM21.7306 18.4374C22.5383 18.575 23.6188 18.1747 24.1376 17.5457C24.6517 16.9221 24.4233 16.2988 23.6274 16.1567L23.3818 16.1128L23.6508 15.9772C23.9689 15.8183 24.2359 15.6127 24.422 15.387C24.9422 14.756 24.7068 14.1314 23.8967 13.9934C23.089 13.8558 22.0084 14.2562 21.4882 14.8871C21.3006 15.1147 21.2054 15.3517 21.2145 15.5706L21.2213 15.7891L20.9536 15.7096C20.905 15.6929 20.8457 15.6828 20.7886 15.6731C19.9786 15.535 18.8979 15.9355 18.3792 16.5646C17.8605 17.1937 18.096 17.8182 18.9061 17.9563C19.4477 18.0486 20.1349 17.9019 20.6995 17.5719L20.9563 17.4215L20.9323 17.6116C20.8809 18.0289 21.1866 18.3448 21.7306 18.4374Z" fill="#EE4541"/>
</svg>
