<svg width="31" height="31" viewBox="0 0 31 31" fill="none" xmlns="http://www.w3.org/2000/svg">
<path fill-rule="evenodd" clip-rule="evenodd" d="M10.4902 3.68343C7.63989 4.4361 4.79057 5.81076 1.94092 7.8061C1.78202 7.91789 1.65224 8.06685 1.56263 8.24028C1.47302 8.4137 1.42624 8.60646 1.42628 8.8021C1.42529 11.9844 1.42529 26.3448 1.42529 30.6358C1.42529 30.9579 1.55195 31.2669 1.77739 31.4947C2.00284 31.7225 2.30861 31.8504 2.62744 31.8504H28.6728C28.8307 31.8505 28.987 31.8191 29.1329 31.7581C29.2788 31.697 29.4113 31.6076 29.5229 31.4948C29.6346 31.382 29.7231 31.248 29.7835 31.1006C29.8439 30.9533 29.875 30.7953 29.8749 30.6358V8.80143C29.8749 8.60579 29.8282 8.41304 29.7386 8.23958C29.6491 8.06611 29.5194 7.91706 29.3606 7.8051C26.5103 5.80676 23.6607 4.43176 20.8097 3.68043V2.8371C20.8098 2.56218 20.7176 2.29536 20.5481 2.08028C20.3786 1.86521 20.1419 1.7146 19.8768 1.6531C17.0588 1.02576 14.2418 1.0271 11.4248 1.6571C11.1603 1.7183 10.9242 1.86838 10.7551 2.08279C10.586 2.29721 10.4939 2.56326 10.4938 2.83743C10.4902 3.26843 10.4902 3.68343 10.4902 3.68343Z" fill="#B32A48"/>
<path fill-rule="evenodd" clip-rule="evenodd" d="M1.42529 15.1504V18.5761C1.42529 18.7087 1.47743 18.8358 1.57023 18.9296C1.66303 19.0234 1.7889 19.0761 1.92014 19.0761C2.05138 19.0761 2.17725 19.0234 2.27005 18.9296C2.36285 18.8358 2.41498 18.7087 2.41498 18.5761V15.1504C2.41498 15.0178 2.36285 14.8906 2.27005 14.7968C2.17725 14.7031 2.05138 14.6504 1.92014 14.6504C1.7889 14.6504 1.66303 14.7031 1.57023 14.7968C1.47743 14.8906 1.42529 15.0178 1.42529 15.1504ZM1.42529 20.3631V21.5507C1.42529 21.6833 1.47743 21.8105 1.57023 21.9043C1.66303 21.998 1.7889 22.0507 1.92014 22.0507C2.05138 22.0507 2.17725 21.998 2.27005 21.9043C2.36285 21.8105 2.41498 21.6833 2.41498 21.5507V20.3631C2.41498 20.2304 2.36285 20.1033 2.27005 20.0095C2.17725 19.9157 2.05138 19.8631 1.92014 19.8631C1.7889 19.8631 1.66303 19.9157 1.57023 20.0095C1.47743 20.1033 1.42529 20.2304 1.42529 20.3631Z" fill="white" fill-opacity="0.12"/>
<path fill-rule="evenodd" clip-rule="evenodd" d="M24.7074 31.8395C24.521 23.3008 25.1729 15.9318 27.3132 10.5992C27.3626 10.4763 27.3616 10.3386 27.3105 10.2165C27.2594 10.0943 27.1624 9.99768 27.0408 9.94782C26.9191 9.89796 26.7829 9.89896 26.662 9.95059C26.5411 10.0022 26.4455 10.1003 26.3961 10.2232C24.2155 15.6565 23.528 23.1618 23.718 31.8615C23.7186 31.9277 23.7322 31.9932 23.758 32.0541C23.7838 32.1149 23.8213 32.17 23.8683 32.2161C23.9154 32.2623 23.971 32.2985 24.032 32.3227C24.0931 32.3469 24.1582 32.3586 24.2237 32.3571C24.2893 32.3557 24.3539 32.3411 24.4138 32.3142C24.4737 32.2873 24.5277 32.2486 24.5727 32.2005C24.6177 32.1523 24.6528 32.0956 24.6759 32.0336C24.699 31.9717 24.7097 31.9057 24.7074 31.8395ZM7.77676 31.8615C7.96678 23.1618 7.27927 15.6565 5.09865 10.2232C5.04625 10.1048 4.95043 10.0117 4.83139 9.9633C4.71235 9.91494 4.57938 9.91515 4.46049 9.96389C4.3416 10.0126 4.24607 10.1061 4.19404 10.2246C4.14201 10.3431 4.13752 10.4774 4.18154 10.5992C6.32158 15.9318 6.97379 23.3008 6.78739 31.8395C6.78629 31.9709 6.83645 32.0975 6.92702 32.1919C7.01759 32.2862 7.14128 32.3407 7.27133 32.3436C7.40139 32.3465 7.52733 32.2975 7.62192 32.2073C7.71651 32.1171 7.77214 31.9928 7.77676 31.8615Z" fill="#98243D"/>
<path fill-rule="evenodd" clip-rule="evenodd" d="M14.917 1.19809C16.0865 1.24489 17.2495 1.39717 18.3921 1.65309C18.6573 1.71459 18.8941 1.86518 19.0636 2.08025C19.2331 2.29532 19.3254 2.56214 19.3254 2.83709V3.68042C22.176 4.43176 25.0257 5.80676 27.876 7.80509C28.0348 7.91706 28.1645 8.06611 28.254 8.23957C28.3435 8.41304 28.3903 8.60578 28.3903 8.80142V30.6358C28.3903 30.9578 28.2637 31.2668 28.0383 31.4945C27.813 31.7223 27.5073 31.8503 27.1885 31.8504H28.6727C28.8306 31.8505 28.9869 31.8191 29.1328 31.7581C29.2787 31.697 29.4112 31.6076 29.5228 31.4948C29.6345 31.382 29.723 31.248 29.7834 31.1006C29.8438 30.9533 29.8749 30.7953 29.8748 30.6358V8.80142C29.8748 8.60578 29.8281 8.41304 29.7385 8.23957C29.649 8.06611 29.5193 7.91706 29.3605 7.80509C26.5102 5.80676 23.6606 4.43176 20.8096 3.68042V2.83709C20.8097 2.56217 20.7175 2.29536 20.548 2.08028C20.3785 1.8652 20.1418 1.7146 19.8767 1.65309C18.2229 1.28509 16.5698 1.13342 14.917 1.19809Z" fill="black" fill-opacity="0.15"/>
<path fill-rule="evenodd" clip-rule="evenodd" d="M29.8749 28.7754H1.42029V30.6354C1.42038 30.9575 1.54706 31.2664 1.77248 31.4942C1.99791 31.722 2.30363 31.85 2.62243 31.8501H28.6727C28.9916 31.8501 29.2973 31.7221 29.5228 31.4943C29.7482 31.2665 29.8749 30.9575 29.8749 30.6354V28.7754Z" fill="#C65F76"/>
<path fill-rule="evenodd" clip-rule="evenodd" d="M28.7499 28.7754V29.4987C28.7499 29.8208 28.6232 30.1297 28.3977 30.3574C28.1723 30.5851 27.8666 30.7131 27.5478 30.7131H1.49749C1.47251 30.7131 1.44754 30.7123 1.42261 30.7107C1.44166 31.0192 1.57635 31.3088 1.79926 31.5204C2.02217 31.7321 2.31654 31.85 2.62244 31.8501H28.6728C28.9916 31.8501 29.2973 31.7221 29.5228 31.4943C29.7482 31.2665 29.8749 30.9575 29.8749 30.6354V28.7754H28.7499Z" fill="#F20D0D" fill-opacity="0.15"/>
<path fill-rule="evenodd" clip-rule="evenodd" d="M10.8847 1.94276C10.8204 2.0021 13.0221 2.3291 14.0329 3.9781C14.9173 5.42143 14.531 8.21743 15.6698 8.21776C15.8358 8.21776 16.0185 5.62776 17.2246 3.9781C18.3034 2.5031 20.4283 1.9491 20.4213 1.94276C20.2678 1.79998 20.0801 1.70014 19.8767 1.6531C17.0587 1.02576 14.2417 1.0271 11.4247 1.6571C11.2233 1.70353 11.0372 1.80195 10.8847 1.94276ZM15.1552 31.8504H16.1449V9.03376C16.1449 8.90115 16.0928 8.77398 15.9999 8.68021C15.9071 8.58644 15.7813 8.53376 15.65 8.53376C15.5188 8.53376 15.3929 8.58644 15.3001 8.68021C15.2073 8.77398 15.1552 8.90115 15.1552 9.03376V31.8504Z" fill="#98243D"/>
<path fill-rule="evenodd" clip-rule="evenodd" d="M11.5356 1.63281C11.4986 1.64073 11.4617 1.64884 11.4247 1.65715C11.2562 1.69607 11.0981 1.7714 10.9611 1.87797C10.8241 1.98453 10.7116 2.1198 10.6313 2.27448C10.6584 2.29715 10.6881 2.31715 10.7207 2.33381L13.4662 3.75948C13.6423 3.85081 13.7726 4.01281 13.8251 4.20581L15.1727 9.16615C15.2111 9.28971 15.2955 9.39339 15.408 9.4554C15.5206 9.5174 15.6525 9.53289 15.7762 9.49861C15.8998 9.46433 16.0054 9.38295 16.0709 9.27159C16.1363 9.16022 16.1565 9.02755 16.1271 8.90148L14.7795 3.94115C14.7172 3.71206 14.6085 3.49854 14.4603 3.31412C14.3121 3.1297 14.1276 2.9784 13.9184 2.86981L11.5356 1.63281Z" fill="#C65F76"/>
<path fill-rule="evenodd" clip-rule="evenodd" d="M6.33346 13.7725H24.9921C25.1223 13.7713 25.2467 13.718 25.3381 13.6243C25.4294 13.5305 25.4802 13.404 25.4794 13.2725C25.4794 12.9965 25.261 12.7725 24.9921 12.7725H6.33346C6.20327 12.7736 6.07884 12.8269 5.98749 12.9206C5.89614 13.0144 5.84532 13.1409 5.8462 13.2725C5.8462 13.5485 6.06459 13.7725 6.33346 13.7725Z" fill="#EBEBEB"/>
<path fill-rule="evenodd" clip-rule="evenodd" d="M8.91355 11.2432H12.067C12.1983 11.2432 12.3241 11.1905 12.4169 11.0967C12.5097 11.0029 12.5619 10.8758 12.5619 10.7432C12.5619 10.6106 12.5097 10.4834 12.4169 10.3896C12.3241 10.2958 12.1983 10.2432 12.067 10.2432H8.91355C8.78231 10.2432 8.65644 10.2958 8.56364 10.3896C8.47084 10.4834 8.4187 10.6106 8.4187 10.7432C8.4187 10.8758 8.47084 11.0029 8.56364 11.0967C8.65644 11.1905 8.78231 11.2432 8.91355 11.2432Z" fill="#C65F76"/>
<path fill-rule="evenodd" clip-rule="evenodd" d="M22.9362 31.8506H23.9259V31.8396C23.7391 23.3009 24.3913 15.9319 26.5317 10.5989C26.5791 10.4764 26.5767 10.34 26.5253 10.2192C26.4738 10.0985 26.3773 10.003 26.2567 9.95362C26.1361 9.90422 26.0011 9.90481 25.8809 9.95527C25.7607 10.0057 25.665 10.102 25.6146 10.2232C23.4346 15.6546 22.7468 23.1556 22.9362 31.8506ZM7.37426 31.8506H8.36396C8.55332 23.1556 7.86548 15.6546 5.68552 10.2232C5.63509 10.102 5.53942 10.0057 5.41924 9.95527C5.29906 9.90481 5.16404 9.90422 5.04343 9.95362C4.92282 10.003 4.82633 10.0985 4.77485 10.2192C4.72337 10.34 4.72106 10.4764 4.76841 10.5989C6.90878 15.9319 7.56066 23.3009 7.37426 31.8396V31.8506Z" fill="#98243D"/>
<path fill-rule="evenodd" clip-rule="evenodd" d="M19.7701 1.62988L17.3814 2.86988C17.1723 2.97853 16.9879 3.12985 16.8397 3.31426C16.6916 3.49868 16.5829 3.71217 16.5207 3.94122L15.1727 8.90155C15.1385 9.02925 15.1558 9.16545 15.2208 9.28031C15.2857 9.39516 15.3931 9.47931 15.5194 9.51433C15.6457 9.54934 15.7805 9.53237 15.8944 9.46712C16.0083 9.40187 16.092 9.29367 16.1271 9.16622L17.4751 4.20588C17.501 4.11042 17.5463 4.02144 17.6081 3.94461C17.6699 3.86777 17.7468 3.80475 17.834 3.75955L20.5794 2.33388C20.613 2.31655 20.644 2.29555 20.6718 2.27188C20.5912 2.11696 20.4784 1.98147 20.3412 1.87469C20.204 1.76791 20.0455 1.69236 19.8767 1.65322C19.8412 1.64528 19.8057 1.6375 19.7701 1.62988Z" fill="#C65F76"/>
<path fill-rule="evenodd" clip-rule="evenodd" d="M7.86682 32.3505H28.6705C28.8933 32.3505 29.114 32.3062 29.3199 32.22C29.5258 32.1339 29.7129 32.0076 29.8705 31.8484C30.0281 31.6891 30.1531 31.5001 30.2384 31.292C30.3236 31.084 30.3675 30.861 30.3674 30.6358V8.80147C30.3674 8.52531 30.3014 8.25323 30.175 8.00839C30.0486 7.76354 29.8655 7.55316 29.6413 7.39514L29.6403 7.39447C26.8613 5.4458 24.0816 4.0818 21.3022 3.29747V2.83714C21.3022 2.44904 21.172 2.07241 20.9327 1.76882C20.6934 1.46523 20.3593 1.25264 19.9849 1.1658L19.9806 1.1648C17.0917 0.521804 14.2035 0.523138 11.3152 1.16914L11.3116 1.1698C10.9385 1.25624 10.6053 1.46787 10.3665 1.77019C10.1277 2.07251 9.99732 2.44766 9.99664 2.83447C9.99532 2.9998 9.99433 3.16247 9.994 3.3008C7.21462 4.0858 4.43523 5.44947 1.65684 7.39514L1.65585 7.3958C1.43142 7.55362 1.24809 7.76393 1.12148 8.0088C0.994877 8.25368 0.928757 8.52586 0.92876 8.80214C0.928101 11.9845 0.928101 26.3448 0.928101 30.6358C0.928188 31.0905 1.10696 31.5265 1.42512 31.848C1.74327 32.1696 2.17477 32.3503 2.62476 32.3505H5.90064C6.03188 32.3505 6.15774 32.2978 6.25055 32.204C6.34335 32.1103 6.39548 31.9831 6.39548 31.8505C6.39548 31.7179 6.34335 31.5907 6.25055 31.4969C6.15774 31.4032 6.03188 31.3505 5.90064 31.3505H2.62476C2.53189 31.3505 2.43993 31.332 2.35414 31.2961C2.26834 31.2601 2.19039 31.2075 2.12474 31.1411C2.05909 31.0748 2.00702 30.996 1.97151 30.9093C1.936 30.8226 1.91775 30.7296 1.91779 30.6358C1.91779 26.3448 1.91779 11.9848 1.91845 8.80247V8.80214C1.91845 8.5688 2.03161 8.35014 2.22097 8.2168C5.01849 6.2578 7.8147 4.90647 10.6129 4.16747C10.7188 4.13953 10.8125 4.0769 10.8794 3.98938C10.9464 3.90186 10.9827 3.7944 10.9827 3.6838C10.9827 3.6838 10.9827 3.27047 10.9863 2.8418V2.83747C10.9863 2.50647 11.2126 2.21947 11.5316 2.1448C14.2757 1.53147 17.0201 1.53047 19.7649 2.1408C19.9206 2.17727 20.0595 2.26595 20.159 2.39241C20.2584 2.51886 20.3125 2.67562 20.3125 2.83714V3.68047C20.3125 3.79106 20.3489 3.89853 20.4158 3.98605C20.4827 4.07356 20.5764 4.13619 20.6823 4.16414C23.4808 4.90214 26.2774 6.2538 29.0752 8.21547C29.2646 8.34914 29.3778 8.56814 29.3778 8.80147V30.6358C29.3778 30.7297 29.3595 30.8226 29.324 30.9093C29.2885 30.9961 29.2364 31.0749 29.1707 31.1412C29.105 31.2076 29.027 31.2603 28.9412 31.2962C28.8553 31.3321 28.7633 31.3505 28.6705 31.3505H7.86682C7.73558 31.3505 7.60972 31.4032 7.51691 31.4969C7.42411 31.5907 7.37198 31.7179 7.37198 31.8505C7.37198 31.9831 7.42411 32.1103 7.51691 32.204C7.60972 32.2978 7.73558 32.3505 7.86682 32.3505Z" fill="black"/>
<path fill-rule="evenodd" clip-rule="evenodd" d="M10.7184 2.33451L13.4638 3.75984C13.64 3.85117 13.7699 4.01317 13.8224 4.20617L15.1704 9.16651C15.2055 9.29396 15.2891 9.40216 15.403 9.46741C15.5169 9.53266 15.6518 9.54963 15.7781 9.51462C15.9043 9.4796 16.0117 9.39545 16.0767 9.2806C16.1417 9.16574 16.159 9.02954 16.1248 8.90184L14.7768 3.94151C14.7146 3.71248 14.606 3.49901 14.4578 3.31464C14.3096 3.13028 14.1252 2.97903 13.9161 2.87051L11.1707 1.44484C11.0545 1.38909 10.9213 1.38123 10.7995 1.42292C10.6776 1.46461 10.5766 1.55258 10.5178 1.66821C10.4591 1.78383 10.4471 1.91804 10.4846 2.0424C10.522 2.16677 10.6059 2.27153 10.7184 2.33451Z" fill="black"/>
<path fill-rule="evenodd" clip-rule="evenodd" d="M20.1245 1.444L17.3791 2.86967C17.17 2.9782 16.9856 3.12944 16.8374 3.31381C16.6892 3.49817 16.5806 3.71164 16.5184 3.94067L15.1705 8.901C15.153 8.96441 15.1481 9.03067 15.156 9.09599C15.164 9.16131 15.1846 9.2244 15.2167 9.28165C15.2488 9.33891 15.2918 9.38918 15.3432 9.42961C15.3946 9.47004 15.4534 9.49981 15.5162 9.51723C15.579 9.53465 15.6446 9.53937 15.7092 9.53111C15.7739 9.52286 15.8362 9.5018 15.8928 9.46914C15.9493 9.43647 15.9989 9.39286 16.0388 9.34078C16.0786 9.2887 16.1078 9.2292 16.1249 9.16567L17.4728 4.20534C17.4987 4.10989 17.544 4.02093 17.6057 3.94409C17.6674 3.86726 17.7443 3.80423 17.8314 3.759L20.5771 2.33367C20.635 2.30364 20.6863 2.2624 20.7284 2.2123C20.7704 2.1622 20.8023 2.10423 20.8222 2.04169C20.842 1.97915 20.8495 1.91327 20.8442 1.84781C20.8388 1.78235 20.8208 1.71859 20.7911 1.66017C20.7614 1.60175 20.7205 1.54982 20.671 1.50735C20.6214 1.46487 20.564 1.43267 20.5021 1.4126C20.4402 1.39253 20.375 1.38497 20.3102 1.39036C20.2454 1.39575 20.1823 1.41397 20.1245 1.444Z" fill="black"/>
<path fill-rule="evenodd" clip-rule="evenodd" d="M15.1529 9.03418V31.8508C15.1529 31.9835 15.2051 32.1106 15.2979 32.2044C15.3907 32.2982 15.5165 32.3508 15.6478 32.3508C15.779 32.3508 15.9049 32.2982 15.9977 32.2044C16.0905 32.1106 16.1426 31.9835 16.1426 31.8508V9.03418C16.1426 8.90157 16.0905 8.77439 15.9977 8.68063C15.9049 8.58686 15.779 8.53418 15.6478 8.53418C15.5165 8.53418 15.3907 8.58686 15.2979 8.68063C15.2051 8.77439 15.1529 8.90157 15.1529 9.03418ZM23.9232 31.8398C23.7369 23.3012 24.3891 15.9322 26.5294 10.5995C26.575 10.4774 26.5715 10.3421 26.5197 10.2225C26.4679 10.1029 26.3719 10.0085 26.2522 9.95949C26.1325 9.91043 25.9985 9.91058 25.8789 9.9599C25.7593 10.0092 25.6635 10.1038 25.612 10.2235C23.4314 15.6568 22.7439 23.1622 22.9339 31.8618C22.9385 31.9932 22.9941 32.1174 23.0887 32.2077C23.1833 32.2979 23.3093 32.3469 23.4393 32.344C23.5694 32.3411 23.6931 32.2866 23.7836 32.1922C23.8742 32.0979 23.9244 31.9713 23.9232 31.8398ZM8.36135 31.8618C8.55137 23.1622 7.86387 15.6568 5.68325 10.2235C5.63084 10.1052 5.53503 10.012 5.41598 9.96366C5.29694 9.91529 5.16397 9.91551 5.04508 9.96425C4.92619 10.013 4.83067 10.1065 4.77863 10.225C4.7266 10.3435 4.72212 10.4777 4.76613 10.5995C6.90617 15.9322 7.55838 23.3012 7.37199 31.8398C7.37088 31.9713 7.42104 32.0979 7.51161 32.1922C7.60218 32.2866 7.72588 32.3411 7.85593 32.344C7.98598 32.3469 8.11193 32.2979 8.20652 32.2077C8.30111 32.1174 8.35673 31.9932 8.36135 31.8618Z" fill="black"/>
<path fill-rule="evenodd" clip-rule="evenodd" d="M7.8968 28.2762H3.16245C3.03121 28.2762 2.90534 28.3288 2.81254 28.4226C2.71974 28.5164 2.6676 28.6436 2.6676 28.7762C2.6676 28.9088 2.71974 29.0359 2.81254 29.1297C2.90534 29.2235 3.03121 29.2762 3.16245 29.2762H7.8968C8.02804 29.2762 8.1539 29.2235 8.24671 29.1297C8.33951 29.0359 8.39164 28.9088 8.39164 28.7762C8.39164 28.6436 8.33951 28.5164 8.24671 28.4226C8.1539 28.3288 8.02804 28.2762 7.8968 28.2762ZM23.399 28.2762H9.62909C9.49785 28.2762 9.37198 28.3288 9.27918 28.4226C9.18638 28.5164 9.13424 28.6436 9.13424 28.7762C9.13424 28.9088 9.18638 29.0359 9.27918 29.1297C9.37198 29.2235 9.49785 29.2762 9.62909 29.2762H23.399C23.5302 29.2762 23.6561 29.2235 23.7489 29.1297C23.8417 29.0359 23.8938 28.9088 23.8938 28.7762C23.8938 28.6436 23.8417 28.5164 23.7489 28.4226C23.6561 28.3288 23.5302 28.2762 23.399 28.2762ZM29.8726 28.2762H25.1382C25.007 28.2762 24.8811 28.3288 24.7883 28.4226C24.6955 28.5164 24.6434 28.6436 24.6434 28.7762C24.6434 28.9088 24.6955 29.0359 24.7883 29.1297C24.8811 29.2235 25.007 29.2762 25.1382 29.2762H29.8726C30.0038 29.2762 30.1297 29.2235 30.2225 29.1297C30.3153 29.0359 30.3674 28.9088 30.3674 28.7762C30.3674 28.6436 30.3153 28.5164 30.2225 28.4226C30.1297 28.3288 30.0038 28.2762 29.8726 28.2762ZM8.91123 11.2432H12.0647C12.196 11.2432 12.3218 11.1905 12.4146 11.0967C12.5074 11.0029 12.5596 10.8758 12.5596 10.7432C12.5596 10.6106 12.5074 10.4834 12.4146 10.3896C12.3218 10.2958 12.196 10.2432 12.0647 10.2432H8.91123C8.77999 10.2432 8.65412 10.2958 8.56132 10.3896C8.46852 10.4834 8.41639 10.6106 8.41639 10.7432C8.41639 10.8758 8.46852 11.0029 8.56132 11.0967C8.65412 11.1905 8.77999 11.2432 8.91123 11.2432Z" fill="black"/>
</svg>
