<svg width="33" height="33" viewBox="0 0 33 33" fill="none" xmlns="http://www.w3.org/2000/svg">
<path d="M31.2953 22.7891L22.28 4.46972C22.0949 4.09363 21.7964 3.78515 21.4266 3.58779C21.0568 3.39043 20.6344 3.31415 20.219 3.36972L11.889 4.50472C11.7771 4.51995 11.6737 4.5726 11.5955 4.65408C11.5174 4.73557 11.4691 4.8411 11.4586 4.95351C11.4481 5.06591 11.4759 5.17857 11.5375 5.27315C11.5992 5.36773 11.691 5.43867 11.7981 5.47442L19.776 8.13517C19.9747 8.20059 20.1475 8.32728 20.2698 8.49705C20.392 8.66683 20.4573 8.87097 20.4564 9.08017V29.4802C20.4436 29.5702 20.4557 29.662 20.4913 29.7456C20.5268 29.8293 20.5845 29.9017 20.6581 29.955C20.7317 30.0083 20.8185 30.0406 20.9091 30.0483C20.9997 30.056 21.0906 30.0389 21.1722 29.9987L30.3822 25.469C30.8581 25.2341 31.2215 24.8201 31.3927 24.3177C31.5638 23.8154 31.5288 23.2656 31.2953 22.7891Z" fill="#318FB5"/>
<path d="M20.0896 7.18561L12.1146 4.52561C12.0119 4.49146 11.9009 4.49146 11.7982 4.52561L3.82596 7.18476C3.42669 7.31535 3.07907 7.56909 2.83299 7.90955C2.58692 8.25001 2.45505 8.65968 2.45631 9.07976V29.4998C2.45688 30.03 2.66777 30.5384 3.04272 30.9133C3.41767 31.2883 3.92605 31.4992 4.45631 31.4998H19.4563C19.9695 31.5038 20.4642 31.3084 20.8361 30.9547C21.208 30.6011 21.4281 30.1169 21.45 29.6041C21.4546 29.5695 21.4568 29.5347 21.4563 29.4998V9.07976C21.4577 8.66016 21.3263 8.25089 21.0807 7.91061C20.8352 7.57034 20.4883 7.31654 20.0896 7.18561Z" fill="#B0CAC7"/>
<path d="M8.84324 20.2722C9.39483 20.2717 9.92917 20.0799 10.3552 19.7296C10.7813 19.3793 11.0727 18.8922 11.1799 18.3511C11.2871 17.81 11.2033 17.2485 10.943 16.7623C10.6826 16.276 10.2617 15.8951 9.75195 15.6843C9.24221 15.4736 8.67518 15.4461 8.14744 15.6065C7.6197 15.7669 7.16391 16.1054 6.8577 16.5641C6.5515 17.0229 6.41382 17.5737 6.46813 18.1226C6.52244 18.6715 6.76537 19.1846 7.15555 19.5745C7.37704 19.7962 7.64016 19.972 7.92979 20.0917C8.21941 20.2114 8.52984 20.2728 8.84324 20.2722ZM16.7573 22.4249C16.3669 22.0343 15.853 21.7912 15.3034 21.7371C14.7538 21.6829 14.2024 21.8209 13.7431 22.1277C13.2839 22.4345 12.9453 22.8911 12.7849 23.4196C12.6246 23.9481 12.6524 24.5158 12.8638 25.0261C13.0751 25.5364 13.4569 25.9575 13.9439 26.2179C14.431 26.4782 14.9933 26.5616 15.535 26.4539C16.0767 26.3461 16.5642 26.0538 16.9145 25.6269C17.2649 25.1999 17.4563 24.6647 17.4563 24.1124C17.456 23.4795 17.2046 22.8727 16.7573 22.4249ZM16.7573 16.199C16.6636 16.1052 16.5364 16.0525 16.4038 16.0525C16.2712 16.0525 16.1441 16.1052 16.0503 16.199L7.15555 25.0935C7.10779 25.1396 7.0697 25.1948 7.04349 25.2558C7.01729 25.3168 7.0035 25.3824 7.00292 25.4488C7.00234 25.5152 7.01499 25.581 7.04013 25.6425C7.06527 25.7039 7.1024 25.7598 7.14935 25.8067C7.19629 25.8537 7.25212 25.8908 7.31357 25.9159C7.37502 25.9411 7.44086 25.9537 7.50725 25.9531C7.57363 25.9526 7.63925 25.9388 7.70025 25.9126C7.76125 25.8864 7.81642 25.8483 7.86254 25.8005L16.7575 16.906C16.8513 16.8122 16.9039 16.685 16.9039 16.5525C16.9038 16.4199 16.8511 16.2927 16.7573 16.199Z" fill="#F7D6BF"/>
<path d="M11.9565 12C13.0611 12 13.9565 11.1046 13.9565 10C13.9565 8.89543 13.0611 8 11.9565 8C10.852 8 9.95654 8.89543 9.95654 10C9.95654 11.1046 10.852 12 11.9565 12Z" fill="#F7D6BF"/>
<path d="M31.295 22.7892L22.2797 4.46981C22.0947 4.09372 21.7962 3.78522 21.4264 3.58786C21.0566 3.39049 20.6342 3.31422 20.2187 3.36981L11.8887 4.50481C11.873 4.50701 11.86 4.51516 11.8448 4.51871C11.8296 4.52226 11.8131 4.52126 11.7979 4.52631L7.67646 5.90066L2.31246 1.60946C2.26116 1.56846 2.20229 1.53796 2.13921 1.5197C2.07612 1.50145 2.01006 1.4958 1.94479 1.50308C1.81298 1.51778 1.6924 1.58424 1.60959 1.68784C1.52677 1.79144 1.48851 1.92369 1.5032 2.05551C1.5179 2.18732 1.58436 2.3079 1.68796 2.39071L6.54651 6.27756L3.82561 7.18516C3.42635 7.31576 3.07874 7.5695 2.83268 7.90996C2.58661 8.25042 2.45475 8.66009 2.45601 9.08016V29.5002C2.45657 30.0304 2.66746 30.5388 3.04241 30.9138C3.41736 31.2887 3.92575 31.4996 4.45601 31.5002H19.456C19.92 31.5029 20.3701 31.3422 20.7274 31.0462C21.0847 30.7503 21.3264 30.3379 21.41 29.8815L30.3819 25.4688C30.8578 25.234 31.2211 24.8201 31.3923 24.3177C31.5635 23.8154 31.5285 23.2657 31.295 22.7892ZM20.456 29.4802C20.4534 29.4993 20.4518 29.5185 20.4514 29.5378C20.4452 29.7968 20.3373 30.043 20.1511 30.2231C19.9648 30.4032 19.7151 30.5027 19.456 30.5002H4.45601C4.19089 30.4999 3.93671 30.3944 3.74924 30.2069C3.56177 30.0195 3.45632 29.7653 3.45601 29.5002V9.08016C3.45523 8.8705 3.52096 8.66599 3.64375 8.49604C3.76654 8.3261 3.94006 8.19947 4.13936 8.13436L7.47616 7.02131L10.148 9.15871C10.0228 9.42166 9.95731 9.70897 9.95601 10.0002C9.95246 10.4538 10.102 10.8953 10.3805 11.2534C10.6589 11.6115 11.05 11.8652 11.4905 11.9735C11.931 12.0818 12.3952 12.0384 12.8079 11.8502C13.2207 11.6621 13.5579 11.3402 13.7651 10.9367C13.9723 10.5331 14.0373 10.0715 13.9497 9.62646C13.862 9.18139 13.6268 8.77889 13.2821 8.48404C12.9374 8.18919 12.5033 8.01922 12.05 8.00161C11.5968 7.984 11.1508 8.11979 10.7843 8.38701L8.60611 6.64446L11.9561 5.52706L19.7756 8.13516C19.9743 8.20058 20.1472 8.32726 20.2694 8.49704C20.3917 8.66681 20.457 8.87095 20.456 9.08016V29.4802ZM12.3125 9.60946L11.6262 9.06046C11.7319 9.0217 11.8434 9.00131 11.956 9.00016C12.1647 8.99783 12.369 9.06014 12.5409 9.17852C12.7128 9.29691 12.8439 9.46559 12.9161 9.66141C12.9884 9.85723 12.9983 10.0706 12.9444 10.2723C12.8906 10.4739 12.7757 10.654 12.6155 10.7878C12.4553 10.9216 12.2576 11.0025 12.0495 11.0195C11.8415 11.0364 11.6333 10.9886 11.4535 10.8826C11.2738 10.7766 11.1312 10.6175 11.0454 10.4272C10.9596 10.237 10.9347 10.0248 10.9743 9.81986L11.688 10.3908C11.7916 10.4736 11.9238 10.5119 12.0556 10.4972C12.1874 10.4825 12.308 10.416 12.3908 10.3124C12.4737 10.2088 12.5119 10.0766 12.4972 9.94477C12.4825 9.81295 12.4161 9.69228 12.3125 9.60946ZM29.9409 24.5714L21.456 28.7442V9.08016C21.4574 8.66058 21.3259 8.25132 21.0804 7.91107C20.8349 7.57081 20.488 7.31703 20.0893 7.18611L14.1521 5.20566L20.3521 4.36091C20.5597 4.33314 20.7709 4.37128 20.9557 4.46997C21.1405 4.56866 21.2896 4.72289 21.3821 4.91091L30.3971 23.2298C30.514 23.4682 30.5317 23.7434 30.4462 23.9948C30.3607 24.2463 30.179 24.4536 29.9409 24.5714Z" fill="#096293"/>
<path d="M8.84296 20.2722C9.39453 20.2716 9.92884 20.0799 10.3549 19.7295C10.7809 19.3792 11.0723 18.892 11.1794 18.351C11.2866 17.8099 11.2028 17.2484 10.9424 16.7622C10.682 16.2759 10.2611 15.895 9.7514 15.6843C9.24167 15.4736 8.67465 15.4461 8.14692 15.6065C7.6192 15.7669 7.16342 16.1054 6.85722 16.5641C6.55102 17.0229 6.41334 17.5737 6.46764 18.1225C6.52194 18.6714 6.76485 19.1845 7.15501 19.5744C7.37653 19.7962 7.63969 19.972 7.92936 20.0917C8.21903 20.2115 8.52951 20.2728 8.84296 20.2722ZM7.86226 16.906C8.08916 16.6789 8.38779 16.5375 8.70725 16.5059C9.02671 16.4743 9.34724 16.5545 9.61422 16.7328C9.8812 16.911 10.0781 17.1763 10.1714 17.4835C10.2647 17.7907 10.2486 18.1207 10.1258 18.4173C10.003 18.7139 9.7812 18.9588 9.49813 19.1102C9.21505 19.2616 8.88824 19.3101 8.57337 19.2476C8.25851 19.185 7.97508 19.0152 7.77138 18.7671C7.56767 18.519 7.45631 18.2079 7.45626 17.8869C7.4559 17.7047 7.49159 17.5242 7.56127 17.3559C7.63094 17.1875 7.73324 17.0346 7.86226 16.906ZM13.3816 22.4248C13.0478 22.7586 12.8205 23.1839 12.7284 23.6469C12.6363 24.1099 12.6836 24.5897 12.8642 25.0259C13.0449 25.462 13.3508 25.8347 13.7433 26.097C14.1358 26.3592 14.5972 26.4992 15.0693 26.4992C15.5413 26.4992 16.0028 26.3592 16.3953 26.097C16.7878 25.8347 17.0937 25.462 17.2743 25.0259C17.455 24.5897 17.5023 24.1099 17.4102 23.6469C17.3181 23.1839 17.0908 22.7586 16.757 22.4248C16.5365 22.2012 16.2737 22.0237 15.984 21.9025C15.6943 21.7813 15.3833 21.7189 15.0693 21.7189C14.7552 21.7189 14.4443 21.7813 14.1546 21.9025C13.8648 22.0237 13.6021 22.2012 13.3816 22.4248ZM16.05 25.0935C15.8231 25.3205 15.5245 25.4619 15.205 25.4935C14.8856 25.5251 14.5651 25.4449 14.2981 25.2666C14.0311 25.0884 13.8343 24.8231 13.741 24.5159C13.6477 24.2088 13.6638 23.8788 13.7866 23.5822C13.9093 23.2856 14.1311 23.0407 14.4142 22.8893C14.6973 22.7379 15.0241 22.6894 15.3389 22.7519C15.6538 22.8145 15.9372 22.9843 16.1409 23.2324C16.3446 23.4805 16.4559 23.7915 16.456 24.1125C16.4559 24.4804 16.3099 24.8331 16.05 25.0935ZM16.757 16.199C16.7106 16.1525 16.6555 16.1157 16.5948 16.0905C16.5342 16.0654 16.4692 16.0524 16.4035 16.0524C16.3378 16.0524 16.2728 16.0654 16.2122 16.0905C16.1515 16.1157 16.0964 16.1525 16.05 16.199L7.15501 25.0935C7.10761 25.1397 7.06986 25.1948 7.04395 25.2557C7.01804 25.3167 7.00448 25.3821 7.00406 25.4483C7.00364 25.5145 7.01637 25.5801 7.04151 25.6413C7.06665 25.7026 7.10369 25.7582 7.1505 25.805C7.1973 25.8518 7.25294 25.8889 7.31417 25.914C7.37541 25.9392 7.44103 25.9519 7.50722 25.9515C7.57341 25.951 7.63886 25.9375 7.69977 25.9116C7.76069 25.8857 7.81585 25.8479 7.86206 25.8005L16.7571 16.906C16.8035 16.8596 16.8403 16.8044 16.8655 16.7438C16.8906 16.6831 16.9036 16.6181 16.9036 16.5525C16.9035 16.4868 16.8906 16.4218 16.8655 16.3611C16.8403 16.3005 16.8035 16.2454 16.757 16.199Z" fill="#096293"/>
</svg>
