<svg width="18" height="32" viewBox="0 0 18 32" fill="none" xmlns="http://www.w3.org/2000/svg">
<path opacity="0.15" d="M10.1674 31.9C14.2911 31.9 17.634 31.3926 17.634 30.7666C17.634 30.1407 14.2911 29.6333 10.1674 29.6333C6.04362 29.6333 2.70068 30.1407 2.70068 30.7666C2.70068 31.3926 6.04362 31.9 10.1674 31.9Z" fill="#45413C"/>
<path d="M16.234 29.3669C15.834 28.6336 14.034 28.1002 11.634 27.9002C11.3007 27.9002 11.1007 27.6336 11.1007 27.3002V22.5669H9.36737V27.3002C9.36737 27.6336 9.10071 27.8336 8.83404 27.9002C6.43404 28.0336 4.56737 28.6336 4.23404 29.3669C4.16737 29.5002 4.23404 29.7002 4.36737 29.7669C4.96737 30.0336 6.76737 30.8336 10.3007 30.8336C13.834 30.8336 15.634 30.1002 16.234 29.7669C16.234 29.7002 16.3007 29.5002 16.234 29.3669Z" fill="#00B8F0" stroke="#45413C" stroke-miterlimit="10" stroke-linecap="round" stroke-linejoin="round"/>
<path d="M15.4341 6.89994C15.4341 6.23327 13.1007 5.7666 10.1674 5.7666C7.23406 5.7666 4.90072 6.29994 4.90072 6.89994L4.03406 17.6999C4.03406 21.0999 6.76739 23.8333 10.1674 23.8333C13.5674 23.8333 16.3007 21.0999 16.3007 17.6999L15.4341 6.89994Z" fill="#00B8F0"/>
<path d="M15.6341 9.6335L15.4341 6.96683C15.4341 6.30016 13.1007 5.8335 10.1674 5.8335C7.23406 5.8335 4.90072 6.36683 4.90072 6.96683L4.03406 17.7668C4.03406 18.7668 4.30072 19.7668 4.70072 20.5668C4.70072 20.5668 8.36739 18.9002 11.3007 15.7002C14.2341 12.5002 15.6341 9.6335 15.6341 9.6335Z" fill="#4ACFFF"/>
<path d="M10.1674 8.03327C13.0761 8.03327 15.4341 7.52586 15.4341 6.89994C15.4341 6.27401 13.0761 5.7666 10.1674 5.7666C7.25872 5.7666 4.90076 6.27401 4.90076 6.89994C4.90076 7.52586 7.25872 8.03327 10.1674 8.03327Z" fill="#00B8F0"/>
<path d="M15.4341 6.89994C15.4341 6.23327 13.1007 5.7666 10.1674 5.7666C7.23406 5.7666 4.90072 6.29994 4.90072 6.89994L4.03406 17.6999C4.03406 21.0999 6.76739 23.8333 10.1674 23.8333C13.5674 23.8333 16.3007 21.0999 16.3007 17.6999L15.4341 6.89994Z" stroke="#45413C" stroke-miterlimit="10" stroke-linecap="round" stroke-linejoin="round"/>
<path d="M15.4341 6.8999C15.4341 7.56657 13.1008 8.03324 10.1674 8.03324C7.23409 8.03324 4.90076 7.4999 4.90076 6.8999" stroke="#45413C" stroke-miterlimit="10" stroke-linecap="round" stroke-linejoin="round"/>
<path d="M2.50074 8.56676C2.16741 8.76676 1.76741 8.63343 1.63408 8.3001C0.96741 6.63343 1.56741 4.7001 3.16741 3.7001C4.76741 2.7001 6.76741 3.03343 7.96741 4.36676C8.23408 4.63343 8.10074 5.03343 7.83408 5.23343L2.50074 8.56676Z" fill="#6DD627" stroke="#45413C" stroke-miterlimit="10" stroke-linecap="round" stroke-linejoin="round"/>
<path d="M6.10073 11.3003L5.50073 17.7003C5.50073 20.3003 7.5674 22.367 10.1674 22.367C12.7674 22.367 14.8341 20.3003 14.8341 17.7003L14.2341 11.3003H6.10073Z" fill="#FF8A14"/>
<path d="M10.1674 17.7001C8.1674 17.7001 6.43407 17.4334 5.5674 17.1001L5.50073 17.7001C5.50073 20.3001 7.5674 22.3668 10.1674 22.3668C12.7674 22.3668 14.8341 20.3001 14.8341 17.7001L14.7674 17.1001C13.9007 17.4334 12.1674 17.7001 10.1674 17.7001Z" fill="#FF6242"/>
<path d="M10.1674 11.9002C12.4133 11.9002 14.234 11.6316 14.234 11.3002C14.234 10.9688 12.4133 10.7002 10.1674 10.7002C7.92142 10.7002 6.10071 10.9688 6.10071 11.3002C6.10071 11.6316 7.92142 11.9002 10.1674 11.9002Z" fill="#FF8A14"/>
<path d="M11.634 12.1668H13.3674V7.8335C12.834 7.90016 12.234 7.96683 11.634 8.0335V12.1668Z" fill="#BF8DF2" stroke="#45413C" stroke-miterlimit="10" stroke-linecap="round" stroke-linejoin="round"/>
<path d="M14.2341 11.3003C14.2341 11.6336 12.4341 11.9003 10.1674 11.9003C7.90073 11.9003 6.10073 11.6336 6.10073 11.3003L5.50073 17.7003C5.50073 18.5003 5.70073 19.167 6.03407 19.8336C7.3674 19.1003 9.50073 17.7003 11.3674 15.6336C12.6341 14.2336 13.6341 12.9003 14.3007 11.8336L14.2341 11.3003Z" fill="#FFAA54"/>
<path d="M5.5674 17.1001L5.50073 17.7001C5.50073 18.5001 5.70073 19.1668 6.03407 19.8334C6.83407 19.3668 8.03407 18.6334 9.1674 17.7001C7.63407 17.6334 6.30073 17.3668 5.5674 17.1001Z" fill="#FF866E"/>
<path d="M14.034 4.96676L16.3007 2.3001L14.834 1.1001L12.234 4.36676C11.834 4.9001 11.634 5.5001 11.634 6.16676V8.03343C12.3007 7.96676 12.834 7.9001 13.3674 7.83343V6.83343C13.3674 6.1001 13.634 5.43343 14.034 4.96676Z" fill="#9F5AE5" stroke="#45413C" stroke-miterlimit="10" stroke-linecap="round" stroke-linejoin="round"/>
</svg>
