<svg width="28" height="24" viewBox="0 0 28 24" fill="none" xmlns="http://www.w3.org/2000/svg">
<g clip-path="url(#clip0_33_555)">
<path fill-rule="evenodd" clip-rule="evenodd" d="M17.1429 20.5714C18.0434 20.5714 18.9351 20.3941 19.767 20.0495C20.5989 19.7048 21.3549 19.1998 21.9916 18.5631C22.6284 17.9263 23.1334 17.1704 23.4781 16.3384C23.8226 15.5065 24 14.6148 24 13.7143C24 10.9864 22.9163 8.37012 20.9874 6.44121C19.0585 4.51226 16.4422 3.42859 13.7143 3.42859C10.9864 3.42859 8.37012 4.51226 6.44121 6.44121C4.51226 8.37012 3.42859 10.9864 3.42859 13.7143C3.42859 14.6148 3.60596 15.5065 3.95055 16.3384C4.29516 17.1704 4.80026 17.9263 5.437 18.5631C6.07375 19.1998 6.82967 19.7048 7.66164 20.0495C8.49355 20.3941 9.38525 20.5714 10.2857 20.5714H17.1429ZM13.7143 6.17145C11.7138 6.17145 9.79524 6.96612 8.38068 8.38068C6.96612 9.79524 6.17145 11.7138 6.17145 13.7143C6.17145 14.2546 6.27786 14.7896 6.48463 15.2888C6.69139 15.788 6.99444 16.2415 7.37652 16.6235C7.75853 17.0056 8.21206 17.3086 8.71126 17.5154C9.21046 17.7222 9.74546 17.8286 10.2857 17.8286H17.1429C17.6831 17.8286 18.2181 17.7222 18.7173 17.5154C19.2165 17.3086 19.6701 17.0056 20.0521 16.6235C20.4342 16.2415 20.7372 15.788 20.944 15.2888C21.1507 14.7896 21.2572 14.2546 21.2572 13.7143C21.2572 11.7138 20.4625 9.79524 19.0479 8.38068C17.6334 6.96612 15.7148 6.17145 13.7143 6.17145Z" fill="#3064E8"/>
<path fill-rule="evenodd" clip-rule="evenodd" d="M8.91429 24C7.74363 24 6.58449 23.7339 5.50294 23.2171C4.42143 22.7002 3.43872 21.9425 2.61093 20.9874C1.78318 20.0323 1.12655 18.8984 0.67856 17.6505C0.230576 16.4026 0 15.065 0 13.7143C0 10.0771 1.4449 6.58875 4.01683 4.01682C6.58875 1.4449 10.0771 0 13.7143 0C17.3515 0 20.8398 1.4449 23.4117 4.01682C25.9837 6.58875 27.4286 10.0771 27.4286 13.7143C27.4286 15.065 27.198 16.4026 26.75 17.6505C26.302 18.8984 25.6454 20.0323 24.8176 20.9874C23.9899 21.9425 23.0072 22.7002 21.9256 23.2171C20.8441 23.7339 19.6849 24 18.5143 24H8.91429ZM5.95631 5.95631C8.01387 3.89877 10.8045 2.74286 13.7143 2.74286C16.6241 2.74286 19.4147 3.89877 21.4723 5.95631C23.5298 8.01387 24.6857 10.8045 24.6857 13.7143C24.6857 14.7551 24.5077 15.7788 24.1685 16.7237C23.8293 17.6687 23.3401 18.5043 22.7449 19.191C22.1504 19.877 21.4659 20.3967 20.7429 20.7423C20.0216 21.0871 19.2656 21.2571 18.5143 21.2571H8.91429C8.16295 21.2571 7.40702 21.0871 6.68571 20.7423C5.96262 20.3967 5.27822 19.877 4.68368 19.191C4.08852 18.5043 3.59934 17.6687 3.26011 16.7237C2.92088 15.7788 2.74286 14.7551 2.74286 13.7143C2.74286 10.8045 3.89877 8.01387 5.95631 5.95631Z" fill="#3064E8"/>
<path d="M17.1429 17.1429H13.7113C13.4809 17.1427 13.2522 17.1192 13.0286 17.0736C12.5952 16.9852 12.1809 16.8132 11.8095 16.565C11.2457 16.1883 10.8062 15.6529 10.5467 15.0264C10.4626 14.8232 10.3985 14.6134 10.355 14.4C10.2642 13.9553 10.2622 13.4948 10.3516 13.0454C10.4839 12.3803 10.8105 11.7694 11.29 11.29C11.7694 10.8105 12.3803 10.4839 13.0454 10.3516C13.0663 10.3475 13.087 10.3436 13.1079 10.3398C13.3089 10.3037 13.5118 10.2857 13.7143 10.2857C14.1624 10.2857 14.6084 10.3736 15.0264 10.5467C15.6528 10.8062 16.1883 11.2457 16.565 11.8095C16.9418 12.3733 17.1429 13.0362 17.1429 13.7143H14.4C14.4 13.5787 14.3599 13.4461 14.2845 13.3333C14.2091 13.2206 14.102 13.1327 13.9767 13.0808C13.8515 13.0289 13.7136 13.0153 13.5805 13.0418C13.4475 13.0682 13.3253 13.1335 13.2295 13.2295C13.1335 13.3253 13.0682 13.4475 13.0418 13.5805C13.0153 13.7136 13.0289 13.8515 13.0808 13.9767C13.1327 14.102 13.2206 14.2091 13.3333 14.2845C13.4461 14.3599 13.5787 14.4 13.7143 14.4H17.1429C17.2329 14.4 17.3221 14.3823 17.4053 14.3479C17.4885 14.3134 17.5641 14.2629 17.6278 14.1992C17.6915 14.1355 17.7419 14.0599 17.7764 13.9767C17.8108 13.8936 17.8286 13.8044 17.8286 13.7143C17.8286 12.6231 17.3952 11.5767 16.6235 10.8051C15.852 10.0335 14.8055 9.60003 13.7143 9.60003C13.596 9.60003 13.4782 9.60511 13.3612 9.61519C13.0737 9.63994 12.791 9.6948 12.5177 9.77791C12.2489 9.85958 11.9891 9.96868 11.7424 10.1033C11.4599 10.2576 11.1947 10.4455 10.9529 10.6644C10.9026 10.7099 10.8533 10.7568 10.8051 10.8051C10.4675 11.1426 10.1947 11.5329 9.99453 11.9564C9.89448 12.1681 9.81254 12.3881 9.74986 12.6142C9.67814 12.8725 9.63151 13.1386 9.61142 13.4088C9.60387 13.5101 9.60003 13.612 9.60003 13.7143C9.60003 14.252 9.70543 14.7872 9.9132 15.2888C10.2247 16.0406 10.752 16.6831 11.4286 17.1352C11.4324 17.1378 11.4362 17.1404 11.4401 17.1429H10.2857C9.83551 17.1429 9.38966 17.0542 8.9737 16.8819C8.55775 16.7096 8.17978 16.457 7.86141 16.1387C7.54303 15.8203 7.29048 15.4423 7.11816 15.0264C6.94584 14.6104 6.85718 14.1646 6.85718 13.7143C6.85718 11.8957 7.57965 10.1516 8.86557 8.86557C10.1516 7.57965 11.8957 6.85718 13.7143 6.85718C15.533 6.85718 17.2771 7.57965 18.5631 8.86557C19.849 10.1516 20.5715 11.8957 20.5715 13.7143C20.5715 14.1646 20.4828 14.6104 20.3105 15.0264C20.1382 15.4423 19.8856 15.8203 19.5672 16.1387C19.2489 16.457 18.8709 16.7096 18.4549 16.8819C18.039 17.0542 17.5931 17.1429 17.1429 17.1429Z" fill="#3064E8"/>
</g>
<defs>
<clipPath id="clip0_33_555">
<rect width="27.4286" height="24" fill="white"/>
</clipPath>
</defs>
</svg>
