<svg width="26" height="24" viewBox="0 0 26 24" fill="none" xmlns="http://www.w3.org/2000/svg">
<path d="M22.9556 11.7551C22.9556 17.8416 18.0216 22.7756 11.9352 22.7756C5.84883 22.7756 0.914795 17.8416 0.914795 11.7551C0.914795 5.66875 5.84883 0.734741 11.9352 0.734741C18.0216 0.734741 22.9556 5.66875 22.9556 11.7551Z" fill="#68DBFF"/>
<path d="M34.8404 11.7551C34.8404 17.8416 29.9547 22.7756 23.928 22.7756C17.9013 22.7756 13.0156 17.8416 13.0156 11.7551C13.0156 5.66875 17.9013 0.734741 23.928 0.734741C29.9547 0.734741 34.8404 5.66875 34.8404 11.7551Z" fill="#FF7917"/>
<path d="M17.9611 20.9836C20.9686 19.0158 22.9556 15.6175 22.9556 11.7551C22.9556 7.89275 20.9686 4.49442 17.9611 2.52661C14.9831 4.49442 13.0156 7.89275 13.0156 11.7551C13.0156 15.6175 14.9831 19.0158 17.9611 20.9836Z" fill="#5D2C02"/>
</svg>
