<svg width="25" height="24" viewBox="0 0 25 24" fill="none" xmlns="http://www.w3.org/2000/svg">
<path d="M0.992188 14.6449C0.992188 13.5149 1.21475 12.3959 1.6472 11.352C2.07966 10.3079 2.71349 9.35932 3.51255 8.56027C4.3116 7.76122 5.26018 7.12737 6.30418 6.69492C7.34823 6.26252 8.46718 6.03992 9.59723 6.03992V14.6449H0.992188Z" fill="#442781"/>
<path d="M0.992188 14.6449C0.992188 15.7749 1.21475 16.8939 1.6472 17.9379C2.07966 18.9819 2.71349 19.9305 3.51255 20.7296C4.3116 21.5286 5.26018 22.1625 6.30418 22.5949C7.34823 23.0274 8.46718 23.2499 9.59723 23.2499V14.6449H0.992188Z" fill="#61459C"/>
<path d="M18.2022 14.6449C18.2022 15.7749 17.9798 16.8939 17.5474 17.9379C17.1149 18.9819 16.4811 19.9305 15.6819 20.7296C14.8829 21.5286 13.9343 22.1625 12.8902 22.5949C11.8463 23.0274 10.7273 23.2499 9.59729 23.2499V14.6449H18.2022Z" fill="#A992DB"/>
<path d="M23.5078 7.211C23.5078 10.7793 20.615 13.672 17.0468 13.672H10.5858V7.211C10.5858 3.6427 13.4785 0.75 17.0468 0.75C20.615 0.75 23.5078 3.6427 23.5078 7.211Z" fill="#FF7917"/>
</svg>
