<svg width="25" height="24" viewBox="0 0 25 24" fill="none" xmlns="http://www.w3.org/2000/svg">
<path d="M12.25 6.375C12.25 9.4816 9.7316 12 6.625 12H1V6.375C1 3.26839 3.5184 0.75 6.625 0.75C9.7316 0.75 12.25 3.26839 12.25 6.375Z" fill="#17CF97"/>
<path d="M12.25 17.625C12.25 14.5184 14.7684 12 17.875 12H23.5V17.625C23.5 20.7316 20.9816 23.25 17.875 23.25C14.7684 23.25 12.25 20.7316 12.25 17.625Z" fill="#17CF97"/>
<path d="M1 17.625C1 20.7316 3.5184 23.25 6.625 23.25H12.25V17.625C12.25 14.5184 9.7316 12 6.625 12C3.5184 12 1 14.5184 1 17.625Z" fill="#17CF97"/>
<path d="M23.5 6.375C23.5 3.26839 20.9816 0.75 17.875 0.75H12.25V6.375C12.25 9.4816 14.7684 12 17.875 12C20.9816 12 23.5 9.4816 23.5 6.375Z" fill="#17CF97"/>
</svg>
