<svg width="33" height="33" viewBox="0 0 33 33" fill="none" xmlns="http://www.w3.org/2000/svg">
<path d="M20.5 15.1667C19.7667 15.1667 19.1391 14.9053 18.6173 14.3827C18.0947 13.8609 17.8333 13.2333 17.8333 12.5V7.16667C17.8333 6.43333 18.0947 5.80533 18.6173 5.28267C19.1391 4.76089 19.7667 4.5 20.5 4.5H25.8333C26.5667 4.5 27.1947 4.76089 27.7173 5.28267C28.2391 5.80533 28.5 6.43333 28.5 7.16667V12.5C28.5 13.2333 28.2391 13.8609 27.7173 14.3827C27.1947 14.9053 26.5667 15.1667 25.8333 15.1667H20.5ZM15.1667 12.5C15.1667 13.2333 14.9058 13.8609 14.384 14.3827C13.8613 14.9053 13.2333 15.1667 12.5 15.1667H7.16667C6.43333 15.1667 5.80533 14.9053 5.28267 14.3827C4.76089 13.8609 4.5 13.2333 4.5 12.5V7.16667C4.5 6.43333 4.76089 5.80533 5.28267 5.28267C5.80533 4.76089 6.43333 4.5 7.16667 4.5H12.5C13.2333 4.5 13.8613 4.76089 14.384 5.28267C14.9058 5.80533 15.1667 6.43333 15.1667 7.16667V12.5ZM17.8333 20.5C17.8333 19.7667 18.0947 19.1387 18.6173 18.616C19.1391 18.0942 19.7667 17.8333 20.5 17.8333H25.8333C26.5667 17.8333 27.1947 18.0942 27.7173 18.616C28.2391 19.1387 28.5 19.7667 28.5 20.5V25.8333C28.5 26.5667 28.2391 27.1947 27.7173 27.7173C27.1947 28.2391 26.5667 28.5 25.8333 28.5H20.5C19.7667 28.5 19.1391 28.2391 18.6173 27.7173C18.0947 27.1947 17.8333 26.5667 17.8333 25.8333V20.5ZM12.5 17.8333C13.2333 17.8333 13.8613 18.0942 14.384 18.616C14.9058 19.1387 15.1667 19.7667 15.1667 20.5V25.8333C15.1667 26.5667 14.9058 27.1947 14.384 27.7173C13.8613 28.2391 13.2333 28.5 12.5 28.5H7.16667C6.43333 28.5 5.80533 28.2391 5.28267 27.7173C4.76089 27.1947 4.5 26.5667 4.5 25.8333V20.5C4.5 19.7667 4.76089 19.1387 5.28267 18.616C5.80533 18.0942 6.43333 17.8333 7.16667 17.8333H12.5Z" fill="#241F1F"/>
</svg>
