<svg width="25" height="25" viewBox="0 0 25 25" fill="none" xmlns="http://www.w3.org/2000/svg">
<path d="M5.19189 14.1168C5.19189 13.7002 5.37123 13.4045 5.72989 13.2298C6.08789 13.0545 6.43356 13.0835 6.7669 13.3168L12.1919 17.1918L17.6169 13.3168C17.9502 13.0835 18.2962 13.0545 18.6549 13.2298C19.0129 13.4045 19.1919 13.7002 19.1919 14.1168C19.1919 14.3002 19.1462 14.4668 19.0549 14.6168C18.9629 14.7668 18.8502 14.8918 18.7169 14.9918L12.7669 19.2168C12.6836 19.2835 12.5919 19.3335 12.4919 19.3668C12.3919 19.4002 12.2919 19.4168 12.1919 19.4168C12.0919 19.4168 11.9962 19.4002 11.9049 19.3668C11.8129 19.3335 11.7169 19.2835 11.6169 19.2168L5.66689 14.9918C5.53356 14.8918 5.42089 14.7668 5.32889 14.6168C5.23756 14.4668 5.19189 14.3002 5.19189 14.1168ZM5.19189 8.16683C5.19189 7.75016 5.37123 7.4545 5.72989 7.27983C6.08789 7.1045 6.43356 7.1335 6.7669 7.36683L12.1919 11.2418L17.6169 7.36683C17.9502 7.1335 18.2962 7.1045 18.6549 7.27983C19.0129 7.4545 19.1919 7.75016 19.1919 8.16683C19.1919 8.35016 19.1462 8.51683 19.0549 8.66683C18.9629 8.81683 18.8502 8.94183 18.7169 9.04183L12.7669 13.2668C12.6836 13.3335 12.5919 13.3835 12.4919 13.4168C12.3919 13.4502 12.2919 13.4668 12.1919 13.4668C12.0919 13.4668 11.9919 13.4502 11.8919 13.4168C11.7919 13.3835 11.7002 13.3335 11.6169 13.2668L5.66689 9.04183C5.53356 8.94183 5.42089 8.81683 5.32889 8.66683C5.23756 8.51683 5.19189 8.35016 5.19189 8.16683Z" fill="#241F1F"/>
</svg>
