<svg width="24" height="25" viewBox="0 0 24 25" fill="none" xmlns="http://www.w3.org/2000/svg">
<path d="M8.80994 2.93262L5.18994 6.56262M15.1899 2.93262L18.8099 6.56262" stroke="#241F1F" stroke-width="1.5" stroke-miterlimit="10" stroke-linecap="round" stroke-linejoin="round"/>
<path d="M2 8.78271C2 6.93271 2.99 6.78271 4.22 6.78271H19.78C21.01 6.78271 22 6.93271 22 8.78271C22 10.9327 21.01 10.7827 19.78 10.7827H4.22C2.99 10.7827 2 10.9327 2 8.78271Z" stroke="#241F1F" stroke-width="1.5"/>
<path d="M9.76 14.9326V18.4826M14.36 14.9326V18.4826M3.5 10.9326L4.91 19.5726C5.23 21.5126 6 22.9326 8.86 22.9326H14.89C18 22.9326 18.46 21.5726 18.82 19.6926L20.5 10.9326" stroke="#241F1F" stroke-width="1.5" stroke-linecap="round"/>
</svg>
