<svg width="21" height="20" viewBox="0 0 21 20" fill="none" xmlns="http://www.w3.org/2000/svg">
<path d="M10.5166 2.42499C7.75828 2.42499 5.51662 4.66665 5.51662 7.42499V9.83332C5.51662 10.3417 5.29995 11.1167 5.04162 11.55L4.08328 13.1417C3.49162 14.125 3.89995 15.2167 4.98328 15.5833C8.57495 16.7833 12.45 16.7833 16.0416 15.5833C17.05 15.25 17.4916 14.0583 16.9416 13.1417L15.9833 11.55C15.7333 11.1167 15.5166 10.3417 15.5166 9.83332V7.42499C15.5166 4.67499 13.2666 2.42499 10.5166 2.42499Z" stroke="#757575" stroke-width="1.5" stroke-miterlimit="10" stroke-linecap="round"/>
<path d="M12.0583 2.66667C11.0506 2.37966 9.98272 2.37966 8.97498 2.66667C9.21664 2.05 9.81664 1.61667 10.5166 1.61667C11.2166 1.61667 11.8166 2.05 12.0583 2.66667Z" stroke="#757575" stroke-width="1.5" stroke-miterlimit="10" stroke-linecap="round" stroke-linejoin="round"/>
<path d="M13.0167 15.8833C13.0167 17.2583 11.8917 18.3833 10.5167 18.3833C9.83339 18.3833 9.20006 18.1 8.75006 17.65C8.28185 17.1811 8.01822 16.546 8.01672 15.8833" stroke="#757575" stroke-width="1.5" stroke-miterlimit="10"/>
</svg>
