<svg width="21" height="20" viewBox="0 0 21 20" fill="none" xmlns="http://www.w3.org/2000/svg">
<path d="M10.6334 9.05835C10.5501 9.05001 10.4501 9.05001 10.3584 9.05835C9.40189 9.02587 8.49559 8.62238 7.83141 7.93331C7.16724 7.24425 6.79734 6.32372 6.80006 5.36668C6.80006 3.32501 8.45006 1.66668 10.5001 1.66668C10.9854 1.65792 11.4677 1.74485 11.9195 1.92249C12.3712 2.10014 12.7836 2.36502 13.1329 2.70202C13.4823 3.03902 13.7619 3.44154 13.9557 3.88659C14.1495 4.33163 14.2538 4.8105 14.2626 5.29584C14.2713 5.78119 14.1844 6.2635 14.0067 6.71525C13.8291 7.167 13.5642 7.57934 13.2272 7.92872C12.8902 8.2781 12.4877 8.55768 12.0426 8.7515C11.5976 8.94533 11.1187 9.04959 10.6334 9.05835ZM6.46672 12.1333C4.45006 13.4833 4.45006 15.6833 6.46672 17.025C8.75839 18.5583 12.5167 18.5583 14.8084 17.025C16.8251 15.675 16.8251 13.475 14.8084 12.1333C12.5251 10.6083 8.76672 10.6083 6.46672 12.1333Z" stroke="#757575" stroke-width="1.5" stroke-linecap="round" stroke-linejoin="round"/>
</svg>
