<svg width="27" height="26" viewBox="0 0 27 26" fill="none" xmlns="http://www.w3.org/2000/svg">
<path d="M13.4895 24.9354C16.6685 24.9884 20.035 24.5844 20.035 24.5844C20.035 14.9674 20.2505 10.6144 20.2505 10.6144L21.5395 11.9839L25.3005 8.81488L22.3985 4.43538C21.19 2.85088 20.3845 2.55488 20.3845 2.55488L16.462 0.942383C15.1455 1.88288 13.4895 1.81388 13.4895 1.81388H13.3445C13.3445 1.81388 11.688 1.88288 10.3715 0.942383L6.44798 2.55488C6.44798 2.55488 5.64198 2.85088 4.43448 4.43538L1.53198 8.81488L5.29348 11.9839L6.58248 10.6144C6.58248 10.6144 6.79798 14.9674 6.79798 24.5844C6.79798 24.5844 10.1645 24.9889 13.344 24.9354H13.4895Z" fill="#72CACA" stroke="#494949" stroke-width="1.5" stroke-miterlimit="10" stroke-linecap="round" stroke-linejoin="round"/>
<path d="M21.3495 3.25293C21.646 3.53093 22.0005 3.91293 22.399 4.43493L25.301 8.81443L21.54 11.9834L20.251 10.6139C20.035 5.42943 21.35 3.25343 21.3495 3.25293Z" fill="#60A8A6" stroke="#494949" stroke-width="1.5" stroke-miterlimit="10" stroke-linecap="round" stroke-linejoin="round"/>
<path d="M5.48397 3.25293C5.18797 3.53093 4.83297 3.91293 4.43447 4.43493L1.53247 8.81443L5.29397 11.9834L6.58297 10.6139C6.79897 5.42943 5.48397 3.25293 5.48397 3.25293Z" fill="#60A8A6" stroke="#494949" stroke-width="1.5" stroke-miterlimit="10" stroke-linecap="round" stroke-linejoin="round"/>
<path d="M10.3725 0.942383C10.3725 0.942383 11.16 3.38938 13.3455 3.33588H13.49C15.675 3.38938 16.4625 0.942383 16.4625 0.942383L18.3065 1.70088C18.1815 2.15488 17.198 5.23488 13.513 5.23388H13.32C9.63398 5.23488 8.65148 2.15188 8.52698 1.70038V1.70088L10.3725 0.942383Z" stroke="#494949" stroke-width="1.5" stroke-miterlimit="10" stroke-linecap="round" stroke-linejoin="round"/>
<path d="M16.4619 0.942383C16.4619 0.942383 15.6739 3.38938 13.4894 3.33588H13.3449C11.1594 3.38938 10.3719 0.942383 10.3719 0.942383C11.6884 1.88288 13.3449 1.81388 13.3449 1.81388H13.4894C13.4894 1.81388 15.1459 1.88288 16.4619 0.942383Z" fill="#60A8A6" stroke="#494949" stroke-width="1.5" stroke-miterlimit="10" stroke-linecap="round" stroke-linejoin="round"/>
</svg>
