<svg width="28" height="28" viewBox="0 0 28 28" fill="none" xmlns="http://www.w3.org/2000/svg">
<path d="M10.6666 10.4333V17.5667C10.6666 18.1 10.9 18.4889 11.3666 18.7333C11.8333 18.9778 12.2888 18.9556 12.7333 18.6667L18.2666 15.1333C18.6888 14.8889 18.9 14.5111 18.9 14C18.9 13.4889 18.6888 13.1111 18.2666 12.8667L12.7333 9.33333C12.2888 9.04444 11.8333 9.02222 11.3666 9.26667C10.9 9.51111 10.6666 9.9 10.6666 10.4333ZM14 27.3333C12.1555 27.3333 10.4222 26.9831 8.79996 26.2827C7.17774 25.5831 5.76663 24.6333 4.56663 23.4333C3.36663 22.2333 2.41685 20.8222 1.71729 19.2C1.01685 17.5778 0.666626 15.8444 0.666626 14C0.666626 12.1556 1.01685 10.4222 1.71729 8.8C2.41685 7.17778 3.36663 5.76667 4.56663 4.56667C5.76663 3.36667 7.17774 2.41644 8.79996 1.716C10.4222 1.01644 12.1555 0.666666 14 0.666666C15.8444 0.666666 17.5777 1.01644 19.2 1.716C20.8222 2.41644 22.2333 3.36667 23.4333 4.56667C24.6333 5.76667 25.5831 7.17778 26.2826 8.8C26.9831 10.4222 27.3333 12.1556 27.3333 14C27.3333 15.8444 26.9831 17.5778 26.2826 19.2C25.5831 20.8222 24.6333 22.2333 23.4333 23.4333C22.2333 24.6333 20.8222 25.5831 19.2 26.2827C17.5777 26.9831 15.8444 27.3333 14 27.3333ZM14 24.6667C16.9555 24.6667 19.4724 23.628 21.5506 21.5507C23.628 19.4724 24.6666 16.9556 24.6666 14C24.6666 11.0444 23.628 8.52755 21.5506 6.44933C19.4724 4.372 16.9555 3.33333 14 3.33333C11.0444 3.33333 8.52796 4.372 6.45063 6.44933C4.3724 8.52755 3.33329 11.0444 3.33329 14C3.33329 16.9556 4.3724 19.4724 6.45063 21.5507C8.52796 23.628 11.0444 24.6667 14 24.6667Z" fill="white"/>
</svg>
