<svg width="33" height="33" viewBox="0 0 33 33" fill="none" xmlns="http://www.w3.org/2000/svg">
<g clip-path="url(#clip0_130_3226)">
<path d="M32.0312 12.3887V20.6117C32.0312 24.8504 25.0777 28.2865 16.5 28.2865C7.92231 28.2865 0.96875 24.8504 0.96875 20.6117V12.3887" fill="#469ED6"/>
<path d="M32.0312 12.3882C32.0312 13.9007 31.1456 15.3114 29.6162 16.5001C26.8612 18.642 22.0163 20.0632 16.5 20.0632C10.9837 20.0632 6.13875 18.642 3.38375 16.5001C1.85438 15.3114 0.96875 13.9007 0.96875 12.3882C0.96875 8.14949 7.9225 4.71387 16.5 4.71387C25.0775 4.71387 32.0312 8.14949 32.0312 12.3882Z" fill="#227FC0"/>
<path d="M16.4469 24.8439H16.4407C16.3164 24.8439 16.1971 24.7945 16.1092 24.7066C16.0213 24.6187 15.9719 24.4995 15.9719 24.3751C15.9719 24.2508 16.0213 24.1316 16.1092 24.0437C16.1971 23.9558 16.3164 23.9064 16.4407 23.9064H16.4469C16.5713 23.9064 16.6905 23.9558 16.7784 24.0437C16.8663 24.1316 16.9157 24.2508 16.9157 24.3751C16.9157 24.4995 16.8663 24.6187 16.7784 24.7066C16.6905 24.7945 16.5713 24.8439 16.4469 24.8439ZM18.3208 24.7916C18.1973 24.7912 18.0789 24.7423 17.9911 24.6555C17.9033 24.5686 17.8531 24.4508 17.8513 24.3273C17.8495 24.2038 17.8962 24.0846 17.9814 23.9952C18.0667 23.9058 18.1836 23.8535 18.307 23.8494C18.4304 23.8454 18.5505 23.8899 18.6414 23.9735C18.7324 24.0571 18.7868 24.173 18.7931 24.2964C18.7994 24.4197 18.757 24.5406 18.6751 24.633C18.5932 24.7254 18.4783 24.782 18.3551 24.7905L18.3484 24.7908C18.3392 24.7914 18.33 24.7917 18.3209 24.7916H18.3208ZM14.5669 24.785C14.5577 24.785 14.5484 24.7848 14.5391 24.7842L14.5328 24.7838C14.4109 24.7751 14.2973 24.7189 14.2164 24.6273C14.1356 24.5356 14.0939 24.4159 14.1004 24.2939C14.1068 24.1719 14.161 24.0572 14.2511 23.9747C14.3412 23.8922 14.4602 23.8483 14.5823 23.8526C14.7044 23.8568 14.82 23.9088 14.9042 23.9974C14.9884 24.086 15.0344 24.2041 15.0324 24.3263C15.0304 24.4485 14.9805 24.565 14.8934 24.6508C14.8064 24.7366 14.6891 24.7848 14.5669 24.785ZM20.1947 24.6254C20.0752 24.6254 19.9601 24.5797 19.8732 24.4977C19.7862 24.4157 19.7339 24.3035 19.7268 24.1842C19.7198 24.0649 19.7587 23.9474 19.8354 23.8557C19.9121 23.7641 20.021 23.7052 20.1397 23.6911L20.1467 23.6903C20.208 23.6828 20.2702 23.6874 20.3297 23.704C20.3892 23.7206 20.4448 23.7487 20.4934 23.7869C20.542 23.825 20.5826 23.8724 20.6128 23.9263C20.643 23.9801 20.6623 24.0394 20.6695 24.1008C20.6767 24.1621 20.6717 24.2243 20.6548 24.2837C20.638 24.3431 20.6095 24.3986 20.5711 24.447C20.5327 24.4954 20.4851 24.5357 20.4311 24.5656C20.377 24.5956 20.3176 24.6145 20.2562 24.6214L20.2014 24.1558L20.2508 24.6221C20.2322 24.6243 20.2134 24.6254 20.1947 24.6254ZM12.6937 24.6117C12.6753 24.6117 12.6568 24.6106 12.6384 24.6084C12.6315 24.6076 12.6247 24.6067 12.6178 24.6057C12.4983 24.5864 12.391 24.5216 12.3182 24.425C12.2453 24.3283 12.2127 24.2072 12.2272 24.0871C12.2416 23.9669 12.3019 23.857 12.3956 23.7803C12.4892 23.7036 12.6089 23.6661 12.7295 23.6757C12.8501 23.6852 12.9624 23.741 13.0429 23.8315C13.1233 23.9219 13.1656 24.0399 13.161 24.1609C13.1564 24.2818 13.1052 24.3962 13.0181 24.4803C12.931 24.5643 12.8148 24.6114 12.6937 24.6117ZM22.0541 24.3386C21.9381 24.3386 21.8263 24.2955 21.7402 24.2178C21.6541 24.14 21.5999 24.0331 21.588 23.9178C21.5762 23.8024 21.6075 23.6867 21.676 23.5931C21.7444 23.4995 21.8452 23.4346 21.9587 23.4109L21.9781 23.4071C22.042 23.3967 22.1073 23.3996 22.17 23.4157C22.2327 23.4318 22.2914 23.4607 22.3424 23.5006C22.3934 23.5405 22.4356 23.5905 22.4663 23.6475C22.497 23.7045 22.5156 23.7672 22.5209 23.8317C22.5261 23.8962 22.518 23.9612 22.4969 24.0224C22.4758 24.0836 22.4423 24.1398 22.3985 24.1874C22.3546 24.235 22.3014 24.273 22.2421 24.2991C22.1828 24.3251 22.1188 24.3386 22.0541 24.3386ZM22.0732 23.9389L22.0743 23.9446L22.0607 23.8686L22.0732 23.9389ZM10.8355 24.3174C10.8076 24.3174 10.7798 24.3149 10.7524 24.31C10.748 24.3092 10.7374 24.3072 10.733 24.3063C10.616 24.2803 10.5135 24.2106 10.4464 24.1113C10.3792 24.0121 10.3527 23.8909 10.3722 23.7727C10.3916 23.6545 10.4556 23.5482 10.551 23.4757C10.6464 23.4033 10.766 23.3701 10.8851 23.383C11.0042 23.3959 11.1138 23.454 11.1914 23.5452C11.269 23.6365 11.3088 23.754 11.3024 23.8737C11.2961 23.9933 11.2441 24.1059 11.1573 24.1885C11.0705 24.271 10.9553 24.3171 10.8355 24.3174ZM23.8887 23.9216C23.7752 23.9216 23.6655 23.8804 23.58 23.8056C23.4945 23.7308 23.4391 23.6275 23.4241 23.5149C23.4091 23.4023 23.4354 23.2881 23.4982 23.1935C23.5611 23.0989 23.6561 23.0303 23.7657 23.0005L23.7717 22.9989C23.8314 22.9818 23.8938 22.9766 23.9555 22.9839C24.0172 22.9911 24.0768 23.0105 24.1309 23.0409C24.185 23.0713 24.2325 23.1122 24.2707 23.1612C24.3089 23.2101 24.337 23.2662 24.3533 23.3261C24.3696 23.386 24.3739 23.4485 24.3659 23.5101C24.3579 23.5716 24.3377 23.631 24.3065 23.6847C24.2754 23.7384 24.2338 23.7854 24.1844 23.8229C24.1349 23.8604 24.0785 23.8877 24.0184 23.9033L24.0123 23.905C23.9721 23.916 23.9305 23.9216 23.8887 23.9216ZM9.00281 23.8922C8.96104 23.8922 8.91946 23.8866 8.87919 23.8755L8.87319 23.8739C8.8133 23.8582 8.75712 23.8307 8.7079 23.7931C8.65868 23.7556 8.61739 23.7086 8.58642 23.655C8.55544 23.6014 8.5354 23.5422 8.52745 23.4807C8.51949 23.4193 8.52379 23.357 8.54008 23.2972C8.55637 23.2375 8.58433 23.1816 8.62236 23.1327C8.66038 23.0838 8.70771 23.043 8.76162 23.0125C8.81552 22.982 8.87493 22.9625 8.93641 22.9551C8.99789 22.9478 9.06022 22.9526 9.11981 22.9695L9.12587 22.9711C9.23552 23.0009 9.33062 23.0694 9.39349 23.1641C9.45636 23.2587 9.48273 23.3729 9.46768 23.4855C9.45264 23.5981 9.39721 23.7015 9.3117 23.7763C9.22619 23.8511 9.11642 23.8923 9.00281 23.8922ZM25.6841 23.3591C25.566 23.3593 25.4522 23.3154 25.3648 23.236C25.2774 23.1566 25.2229 23.0475 25.2118 22.93C25.2007 22.8124 25.234 22.695 25.305 22.6007C25.376 22.5064 25.4797 22.4421 25.5957 22.4202C25.7117 22.3984 25.8317 22.4207 25.9321 22.4828C26.0325 22.5448 26.1061 22.6421 26.1385 22.7556C26.1709 22.8691 26.1598 22.9907 26.1072 23.0964C26.0547 23.2021 25.9645 23.2843 25.8545 23.327C25.8485 23.3293 25.8424 23.3314 25.8364 23.3335C25.7874 23.3504 25.7359 23.3591 25.684 23.3591L25.6841 23.3591ZM7.21037 23.3205C7.14197 23.3212 7.07423 23.307 7.01189 23.2788C6.94954 23.2507 6.8941 23.2092 6.84944 23.1574C6.80478 23.1056 6.77197 23.0447 6.75332 22.9788C6.73466 22.913 6.73061 22.8439 6.74143 22.7764C6.75226 22.7088 6.77771 22.6445 6.816 22.5878C6.8543 22.5311 6.90451 22.4835 6.96313 22.4482C7.02175 22.4129 7.08736 22.3909 7.15538 22.3836C7.2234 22.3764 7.29219 22.3841 7.35694 22.4061C7.36106 22.4076 7.371 22.4111 7.37506 22.4127C7.47788 22.4513 7.5639 22.5247 7.61811 22.6203C7.67231 22.7158 7.69127 22.8273 7.67166 22.9353C7.65206 23.0434 7.59514 23.1411 7.51084 23.2115C7.42653 23.2819 7.3202 23.3205 7.21037 23.3205ZM7.18256 22.9255L7.18012 22.9324L7.21044 22.8516L7.18256 22.9255ZM27.4173 22.6283C27.3015 22.6286 27.1895 22.5864 27.1028 22.5097C27.016 22.4329 26.9604 22.327 26.9466 22.212C26.9328 22.097 26.9617 21.9809 27.0279 21.8858C27.094 21.7907 27.1928 21.7232 27.3054 21.6961C27.418 21.669 27.5367 21.6843 27.6388 21.7389C27.741 21.7936 27.8195 21.8838 27.8595 21.9925C27.8994 22.1012 27.8981 22.2209 27.8557 22.3287C27.8133 22.4365 27.7328 22.5249 27.6294 22.5773L27.6211 22.5813C27.5576 22.6122 27.4879 22.6282 27.4173 22.6282V22.6283ZM5.48156 22.5785C5.41007 22.5784 5.33955 22.562 5.27544 22.5303L5.259 22.522C5.15868 22.4676 5.08168 22.3785 5.04247 22.2714C5.00326 22.1642 5.00454 22.0464 5.04607 21.9402C5.0876 21.8339 5.16652 21.7465 5.26799 21.6943C5.36946 21.6422 5.48649 21.6289 5.59707 21.657C5.70765 21.6851 5.80416 21.7526 5.86845 21.8468C5.93275 21.9411 5.9604 22.0556 5.9462 22.1688C5.932 22.282 5.87694 22.3861 5.79136 22.4615C5.70578 22.537 5.59565 22.5786 5.48156 22.5785ZM29.0486 21.6925C28.9484 21.6926 28.8507 21.6606 28.77 21.6011C28.6893 21.5416 28.6298 21.4578 28.6002 21.362C28.5707 21.2662 28.5726 21.1634 28.6058 21.0688C28.639 20.9742 28.7016 20.8927 28.7845 20.8363L28.7929 20.8307C28.8441 20.7958 28.9017 20.7713 28.9624 20.7588C29.0231 20.7462 29.0857 20.7459 29.1466 20.7577C29.2074 20.7695 29.2653 20.7933 29.3169 20.8277C29.3685 20.862 29.4128 20.9063 29.4472 20.9578C29.4816 21.0094 29.5054 21.0673 29.5172 21.1281C29.5291 21.189 29.5288 21.2516 29.5163 21.3123C29.5038 21.373 29.4794 21.4307 29.4445 21.4819C29.4096 21.5331 29.3648 21.5769 29.3129 21.6107L29.0529 21.2207L29.3107 21.6121C29.2334 21.6645 29.1421 21.6925 29.0486 21.6925ZM3.85962 21.6296C3.76573 21.6297 3.674 21.6015 3.59637 21.5486L3.58519 21.5409C3.49449 21.4755 3.43015 21.3798 3.40374 21.2711C3.37733 21.1624 3.3906 21.0479 3.44114 20.9481C3.49169 20.8484 3.5762 20.7699 3.67944 20.727C3.78269 20.684 3.89789 20.6793 4.0043 20.7137C4.11071 20.7481 4.20133 20.8194 4.25985 20.9147C4.31836 21.01 4.34092 21.1231 4.32347 21.2335C4.30601 21.344 4.24969 21.4446 4.16464 21.5172C4.07958 21.5898 3.97146 21.6297 3.85962 21.6296ZM30.4969 20.4993C30.4054 20.4993 30.316 20.4725 30.2395 20.4223C30.1631 20.372 30.1031 20.3005 30.0668 20.2166C30.0305 20.1327 30.0195 20.0399 30.0353 19.9498C30.051 19.8597 30.0928 19.7762 30.1554 19.7096C30.1602 19.7046 30.165 19.6996 30.1699 19.6946C30.2249 19.6411 30.2923 19.6019 30.3661 19.5804C30.4398 19.559 30.5177 19.556 30.5929 19.5718C30.6681 19.5875 30.7382 19.6215 30.7972 19.6708C30.8562 19.72 30.9021 19.783 30.9311 19.8541C30.96 19.9253 30.971 20.0025 30.963 20.0789C30.9551 20.1553 30.9286 20.2286 30.8857 20.2923C30.8428 20.356 30.7849 20.4082 30.7171 20.4443C30.6493 20.4804 30.5737 20.4993 30.4969 20.4993ZM30.5441 20.069L30.5471 20.0719L30.5014 20.0261L30.5441 20.069ZM2.42544 20.4184C2.36141 20.4185 2.29805 20.4054 2.23928 20.38C2.18052 20.3546 2.1276 20.3174 2.08381 20.2706L2.42537 19.9496L2.08312 20.27C1.99655 20.1807 1.94898 20.0608 1.95086 19.9365C1.95274 19.8122 2.00393 19.6937 2.09315 19.6071C2.18238 19.5205 2.30235 19.473 2.42665 19.4749C2.55096 19.4767 2.66943 19.5279 2.756 19.6171L2.76694 19.6286C2.82959 19.6952 2.87137 19.7788 2.88714 19.8689C2.9029 19.959 2.89196 20.0517 2.85566 20.1357C2.81935 20.2196 2.75927 20.2911 2.68283 20.3414C2.60638 20.3916 2.51691 20.4184 2.42544 20.4184ZM29.6163 16.4996C26.8613 18.6415 22.0163 20.0628 16.5001 20.0628C10.9838 20.0628 6.13881 18.6415 3.38381 16.4996V16.499C6.13881 14.3571 10.9838 12.9365 16.5001 12.9365C21.8613 12.9365 26.5876 14.2784 29.3788 16.3203L29.6163 16.4996Z" fill="#241F1F"/>
</g>
<defs>
<clipPath id="clip0_130_3226">
<rect width="32" height="32" fill="white" transform="translate(0.5 0.5)"/>
</clipPath>
</defs>
</svg>
