<svg width="49" height="48" viewBox="0 0 49 48" fill="none" xmlns="http://www.w3.org/2000/svg">
<path fill-rule="evenodd" clip-rule="evenodd" d="M26.9 38.4C28.173 38.4 29.3939 38.9057 30.2941 39.8059C31.1943 40.7061 31.7 41.927 31.7 43.2C31.7 44.473 31.1943 45.6939 30.2941 46.5941C29.3939 47.4943 28.173 48 26.9 48C25.627 48 24.4061 47.4943 23.5059 46.5941C22.6057 45.6939 22.1 44.473 22.1 43.2C22.1 41.927 22.6057 40.7061 23.5059 39.8059C24.4061 38.9057 25.627 38.4 26.9 38.4ZM11.8784 31.2C13.4697 31.2 14.9958 31.8321 16.121 32.9574C17.2463 34.0826 17.8784 35.6087 17.8784 37.2C17.8784 38.7913 17.2463 40.3174 16.121 41.4426C14.9958 42.5679 13.4697 43.2 11.8784 43.2C10.2871 43.2 8.76098 42.5679 7.63576 41.4426C6.51054 40.3174 5.8784 38.7913 5.8784 37.2C5.8784 35.6087 6.51054 34.0826 7.63576 32.9574C8.76098 31.8321 10.2871 31.2 11.8784 31.2ZM39.6656 32.4C40.9386 32.4 42.1595 32.9057 43.0597 33.8059C43.9599 34.7061 44.4656 35.927 44.4656 37.2C44.4656 38.473 43.9599 39.6939 43.0597 40.5941C42.1595 41.4943 40.9386 42 39.6656 42C38.3926 42 37.1717 41.4943 36.2715 40.5941C35.3713 39.6939 34.8656 38.473 34.8656 37.2C34.8656 35.927 35.3713 34.7061 36.2715 33.8059C37.1717 32.9057 38.3926 32.4 39.6656 32.4ZM44.9 22.3656C45.8548 22.3656 46.7705 22.7449 47.4456 23.42C48.1207 24.0951 48.5 25.0108 48.5 25.9656C48.5 26.9204 48.1207 27.8361 47.4456 28.5112C46.7705 29.1863 45.8548 29.5656 44.9 29.5656C43.9452 29.5656 43.0295 29.1863 42.3544 28.5112C41.6793 27.8361 41.3 26.9204 41.3 25.9656C41.3 25.0108 41.6793 24.0951 42.3544 23.42C43.0295 22.7449 43.9452 22.3656 44.9 22.3656ZM6.5 14.4C8.0913 14.4 9.61742 15.0321 10.7426 16.1574C11.8679 17.2826 12.5 18.8087 12.5 20.4C12.5 21.9913 11.8679 23.5174 10.7426 24.6426C9.61742 25.7679 8.0913 26.4 6.5 26.4C4.9087 26.4 3.38258 25.7679 2.25736 24.6426C1.13214 23.5174 0.5 21.9913 0.5 20.4C0.5 18.8087 1.13214 17.2826 2.25736 16.1574C3.38258 15.0321 4.9087 14.4 6.5 14.4ZM43.1864 12.4968C43.8229 12.4968 44.4334 12.7497 44.8835 13.1997C45.3335 13.6498 45.5864 14.2603 45.5864 14.8968C45.5864 15.5333 45.3335 16.1438 44.8835 16.5939C44.4334 17.0439 43.8229 17.2968 43.1864 17.2968C42.5499 17.2968 41.9394 17.0439 41.4893 16.5939C41.0393 16.1438 40.7864 15.5333 40.7864 14.8968C40.7864 14.2603 41.0393 13.6498 41.4893 13.1997C41.9394 12.7497 42.5499 12.4968 43.1864 12.4968ZM19.7 0C21.6096 0 23.4409 0.758569 24.7912 2.10883C26.1414 3.45909 26.9 5.29044 26.9 7.2C26.9 9.10956 26.1414 10.9409 24.7912 12.2912C23.4409 13.6414 21.6096 14.4 19.7 14.4C17.7904 14.4 15.9591 13.6414 14.6088 12.2912C13.2586 10.9409 12.5 9.10956 12.5 7.2C12.5 5.29044 13.2586 3.45909 14.6088 2.10883C15.9591 0.758569 17.7904 0 19.7 0ZM37.7 7.2C38.0183 7.2 38.3235 7.32643 38.5485 7.55147C38.7736 7.77652 38.9 8.08174 38.9 8.4C38.9 8.71826 38.7736 9.02348 38.5485 9.24853C38.3235 9.47357 38.0183 9.6 37.7 9.6C37.3817 9.6 37.0765 9.47357 36.8515 9.24853C36.6264 9.02348 36.5 8.71826 36.5 8.4C36.5 8.08174 36.6264 7.77652 36.8515 7.55147C37.0765 7.32643 37.3817 7.2 37.7 7.2Z" fill="#E70F2C"/>
</svg>
