<svg width="21" height="20" viewBox="0 0 21 20" fill="none" xmlns="http://www.w3.org/2000/svg">
<path d="M10.5167 2.42499C7.75841 2.42499 5.51674 4.66665 5.51674 7.42499V9.83332C5.51674 10.3417 5.30007 11.1167 5.04174 11.55L4.08341 13.1417C3.49174 14.125 3.90007 15.2167 4.98341 15.5833C8.57507 16.7833 12.4501 16.7833 16.0417 15.5833C17.0501 15.25 17.4917 14.0583 16.9417 13.1417L15.9834 11.55C15.7334 11.1167 15.5167 10.3417 15.5167 9.83332V7.42499C15.5167 4.67499 13.2667 2.42499 10.5167 2.42499Z" stroke="#757575" stroke-width="1.5" stroke-miterlimit="10" stroke-linecap="round"/>
<path d="M12.0584 2.66667C11.0507 2.37966 9.98284 2.37966 8.9751 2.66667C9.21676 2.05 9.81676 1.61667 10.5168 1.61667C11.2168 1.61667 11.8168 2.05 12.0584 2.66667Z" stroke="#757575" stroke-width="1.5" stroke-miterlimit="10" stroke-linecap="round" stroke-linejoin="round"/>
<path d="M13.0166 15.8833C13.0166 17.2583 11.8916 18.3833 10.5166 18.3833C9.83327 18.3833 9.19993 18.1 8.74993 17.65C8.28173 17.1811 8.0181 16.546 8.0166 15.8833" stroke="#757575" stroke-width="1.5" stroke-miterlimit="10"/>
</svg>
