<svg width="21" height="20" viewBox="0 0 21 20" fill="none" xmlns="http://www.w3.org/2000/svg">
<path d="M10.6333 9.05835C10.5499 9.05001 10.4499 9.05001 10.3583 9.05835C9.40177 9.02587 8.49547 8.62238 7.83129 7.93331C7.16712 7.24425 6.79722 6.32372 6.79993 5.36668C6.79993 3.32501 8.44993 1.66668 10.4999 1.66668C10.9853 1.65792 11.4676 1.74485 11.9193 1.92249C12.3711 2.10014 12.7834 2.36502 13.1328 2.70202C13.4822 3.03902 13.7618 3.44154 13.9556 3.88659C14.1494 4.33163 14.2537 4.8105 14.2624 5.29584C14.2712 5.78119 14.1843 6.2635 14.0066 6.71525C13.829 7.167 13.5641 7.57934 13.2271 7.92872C12.8901 8.2781 12.4876 8.55768 12.0425 8.7515C11.5975 8.94533 11.1186 9.04959 10.6333 9.05835ZM6.4666 12.1333C4.44993 13.4833 4.44993 15.6833 6.4666 17.025C8.75827 18.5583 12.5166 18.5583 14.8083 17.025C16.8249 15.675 16.8249 13.475 14.8083 12.1333C12.5249 10.6083 8.7666 10.6083 6.4666 12.1333Z" stroke="#757575" stroke-width="1.5" stroke-linecap="round" stroke-linejoin="round"/>
</svg>
