<svg width="18" height="18" viewBox="0 0 18 18" fill="none" xmlns="http://www.w3.org/2000/svg">
<path d="M15.0334 3.64917H14.7001L11.8834 0.8325C11.7734 0.7243 11.6252 0.663666 11.4709 0.663666C11.3166 0.663666 11.1685 0.7243 11.0584 0.8325C10.8334 1.0575 10.8334 1.42417 11.0584 1.6575L13.0501 3.64917H4.95008L6.94175 1.6575C7.16675 1.4325 7.16675 1.06583 6.94175 0.8325C6.83171 0.7243 6.68357 0.663666 6.52925 0.663666C6.37493 0.663666 6.22678 0.7243 6.11675 0.8325L3.30841 3.64917H2.97508C2.22508 3.64917 0.666748 3.64917 0.666748 5.7825C0.666748 6.59083 0.833415 7.12417 1.18341 7.47417C1.38341 7.6825 1.62508 7.79083 1.88341 7.84917C2.12508 7.9075 2.38341 7.91583 2.63341 7.91583H15.3667C15.6251 7.91583 15.8667 7.89917 16.1001 7.84917C16.8001 7.6825 17.3334 7.1825 17.3334 5.7825C17.3334 3.64917 15.7751 3.64917 15.0334 3.64917ZM14.8751 9H3.05841C2.54175 9 2.15008 9.45833 2.23341 9.96667L2.93341 14.25C3.16675 15.6833 3.79175 17.3333 6.56675 17.3333H11.2417C14.0501 17.3333 14.5501 15.925 14.8501 14.35L15.6917 9.99167C15.7155 9.87112 15.7123 9.74679 15.6822 9.62765C15.6522 9.50851 15.5961 9.39751 15.518 9.30266C15.4399 9.20782 15.3417 9.13147 15.2305 9.07913C15.1193 9.0268 14.998 8.99977 14.8751 9ZM7.84175 14.375C7.84597 14.4537 7.83412 14.5324 7.80692 14.6063C7.77972 14.6803 7.73774 14.7479 7.68355 14.8051C7.62935 14.8622 7.56408 14.9078 7.4917 14.9389C7.41932 14.97 7.34137 14.9861 7.26258 14.9861C7.1838 14.9861 7.10584 14.97 7.03346 14.9389C6.96109 14.9078 6.89581 14.8622 6.84161 14.8051C6.78742 14.7479 6.74544 14.6803 6.71824 14.6063C6.69104 14.5324 6.67919 14.4537 6.68341 14.375V11.625C6.68341 11.3083 6.94175 11.0417 7.26675 11.0417C7.42001 11.0439 7.56625 11.1063 7.67385 11.2154C7.78145 11.3246 7.84176 11.4717 7.84175 11.625V14.375ZM11.4084 14.375C11.4084 14.7 11.1501 14.9583 10.8251 14.9583C10.5084 14.9583 10.2417 14.7 10.2417 14.375V11.625C10.2417 11.3083 10.5084 11.0417 10.8251 11.0417C11.1501 11.0417 11.4084 11.3083 11.4084 11.625V14.375Z" fill="#E70F2C"/>
</svg>
