<svg width="20" height="20" viewBox="0 0 20 20" fill="none" xmlns="http://www.w3.org/2000/svg">
<g clip-path="url(#clip0_94_660)">
<path d="M7.34162 1.66675L4.32495 4.69175M12.6583 1.66675L15.675 4.69175" stroke="#241F1F" stroke-width="1.5" stroke-miterlimit="10" stroke-linecap="round" stroke-linejoin="round"/>
<path d="M1.66663 6.54167C1.66663 5 2.49163 4.875 3.51663 4.875H16.4833C17.5083 4.875 18.3333 5 18.3333 6.54167C18.3333 8.33333 17.5083 8.20833 16.4833 8.20833H3.51663C2.49163 8.20833 1.66663 8.33333 1.66663 6.54167Z" stroke="#241F1F" stroke-width="1.5"/>
<path d="M8.13329 11.6666V14.6249M11.9666 11.6666V14.6249M2.91663 8.33325L4.09163 15.5333C4.35829 17.1499 4.99996 18.3333 7.38329 18.3333H12.4083C15 18.3333 15.3833 17.1999 15.6833 15.6333L17.0833 8.33325" stroke="#241F1F" stroke-width="1.5" stroke-linecap="round"/>
</g>
<defs>
<clipPath id="clip0_94_660">
<rect width="20" height="20" fill="white"/>
</clipPath>
</defs>
</svg>
