<svg width="16" height="16" viewBox="0 0 16 16" fill="none" xmlns="http://www.w3.org/2000/svg">
<path d="M13.5833 5.14583L10.0417 1.64583L11.2083 0.479167C11.5278 0.159722 11.9203 0 12.3858 0C12.8514 0 13.2436 0.159722 13.5625 0.479167L14.7292 1.64583C15.0486 1.96528 15.2153 2.35083 15.2292 2.8025C15.2431 3.25417 15.0903 3.63944 14.7708 3.95833L13.5833 5.14583ZM0.833336 15.2083C0.597225 15.2083 0.39917 15.1286 0.23917 14.9692C0.0791695 14.8097 -0.000552672 14.6117 2.88351e-06 14.375V12.0208C2.88351e-06 11.9097 0.0208363 11.8022 0.0625029 11.6983C0.10417 11.5944 0.16667 11.5006 0.250003 11.4167L8.83334 2.83333L12.375 6.375L3.79167 14.9583C3.70834 15.0417 3.61473 15.1042 3.51084 15.1458C3.40695 15.1875 3.29917 15.2083 3.1875 15.2083H0.833336Z" fill="black"/>
</svg>
