<svg width="17" height="18" viewBox="0 0 17 18" fill="none" xmlns="http://www.w3.org/2000/svg">
<path d="M15.2 4.68501L10.4 1.32668C9.09166 0.410011 7.08333 0.460011 5.82499 1.43501L1.64999 4.69334C0.816659 5.34334 0.158325 6.67668 0.158325 7.72668V13.4767C0.158325 15.6017 1.88333 17.335 4.00833 17.335H12.9917C15.1167 17.335 16.8417 15.61 16.8417 13.485V7.83501C16.8417 6.71001 16.1167 5.32668 15.2 4.68501ZM9.12499 14.0017C9.12499 14.3433 8.84166 14.6267 8.49999 14.6267C8.15833 14.6267 7.87499 14.3433 7.87499 14.0017V11.5017C7.87499 11.16 8.15833 10.8767 8.49999 10.8767C8.84166 10.8767 9.12499 11.16 9.12499 11.5017V14.0017Z" fill="#E70F2C"/>
</svg>
