<svg width="22" height="22" viewBox="0 0 22 22" fill="none" xmlns="http://www.w3.org/2000/svg">
<path d="M20.5 1.5L15 7M20.5 1.5H14M20.5 1.5V8M9.25 20.5C10.2677 20.5 11.2755 20.2995 12.2158 19.9101C13.1561 19.5206 14.0104 18.9497 14.7301 18.2301C15.4497 17.5104 16.0206 16.6561 16.4101 15.7158C16.7995 14.7755 17 13.7677 17 12.75C17 11.7323 16.7995 10.7245 16.4101 9.7842C16.0206 8.84393 15.4497 7.98958 14.7301 7.26992C14.0104 6.55027 13.1561 5.97941 12.2158 5.58993C11.2755 5.20046 10.2677 5 9.25 5C7.19457 5 5.22333 5.81652 3.76992 7.26992C2.31652 8.72333 1.5 10.6946 1.5 12.75C1.5 14.8054 2.31652 16.7767 3.76992 18.2301C5.22333 19.6835 7.19457 20.5 9.25 20.5Z" stroke="black" stroke-width="1.5" stroke-linecap="round" stroke-linejoin="round"/>
</svg>
