<svg width="20" height="24" viewBox="0 0 20 24" fill="none" xmlns="http://www.w3.org/2000/svg">
<path d="M11.579 4.5H7.36852M17.8948 6V16C17.8948 20 16.8422 21 12.6317 21H6.31589C2.10537 21 1.05273 20 1.05273 16V6C1.05273 2 2.10537 1 6.31589 1H12.6317C16.8422 1 17.8948 2 17.8948 6Z" stroke="black" stroke-width="1.5" stroke-linecap="round" stroke-linejoin="round"/>
<path d="M9.47362 18.1C9.90634 18.1 10.3213 17.9367 10.6273 17.646C10.9333 17.3553 11.1052 16.9611 11.1052 16.55C11.1052 16.1389 10.9333 15.7447 10.6273 15.454C10.3213 15.1633 9.90634 15 9.47362 15C9.0409 15 8.6259 15.1633 8.31992 15.454C8.01394 15.7447 7.84204 16.1389 7.84204 16.55C7.84204 16.9611 8.01394 17.3553 8.31992 17.646C8.6259 17.9367 9.0409 18.1 9.47362 18.1Z" stroke="black" stroke-width="1.5" stroke-linecap="round" stroke-linejoin="round"/>
</svg>
