<svg width="13" height="18" viewBox="0 0 13 18" fill="none" xmlns="http://www.w3.org/2000/svg">
<path d="M12.6168 11.075L11.7834 9.69167C11.6084 9.38333 11.4501 8.8 11.4501 8.45833V6.35C11.4491 5.42003 11.1848 4.50935 10.6879 3.72331C10.1909 2.93728 9.48148 2.30802 8.64178 1.90833C8.42746 1.52779 8.11486 1.21179 7.73665 0.993364C7.35844 0.774941 6.92851 0.662111 6.49178 0.666667C5.58345 0.666667 4.76678 1.15833 4.33345 1.93333C2.70845 2.74167 1.58345 4.41667 1.58345 6.35V8.45833C1.58345 8.8 1.42511 9.38333 1.25012 9.68333L0.408449 11.075C0.0751152 11.6333 0.00011503 12.25 0.208448 12.8167C0.408448 13.375 0.883448 13.8083 1.50012 14.0167C3.11678 14.5667 4.81678 14.8333 6.51678 14.8333C8.21678 14.8333 9.91678 14.5667 11.5334 14.025C12.1168 13.8333 12.5668 13.3917 12.7834 12.8167C13.0001 12.2417 12.9418 11.6083 12.6168 11.075ZM8.85845 15.675C8.6832 16.1601 8.36285 16.5795 7.94091 16.8762C7.51898 17.1729 7.01592 17.3325 6.50011 17.3333C5.84178 17.3333 5.19178 17.0667 4.73345 16.5917C4.46678 16.3417 4.26678 16.0083 4.15012 15.6667C4.25845 15.6833 4.36678 15.6917 4.48345 15.7083C4.67512 15.7333 4.87511 15.7583 5.07511 15.775C5.55012 15.8167 6.03345 15.8417 6.51678 15.8417C6.99178 15.8417 7.46678 15.8167 7.93345 15.775C8.10845 15.7583 8.28345 15.75 8.45012 15.725L8.85845 15.675Z" fill="#E70F2C"/>
</svg>
