<svg width="15" height="18" viewBox="0 0 15 18" fill="none" xmlns="http://www.w3.org/2000/svg">
<path d="M11.4583 1.96666V0.666656C11.4583 0.32499 11.175 0.0416565 10.8333 0.0416565C10.4917 0.0416565 10.2083 0.32499 10.2083 0.666656V1.91666H4.79167V0.666656C4.79167 0.32499 4.50833 0.0416565 4.16667 0.0416565C3.825 0.0416565 3.54167 0.32499 3.54167 0.666656V1.96666C1.29167 2.17499 0.2 3.51666 0.0333333 5.50832C0.0166666 5.74999 0.216667 5.94999 0.45 5.94999H14.55C14.7917 5.94999 14.9917 5.74166 14.9667 5.50832C14.8 3.51666 13.7083 2.17499 11.4583 1.96666ZM14.1667 7.19999H0.833333C0.375 7.19999 0 7.57499 0 8.03332V13.1667C0 15.6667 1.25 17.3333 4.16667 17.3333H10.8333C13.75 17.3333 15 15.6667 15 13.1667V8.03332C15 7.57499 14.625 7.19999 14.1667 7.19999ZM5.175 14.175C5.13333 14.2083 5.09167 14.25 5.05 14.275C5 14.3083 4.95 14.3333 4.9 14.35C4.85 14.375 4.8 14.3917 4.75 14.4C4.69167 14.4083 4.64167 14.4167 4.58333 14.4167C4.475 14.4167 4.36667 14.3917 4.26667 14.35C4.15833 14.3083 4.075 14.25 3.99167 14.175C3.84167 14.0167 3.75 13.8 3.75 13.5833C3.75 13.3667 3.84167 13.15 3.99167 12.9917C4.075 12.9167 4.15833 12.8583 4.26667 12.8167C4.41667 12.75 4.58333 12.7333 4.75 12.7667C4.8 12.775 4.85 12.7917 4.9 12.8167C4.95 12.8333 5 12.8583 5.05 12.8917L5.175 12.9917C5.325 13.15 5.41667 13.3667 5.41667 13.5833C5.41667 13.8 5.325 14.0167 5.175 14.175ZM5.175 11.2583C5.01667 11.4083 4.8 11.5 4.58333 11.5C4.36667 11.5 4.15 11.4083 3.99167 11.2583C3.84167 11.1 3.75 10.8833 3.75 10.6667C3.75 10.45 3.84167 10.2333 3.99167 10.075C4.225 9.84166 4.59167 9.76666 4.9 9.89999C5.00833 9.94166 5.1 9.99999 5.175 10.075C5.325 10.2333 5.41667 10.45 5.41667 10.6667C5.41667 10.8833 5.325 11.1 5.175 11.2583ZM8.09167 14.175C7.93333 14.325 7.71667 14.4167 7.5 14.4167C7.28333 14.4167 7.06667 14.325 6.90833 14.175C6.75833 14.0167 6.66667 13.8 6.66667 13.5833C6.66667 13.3667 6.75833 13.15 6.90833 12.9917C7.21667 12.6833 7.78333 12.6833 8.09167 12.9917C8.24167 13.15 8.33333 13.3667 8.33333 13.5833C8.33333 13.8 8.24167 14.0167 8.09167 14.175ZM8.09167 11.2583L7.96667 11.3583C7.91667 11.3917 7.86667 11.4167 7.81667 11.4333C7.76667 11.4583 7.71667 11.475 7.66667 11.4833C7.60833 11.4917 7.55833 11.5 7.5 11.5C7.28333 11.5 7.06667 11.4083 6.90833 11.2583C6.75833 11.1 6.66667 10.8833 6.66667 10.6667C6.66667 10.45 6.75833 10.2333 6.90833 10.075C6.98333 9.99999 7.075 9.94166 7.18333 9.89999C7.49167 9.76666 7.85833 9.84166 8.09167 10.075C8.24167 10.2333 8.33333 10.45 8.33333 10.6667C8.33333 10.8833 8.24167 11.1 8.09167 11.2583ZM11.0083 14.175C10.85 14.325 10.6333 14.4167 10.4167 14.4167C10.2 14.4167 9.98333 14.325 9.825 14.175C9.675 14.0167 9.58333 13.8 9.58333 13.5833C9.58333 13.3667 9.675 13.15 9.825 12.9917C10.1333 12.6833 10.7 12.6833 11.0083 12.9917C11.1583 13.15 11.25 13.3667 11.25 13.5833C11.25 13.8 11.1583 14.0167 11.0083 14.175ZM11.0083 11.2583L10.8833 11.3583C10.8333 11.3917 10.7833 11.4167 10.7333 11.4333C10.6833 11.4583 10.6333 11.475 10.5833 11.4833C10.525 11.4917 10.4667 11.5 10.4167 11.5C10.2 11.5 9.98333 11.4083 9.825 11.2583C9.675 11.1 9.58333 10.8833 9.58333 10.6667C9.58333 10.45 9.675 10.2333 9.825 10.075C9.90833 9.99999 9.99167 9.94166 10.1 9.89999C10.25 9.83332 10.4167 9.81666 10.5833 9.84999C10.6333 9.85832 10.6833 9.87499 10.7333 9.89999C10.7833 9.91666 10.8333 9.94166 10.8833 9.97499L11.0083 10.075C11.1583 10.2333 11.25 10.45 11.25 10.6667C11.25 10.8833 11.1583 11.1 11.0083 11.2583Z" fill="#E70F2C"/>
</svg>
