<svg width="13" height="18" viewBox="0 0 13 18" fill="none" xmlns="http://www.w3.org/2000/svg">
<path d="M6.49997 0.666656C4.31663 0.666656 2.54163 2.44166 2.54163 4.62499C2.54163 6.76666 4.21663 8.49999 6.39997 8.57499C6.46663 8.56666 6.5333 8.56666 6.5833 8.57499H6.64163C7.6661 8.54081 8.63711 8.10955 9.34937 7.37241C10.0616 6.63527 10.4593 5.65002 10.4583 4.62499C10.4583 2.44166 8.6833 0.666656 6.49997 0.666656ZM10.7333 10.7908C8.4083 9.24082 4.61663 9.24082 2.27497 10.7908C1.21663 11.4992 0.633301 12.4575 0.633301 13.4825C0.633301 14.5075 1.21663 15.4575 2.26663 16.1575C3.4333 16.9408 4.96663 17.3325 6.49997 17.3325C8.0333 17.3325 9.56663 16.9408 10.7333 16.1575C11.7833 15.4492 12.3666 14.4992 12.3666 13.4658C12.3583 12.4408 11.7833 11.4908 10.7333 10.7908Z" fill="#E70F2C"/>
</svg>
